SplineFontDB: 3.2
FontName: Piswpi
FullName: Piswpi
FamilyName: Piswpi
Weight: Regular
Copyright: Copyright (c) 2024, W.F.Turnip
UComments: "2024-3-15: Created with FontForge (http://fontforge.org)"
Version: 001.000
ItalicAngle: 0
UnderlinePosition: -100
UnderlineWidth: 50
Ascent: 700
Descent: 200
InvalidEm: 0
LayerCount: 2
Layer: 0 1 "+gMyXYgAA" 1
Layer: 1 1 "+Uk2XYgAA" 0
XUID: [1021 352 -730677569 8029584]
StyleMap: 0x0000
FSType: 0
OS2Version: 0
OS2_WeightWidthSlopeOnly: 0
OS2_UseTypoMetrics: 1
CreationTime: 1710488177
ModificationTime: 1768751104
OS2TypoAscent: 0
OS2TypoAOffset: 1
OS2TypoDescent: 0
OS2TypoDOffset: 1
OS2TypoLinegap: 81
OS2WinAscent: 0
OS2WinAOffset: 1
OS2WinDescent: 0
OS2WinDOffset: 1
HheadAscent: 0
HheadAOffset: 1
HheadDescent: 0
HheadDOffset: 1
OS2Vendor: 'PfEd'
Lookup: 260 0 0 "mark" { "mark-1"  } ['mark' ('latn' <'dflt' > ) ]
MarkAttachClasses: 1
DEI: 91125
Encoding: UnicodeBmp
UnicodeInterp: none
NameList: AGL For New Fonts
DisplaySize: -48
AntiAlias: 1
FitToEm: 0
WinInfo: 14 14 10
BeginPrivate: 0
EndPrivate
AnchorClass2: "vowel" "mark-1"
BeginChars: 65536 98

StartChar: exclam
Encoding: 33 33 1
Width: 500
Flags: W
LayerCount: 2
Fore
SplineSet
250 475 m 128,-1,1
 260 475 260 475 267.5 467.5 c 128,-1,2
 275 460 275 460 275 450 c 128,-1,3
 275 440 275 440 267.5 432.5 c 128,-1,4
 260 425 260 425 250 425 c 128,-1,5
 240 425 240 425 232.5 432.5 c 128,-1,6
 225 440 225 440 225 450 c 128,-1,7
 225 460 225 460 232.5 467.5 c 128,-1,0
 240 475 240 475 250 475 c 128,-1,1
250 75 m 128,-1,9
 260 75 260 75 267.5 67.5 c 128,-1,10
 275 60 275 60 275 50 c 128,-1,11
 275 40 275 40 267.5 32.5 c 128,-1,12
 260 25 260 25 250 25 c 128,-1,13
 240 25 240 25 232.5 32.5 c 128,-1,14
 225 40 225 40 225 50 c 128,-1,15
 225 60 225 60 232.5 67.5 c 128,-1,8
 240 75 240 75 250 75 c 128,-1,9
EndSplineSet
EndChar

StartChar: quotedbl
Encoding: 34 34 2
Width: 500
Flags: W
LayerCount: 2
Fore
SplineSet
50 275 m 128,-1,1
 60 275 60 275 67.5 267.5 c 128,-1,2
 75 260 75 260 75 250 c 128,-1,3
 75 240 75 240 67.5 232.5 c 128,-1,4
 60 225 60 225 50 225 c 128,-1,5
 40 225 40 225 32.5 232.5 c 128,-1,6
 25 240 25 240 25 250 c 128,-1,7
 25 260 25 260 32.5 267.5 c 128,-1,0
 40 275 40 275 50 275 c 128,-1,1
450 275 m 128,-1,9
 460 275 460 275 467.5 267.5 c 128,-1,10
 475 260 475 260 475 250 c 128,-1,11
 475 240 475 240 467.5 232.5 c 128,-1,12
 460 225 460 225 450 225 c 128,-1,13
 440 225 440 225 432.5 232.5 c 128,-1,14
 425 240 425 240 425 250 c 128,-1,15
 425 260 425 260 432.5 267.5 c 128,-1,8
 440 275 440 275 450 275 c 128,-1,9
EndSplineSet
EndChar

StartChar: numbersign
Encoding: 35 35 3
Width: 500
Flags: W
LayerCount: 2
Fore
SplineSet
373.744140625 409.099609375 m 2,0,1
 381.329761399 416.500795489 381.329761399 416.500795489 391.620727539 416.39453125 c 128,-1,2
 401.911693679 416.288267011 401.911693679 416.288267011 409.099609375 409.099609375 c 128,-1,3
 416.422363281 401.777587891 416.422363281 401.777587891 416.422363281 391.421875 c 128,-1,4
 416.422363281 381.066162109 416.422363281 381.066162109 409.099609375 373.744140625 c 2,5,-1
 126.255859375 90.900390625 l 2,6,7
 118.933837891 83.5776367188 118.933837891 83.5776367188 108.578125 83.5776367188 c 128,-1,8
 98.2224121094 83.5776367188 98.2224121094 83.5776367188 90.900390625 90.900390625 c 128,-1,9
 83.5776367188 98.2224121094 83.5776367188 98.2224121094 83.5776367188 108.578125 c 128,-1,10
 83.5776367188 118.933837891 83.5776367188 118.933837891 90.900390625 126.255859375 c 2,11,-1
 373.744140625 409.099609375 l 2,0,1
90.900390625 409.099609375 m 128,-1,13
 98.1021974724 416.301416222 98.1021974724 416.301416222 108.389160156 416.402587891 c 128,-1,14
 118.67612284 416.503759559 118.67612284 416.503759559 126.255859375 409.099609375 c 2,15,-1
 409.099609375 126.255859375 l 2,16,17
 416.422363281 118.933837891 416.422363281 118.933837891 416.422363281 108.578125 c 128,-1,18
 416.422363281 98.2224121094 416.422363281 98.2224121094 409.099609375 90.900390625 c 128,-1,19
 401.777587891 83.5776367188 401.777587891 83.5776367188 391.421875 83.5776367188 c 128,-1,20
 381.066162109 83.5776367188 381.066162109 83.5776367188 373.744140625 90.900390625 c 2,21,-1
 90.900390625 373.744140625 l 2,22,23
 83.5776367188 381.066162109 83.5776367188 381.066162109 83.5776367188 391.421875 c 128,-1,12
 83.5776367188 401.777587891 83.5776367188 401.777587891 90.900390625 409.099609375 c 128,-1,13
250 375 m 128,-1,25
 260 375 260 375 267.5 367.5 c 128,-1,26
 275 360 275 360 275 350 c 128,-1,27
 275 340 275 340 267.5 332.5 c 128,-1,28
 260 325 260 325 250 325 c 128,-1,29
 240 325 240 325 232.5 332.5 c 128,-1,30
 225 340 225 340 225 350 c 128,-1,31
 225 360 225 360 232.5 367.5 c 128,-1,24
 240 375 240 375 250 375 c 128,-1,25
179.2890625 345.7109375 m 128,-1,33
 189.637451172 345.7109375 189.637451172 345.7109375 196.963256836 338.385131836 c 128,-1,34
 204.2890625 331.059326172 204.2890625 331.059326172 204.2890625 320.7109375 c 128,-1,35
 204.2890625 310.362548828 204.2890625 310.362548828 196.963256836 303.036743164 c 128,-1,36
 189.637451172 295.7109375 189.637451172 295.7109375 179.2890625 295.7109375 c 128,-1,37
 168.940673828 295.7109375 168.940673828 295.7109375 161.614868164 303.036743164 c 128,-1,38
 154.2890625 310.362548828 154.2890625 310.362548828 154.2890625 320.7109375 c 128,-1,39
 154.2890625 331.059326172 154.2890625 331.059326172 161.614868164 338.385131836 c 128,-1,32
 168.940673828 345.7109375 168.940673828 345.7109375 179.2890625 345.7109375 c 128,-1,33
320.7109375 345.7109375 m 128,-1,41
 331.059326172 345.7109375 331.059326172 345.7109375 338.385131836 338.385131836 c 128,-1,42
 345.7109375 331.059326172 345.7109375 331.059326172 345.7109375 320.7109375 c 128,-1,43
 345.7109375 310.362548828 345.7109375 310.362548828 338.385131836 303.036743164 c 128,-1,44
 331.059326172 295.7109375 331.059326172 295.7109375 320.7109375 295.7109375 c 128,-1,45
 310.362548828 295.7109375 310.362548828 295.7109375 303.036743164 303.036743164 c 128,-1,46
 295.7109375 310.362548828 295.7109375 310.362548828 295.7109375 320.7109375 c 128,-1,47
 295.7109375 331.059326172 295.7109375 331.059326172 303.036743164 338.385131836 c 128,-1,40
 310.362548828 345.7109375 310.362548828 345.7109375 320.7109375 345.7109375 c 128,-1,41
179.2890625 204.2890625 m 128,-1,49
 189.637451172 204.2890625 189.637451172 204.2890625 196.963256836 196.963256836 c 128,-1,50
 204.2890625 189.637451172 204.2890625 189.637451172 204.2890625 179.2890625 c 128,-1,51
 204.2890625 168.940673828 204.2890625 168.940673828 196.963256836 161.614868164 c 128,-1,52
 189.637451172 154.2890625 189.637451172 154.2890625 179.2890625 154.2890625 c 128,-1,53
 168.940673828 154.2890625 168.940673828 154.2890625 161.614868164 161.614868164 c 128,-1,54
 154.2890625 168.940673828 154.2890625 168.940673828 154.2890625 179.2890625 c 128,-1,55
 154.2890625 189.637451172 154.2890625 189.637451172 161.614868164 196.963256836 c 128,-1,48
 168.940673828 204.2890625 168.940673828 204.2890625 179.2890625 204.2890625 c 128,-1,49
320.7109375 204.2890625 m 128,-1,57
 331.059326172 204.2890625 331.059326172 204.2890625 338.385131836 196.963256836 c 128,-1,58
 345.7109375 189.637451172 345.7109375 189.637451172 345.7109375 179.2890625 c 128,-1,59
 345.7109375 168.940673828 345.7109375 168.940673828 338.385131836 161.614868164 c 128,-1,60
 331.059326172 154.2890625 331.059326172 154.2890625 320.7109375 154.2890625 c 128,-1,61
 310.362548828 154.2890625 310.362548828 154.2890625 303.036743164 161.614868164 c 128,-1,62
 295.7109375 168.940673828 295.7109375 168.940673828 295.7109375 179.2890625 c 128,-1,63
 295.7109375 189.637451172 295.7109375 189.637451172 303.036743164 196.963256836 c 128,-1,56
 310.362548828 204.2890625 310.362548828 204.2890625 320.7109375 204.2890625 c 128,-1,57
250 175 m 128,-1,65
 260 175 260 175 267.5 167.5 c 128,-1,66
 275 160 275 160 275 150 c 128,-1,67
 275 140 275 140 267.5 132.5 c 128,-1,68
 260 125 260 125 250 125 c 128,-1,69
 240 125 240 125 232.5 132.5 c 128,-1,70
 225 140 225 140 225 150 c 128,-1,71
 225 160 225 160 232.5 167.5 c 128,-1,64
 240 175 240 175 250 175 c 128,-1,65
EndSplineSet
EndChar

StartChar: dollar
Encoding: 36 36 4
Width: 500
Flags: W
LayerCount: 2
Fore
SplineSet
250 500 m 128,-1,1
 271 500 271 500 285.5 485.5 c 128,-1,2
 300 471 300 471 300 450 c 128,-1,3
 300 429 300 429 285.5 414.5 c 128,-1,4
 271 400 271 400 250 400 c 128,-1,5
 229 400 229 400 214.5 414.5 c 128,-1,6
 200 429 200 429 200 450 c 128,-1,7
 200 471 200 471 214.5 485.5 c 128,-1,0
 229 500 229 500 250 500 c 128,-1,1
108.578125 441.421875 m 128,-1,9
 129.274902344 441.421875 129.274902344 441.421875 143.926513672 426.770263672 c 128,-1,10
 158.578125 412.118652344 158.578125 412.118652344 158.578125 391.421875 c 128,-1,11
 158.578125 370.725097656 158.578125 370.725097656 143.926513672 356.073486328 c 128,-1,12
 129.274902344 341.421875 129.274902344 341.421875 108.578125 341.421875 c 128,-1,13
 87.8813476562 341.421875 87.8813476562 341.421875 73.2297363281 356.073486328 c 128,-1,14
 58.578125 370.725097656 58.578125 370.725097656 58.578125 391.421875 c 128,-1,15
 58.578125 412.118652344 58.578125 412.118652344 73.2297363281 426.770263672 c 128,-1,8
 87.8813476562 441.421875 87.8813476562 441.421875 108.578125 441.421875 c 128,-1,9
391.421875 441.421875 m 128,-1,17
 412.118652344 441.421875 412.118652344 441.421875 426.770263672 426.770263672 c 128,-1,18
 441.421875 412.118652344 441.421875 412.118652344 441.421875 391.421875 c 128,-1,19
 441.421875 370.725097656 441.421875 370.725097656 426.770263672 356.073486328 c 128,-1,20
 412.118652344 341.421875 412.118652344 341.421875 391.421875 341.421875 c 128,-1,21
 370.725097656 341.421875 370.725097656 341.421875 356.073486328 356.073486328 c 128,-1,22
 341.421875 370.725097656 341.421875 370.725097656 341.421875 391.421875 c 128,-1,23
 341.421875 412.118652344 341.421875 412.118652344 356.073486328 426.770263672 c 128,-1,16
 370.725097656 441.421875 370.725097656 441.421875 391.421875 441.421875 c 128,-1,17
400 250 m 128,-1,25
 400 188 400 188 356 144 c 128,-1,26
 312 100 312 100 250 100 c 128,-1,27
 188 100 188 100 144 144 c 128,-1,28
 100 188 100 188 100 250 c 128,-1,29
 100 312 100 312 144 356 c 128,-1,30
 188 400 188 400 250 400 c 128,-1,31
 312 400 312 400 356 356 c 128,-1,24
 400 312 400 312 400 250 c 128,-1,25
250 675 m 128,-1,33
 260 675 260 675 267.5 667.5 c 128,-1,34
 275 660 275 660 275 650 c 2,35,-1
 275 -150 l 2,36,37
 275 -160 275 -160 267.5 -167.5 c 128,-1,38
 260 -175 260 -175 250 -175 c 128,-1,39
 240 -175 240 -175 232.5 -167.5 c 128,-1,40
 225 -160 225 -160 225 -150 c 2,41,-1
 225 650 l 2,42,43
 225 660 225 660 232.5 667.5 c 128,-1,32
 240 675 240 675 250 675 c 128,-1,33
EndSplineSet
EndChar

StartChar: percent
Encoding: 37 37 5
Width: 500
Flags: W
LayerCount: 2
Fore
SplineSet
373.744140625 409.099609375 m 2,0,1
 381.329761399 416.500795489 381.329761399 416.500795489 391.620727539 416.39453125 c 128,-1,2
 401.911693679 416.288267011 401.911693679 416.288267011 409.099609375 409.099609375 c 128,-1,3
 416.422363281 401.777587891 416.422363281 401.777587891 416.422363281 391.421875 c 128,-1,4
 416.422363281 381.066162109 416.422363281 381.066162109 409.099609375 373.744140625 c 2,5,-1
 126.255859375 90.900390625 l 2,6,7
 118.933837891 83.5776367188 118.933837891 83.5776367188 108.578125 83.5776367188 c 128,-1,8
 98.2224121094 83.5776367188 98.2224121094 83.5776367188 90.900390625 90.900390625 c 128,-1,9
 83.5776367188 98.2224121094 83.5776367188 98.2224121094 83.5776367188 108.578125 c 128,-1,10
 83.5776367188 118.933837891 83.5776367188 118.933837891 90.900390625 126.255859375 c 2,11,-1
 373.744140625 409.099609375 l 2,0,1
250 375 m 128,-1,13
 260 375 260 375 267.5 367.5 c 128,-1,14
 275 360 275 360 275 350 c 128,-1,15
 275 340 275 340 267.5 332.5 c 128,-1,16
 260 325 260 325 250 325 c 128,-1,17
 240 325 240 325 232.5 332.5 c 128,-1,18
 225 340 225 340 225 350 c 128,-1,19
 225 360 225 360 232.5 367.5 c 128,-1,12
 240 375 240 375 250 375 c 128,-1,13
179.2890625 345.7109375 m 128,-1,21
 189.637451172 345.7109375 189.637451172 345.7109375 196.963256836 338.385131836 c 128,-1,22
 204.2890625 331.059326172 204.2890625 331.059326172 204.2890625 320.7109375 c 128,-1,23
 204.2890625 310.362548828 204.2890625 310.362548828 196.963256836 303.036743164 c 128,-1,24
 189.637451172 295.7109375 189.637451172 295.7109375 179.2890625 295.7109375 c 128,-1,25
 168.940673828 295.7109375 168.940673828 295.7109375 161.614868164 303.036743164 c 128,-1,26
 154.2890625 310.362548828 154.2890625 310.362548828 154.2890625 320.7109375 c 128,-1,27
 154.2890625 331.059326172 154.2890625 331.059326172 161.614868164 338.385131836 c 128,-1,20
 168.940673828 345.7109375 168.940673828 345.7109375 179.2890625 345.7109375 c 128,-1,21
320.7109375 345.7109375 m 128,-1,29
 331.059326172 345.7109375 331.059326172 345.7109375 338.385131836 338.385131836 c 128,-1,30
 345.7109375 331.059326172 345.7109375 331.059326172 345.7109375 320.7109375 c 128,-1,31
 345.7109375 310.362548828 345.7109375 310.362548828 338.385131836 303.036743164 c 128,-1,32
 331.059326172 295.7109375 331.059326172 295.7109375 320.7109375 295.7109375 c 128,-1,33
 310.362548828 295.7109375 310.362548828 295.7109375 303.036743164 303.036743164 c 128,-1,34
 295.7109375 310.362548828 295.7109375 310.362548828 295.7109375 320.7109375 c 128,-1,35
 295.7109375 331.059326172 295.7109375 331.059326172 303.036743164 338.385131836 c 128,-1,28
 310.362548828 345.7109375 310.362548828 345.7109375 320.7109375 345.7109375 c 128,-1,29
150 275 m 128,-1,37
 160 275 160 275 167.5 267.5 c 128,-1,38
 175 260 175 260 175 250 c 128,-1,39
 175 240 175 240 167.5 232.5 c 128,-1,40
 160 225 160 225 150 225 c 128,-1,41
 140 225 140 225 132.5 232.5 c 128,-1,42
 125 240 125 240 125 250 c 128,-1,43
 125 260 125 260 132.5 267.5 c 128,-1,36
 140 275 140 275 150 275 c 128,-1,37
350 275 m 128,-1,45
 360 275 360 275 367.5 267.5 c 128,-1,46
 375 260 375 260 375 250 c 128,-1,47
 375 240 375 240 367.5 232.5 c 128,-1,48
 360 225 360 225 350 225 c 128,-1,49
 340 225 340 225 332.5 232.5 c 128,-1,50
 325 240 325 240 325 250 c 128,-1,51
 325 260 325 260 332.5 267.5 c 128,-1,44
 340 275 340 275 350 275 c 128,-1,45
179.2890625 204.2890625 m 128,-1,53
 189.637451172 204.2890625 189.637451172 204.2890625 196.963256836 196.963256836 c 128,-1,54
 204.2890625 189.637451172 204.2890625 189.637451172 204.2890625 179.2890625 c 128,-1,55
 204.2890625 168.940673828 204.2890625 168.940673828 196.963256836 161.614868164 c 128,-1,56
 189.637451172 154.2890625 189.637451172 154.2890625 179.2890625 154.2890625 c 128,-1,57
 168.940673828 154.2890625 168.940673828 154.2890625 161.614868164 161.614868164 c 128,-1,58
 154.2890625 168.940673828 154.2890625 168.940673828 154.2890625 179.2890625 c 128,-1,59
 154.2890625 189.637451172 154.2890625 189.637451172 161.614868164 196.963256836 c 128,-1,52
 168.940673828 204.2890625 168.940673828 204.2890625 179.2890625 204.2890625 c 128,-1,53
320.7109375 204.2890625 m 128,-1,61
 331.059326172 204.2890625 331.059326172 204.2890625 338.385131836 196.963256836 c 128,-1,62
 345.7109375 189.637451172 345.7109375 189.637451172 345.7109375 179.2890625 c 128,-1,63
 345.7109375 168.940673828 345.7109375 168.940673828 338.385131836 161.614868164 c 128,-1,64
 331.059326172 154.2890625 331.059326172 154.2890625 320.7109375 154.2890625 c 128,-1,65
 310.362548828 154.2890625 310.362548828 154.2890625 303.036743164 161.614868164 c 128,-1,66
 295.7109375 168.940673828 295.7109375 168.940673828 295.7109375 179.2890625 c 128,-1,67
 295.7109375 189.637451172 295.7109375 189.637451172 303.036743164 196.963256836 c 128,-1,60
 310.362548828 204.2890625 310.362548828 204.2890625 320.7109375 204.2890625 c 128,-1,61
250 175 m 128,-1,69
 260 175 260 175 267.5 167.5 c 128,-1,70
 275 160 275 160 275 150 c 128,-1,71
 275 140 275 140 267.5 132.5 c 128,-1,72
 260 125 260 125 250 125 c 128,-1,73
 240 125 240 125 232.5 132.5 c 128,-1,74
 225 140 225 140 225 150 c 128,-1,75
 225 160 225 160 232.5 167.5 c 128,-1,68
 240 175 240 175 250 175 c 128,-1,69
EndSplineSet
EndChar

StartChar: ampersand
Encoding: 38 38 6
Width: 500
Flags: W
LayerCount: 2
Fore
SplineSet
108.578125 416.421875 m 128,-1,1
 118.926513672 416.421875 118.926513672 416.421875 126.252319336 409.096069336 c 128,-1,2
 133.578125 401.770263672 133.578125 401.770263672 133.578125 391.421875 c 128,-1,3
 133.578125 381.073486328 133.578125 381.073486328 126.252319336 373.747680664 c 128,-1,4
 118.926513672 366.421875 118.926513672 366.421875 108.578125 366.421875 c 128,-1,5
 98.2297363281 366.421875 98.2297363281 366.421875 90.9039306641 373.747680664 c 128,-1,6
 83.578125 381.073486328 83.578125 381.073486328 83.578125 391.421875 c 128,-1,7
 83.578125 401.770263672 83.578125 401.770263672 90.9039306641 409.096069336 c 128,-1,0
 98.2297363281 416.421875 98.2297363281 416.421875 108.578125 416.421875 c 128,-1,1
179.2890625 345.7109375 m 128,-1,9
 189.637451172 345.7109375 189.637451172 345.7109375 196.963256836 338.385131836 c 128,-1,10
 204.2890625 331.059326172 204.2890625 331.059326172 204.2890625 320.7109375 c 128,-1,11
 204.2890625 310.362548828 204.2890625 310.362548828 196.963256836 303.036743164 c 128,-1,12
 189.637451172 295.7109375 189.637451172 295.7109375 179.2890625 295.7109375 c 128,-1,13
 168.940673828 295.7109375 168.940673828 295.7109375 161.614868164 303.036743164 c 128,-1,14
 154.2890625 310.362548828 154.2890625 310.362548828 154.2890625 320.7109375 c 128,-1,15
 154.2890625 331.059326172 154.2890625 331.059326172 161.614868164 338.385131836 c 128,-1,8
 168.940673828 345.7109375 168.940673828 345.7109375 179.2890625 345.7109375 c 128,-1,9
50 275 m 128,-1,17
 60 275 60 275 67.5 267.5 c 128,-1,18
 75 260 75 260 75 250 c 128,-1,19
 75 240 75 240 67.5 232.5 c 128,-1,20
 60 225 60 225 50 225 c 128,-1,21
 40 225 40 225 32.5 232.5 c 128,-1,22
 25 240 25 240 25 250 c 128,-1,23
 25 260 25 260 32.5 267.5 c 128,-1,16
 40 275 40 275 50 275 c 128,-1,17
150 275 m 128,-1,25
 160 275 160 275 167.5 267.5 c 128,-1,26
 175 260 175 260 175 250 c 128,-1,27
 175 240 175 240 167.5 232.5 c 128,-1,28
 160 225 160 225 150 225 c 128,-1,29
 140 225 140 225 132.5 232.5 c 128,-1,30
 125 240 125 240 125 250 c 128,-1,31
 125 260 125 260 132.5 267.5 c 128,-1,24
 140 275 140 275 150 275 c 128,-1,25
250 275 m 128,-1,33
 260 275 260 275 267.5 267.5 c 128,-1,34
 275 260 275 260 275 250 c 128,-1,35
 275 240 275 240 267.5 232.5 c 128,-1,36
 260 225 260 225 250 225 c 128,-1,37
 240 225 240 225 232.5 232.5 c 128,-1,38
 225 240 225 240 225 250 c 128,-1,39
 225 260 225 260 232.5 267.5 c 128,-1,32
 240 275 240 275 250 275 c 128,-1,33
179.2890625 204.2890625 m 128,-1,41
 189.637451172 204.2890625 189.637451172 204.2890625 196.963256836 196.963256836 c 128,-1,42
 204.2890625 189.637451172 204.2890625 189.637451172 204.2890625 179.2890625 c 128,-1,43
 204.2890625 168.940673828 204.2890625 168.940673828 196.963256836 161.614868164 c 128,-1,44
 189.637451172 154.2890625 189.637451172 154.2890625 179.2890625 154.2890625 c 128,-1,45
 168.940673828 154.2890625 168.940673828 154.2890625 161.614868164 161.614868164 c 128,-1,46
 154.2890625 168.940673828 154.2890625 168.940673828 154.2890625 179.2890625 c 128,-1,47
 154.2890625 189.637451172 154.2890625 189.637451172 161.614868164 196.963256836 c 128,-1,40
 168.940673828 204.2890625 168.940673828 204.2890625 179.2890625 204.2890625 c 128,-1,41
108.578125 133.578125 m 128,-1,49
 118.926513672 133.578125 118.926513672 133.578125 126.252319336 126.252319336 c 128,-1,50
 133.578125 118.926513672 133.578125 118.926513672 133.578125 108.578125 c 128,-1,51
 133.578125 98.2297363281 133.578125 98.2297363281 126.252319336 90.9039306641 c 128,-1,52
 118.926513672 83.578125 118.926513672 83.578125 108.578125 83.578125 c 128,-1,53
 98.2297363281 83.578125 98.2297363281 83.578125 90.9039306641 90.9039306641 c 128,-1,54
 83.578125 98.2297363281 83.578125 98.2297363281 83.578125 108.578125 c 128,-1,55
 83.578125 118.926513672 83.578125 118.926513672 90.9039306641 126.252319336 c 128,-1,48
 98.2297363281 133.578125 98.2297363281 133.578125 108.578125 133.578125 c 128,-1,49
EndSplineSet
EndChar

StartChar: quotesingle
Encoding: 39 39 7
Width: 500
Flags: W
LayerCount: 2
Fore
SplineSet
250 275 m 128,-1,1
 260 275 260 275 267.5 267.5 c 128,-1,2
 275 260 275 260 275 250 c 128,-1,3
 275 240 275 240 267.5 232.5 c 128,-1,4
 260 225 260 225 250 225 c 128,-1,5
 240 225 240 225 232.5 232.5 c 128,-1,6
 225 240 225 240 225 250 c 128,-1,7
 225 260 225 260 232.5 267.5 c 128,-1,0
 240 275 240 275 250 275 c 128,-1,1
EndSplineSet
EndChar

StartChar: parenleft
Encoding: 40 40 8
Width: 500
Flags: W
LayerCount: 2
Fore
SplineSet
350 575 m 0,0,1
 354.472332832 574.994260721 354.472332832 574.994260721 358.669921875 573.435546875 c 0,2,-1
 358.767578125 573.407226562 l 0,3,4
 362.918786999 571.843024135 362.918786999 571.843024135 366.279296875 568.947265625 c 0,5,-1
 366.37109375 568.892578125 l 0,6,7
 366.39453125 568.865722656 366.39453125 568.865722656 366.41796875 568.837890625 c 0,8,9
 369.009528401 566.567344301 369.009528401 566.567344301 370.890625 563.677734375 c 0,10,11
 371.028808594 563.455566406 371.028808594 563.455566406 371.162109375 563.228515625 c 0,12,13
 372.889951103 560.46068626 372.889951103 560.46068626 373.849609375 557.341796875 c 0,14,15
 373.93248981 557.086362092 373.93248981 557.086362092 374.0234375 556.783203125 c 0,16,17
 374.981341027 553.457651258 374.981341027 553.457651258 375 550 c 0,18,19
 375 546.045622873 375 546.045622873 373.77734375 542.279296875 c 0,20,21
 373.775390625 542.274414062 373.775390625 542.274414062 373.775390625 542.271484375 c 0,22,23
 372.551840044 538.508737426 372.551840044 538.508737426 370.224609375 535.3046875 c 0,24,25
 369.593309574 534.435188932 369.593309574 534.435188932 368.89453125 533.62890625 c 0,26,27
 367.674724343 532.416412334 367.674724343 532.416412334 366.306640625 531.38671875 c 0,28,29
 365.25343227 530.359804085 365.25343227 530.359804085 364.091796875 529.466796875 c 0,30,31
 361.972603315 528.103928519 361.972603315 528.103928519 359.626953125 527.19140625 c 0,32,33
 358.528899152 526.623089126 358.528899152 526.623089126 357.388671875 526.169921875 c 0,34,35
 353.784429546 525.025861705 353.784429546 525.025861705 350 525 c 0,36,37
 340 525 340 525 332.5 532.5 c 128,-1,38
 325 540 325 540 325 550 c 128,-1,39
 325 560 325 560 332.5 567.5 c 128,-1,40
 340 575 340 575 350 575 c 0,0,1
278.728515625 545.705078125 m 0,41,42
 279.204589844 545.71484375 279.204589844 545.71484375 279.29296875 545.71484375 c 0,43,44
 289.640625 545.71484375 289.640625 545.71484375 296.966796875 538.388671875 c 128,-1,45
 304.29296875 531.0625 304.29296875 531.0625 304.29296875 520.708007812 c 128,-1,46
 304.29296875 510.359375 304.29296875 510.359375 296.966796875 503.033203125 c 128,-1,47
 289.640625 495.70703125 289.640625 495.70703125 279.28515625 495.70703125 c 128,-1,48
 268.9375 495.70703125 268.9375 495.70703125 261.611328125 503.033203125 c 128,-1,49
 254.28515625 510.359375 254.28515625 510.359375 254.28515625 520.71484375 c 128,-1,50
 254.28515625 531.0625 254.28515625 531.0625 261.611328125 538.388671875 c 0,51,52
 267.353226206 544.133645424 267.353226206 544.133645424 275.37890625 545.405273438 c 0,53,54
 277.037508015 545.667468033 277.037508015 545.667468033 278.728515625 545.705078125 c 0,41,42
250 475 m 0,55,56
 254.472332832 474.994260721 254.472332832 474.994260721 258.669921875 473.435546875 c 0,57,-1
 258.767578125 473.40625 l 0,58,59
 262.914038387 471.844006674 262.914038387 471.844006674 266.267578125 468.955078125 c 0,60,61
 266.319824219 468.925292969 266.319824219 468.925292969 266.37109375 468.89453125 c 128,-1,62
 266.443847656 468.829101562 266.443847656 468.829101562 266.515625 468.76171875 c 0,63,-1
 266.681640625 468.609375 l 0,64,65
 267.712052324 467.686661699 267.712052324 467.686661699 268.634765625 466.65625 c 0,66,-1
 268.811523438 466.451171875 l 0,67,68
 269.708268666 465.42777594 269.708268666 465.42777594 270.4921875 464.306640625 c 0,69,70
 270.57421875 464.186035156 270.57421875 464.186035156 270.65625 464.064453125 c 0,71,72
 271.418367231 462.944817579 271.418367231 462.944817579 272.0546875 461.75390625 c 0,73,74
 272.126953125 461.618652344 272.126953125 461.618652344 272.197265625 461.482421875 c 0,75,76
 272.824017974 460.267623973 272.824017974 460.267623973 273.309570312 459.0078125 c 0,77,-1
 273.41015625 458.751953125 l 0,78,79
 273.889527443 457.468188166 273.889527443 457.468188166 274.2265625 456.134765625 c 0,80,-1
 274.291015625 455.884765625 l 0,81,82
 274.623164117 454.517618709 274.623164117 454.517618709 274.798828125 453.115234375 c 0,83,-1
 274.8203125 452.96484375 l 0,84,85
 274.998565847 451.485782924 274.998565847 451.485782924 275 450 c 2,86,-1
 275 50 l 2,87,88
 275 40 275 40 267.5 32.5 c 128,-1,89
 260 25 260 25 250 25 c 128,-1,90
 240 25 240 25 232.5 32.5 c 128,-1,91
 225 40 225 40 225 50 c 2,92,-1
 225 150 l 0,93,94
 225 250 225 250 225 350 c 0,95,-1
 225 450 l 1,96,97
 225.043099787 454.246765665 225.043099787 454.246765665 226.48828125 458.244140625 c 0,98,99
 227.042809669 459.495874537 227.042809669 459.495874537 227.724609375 460.669921875 c 0,100,101
 228.889225915 463.260718771 228.889225915 463.260718771 230.60546875 465.525390625 c 0,102,103
 230.840371962 465.941098127 230.840371962 465.941098127 231.107421875 466.37109375 c 0,104,105
 232.31932276 467.575702813 232.31932276 467.575702813 233.685546875 468.60546875 c 0,106,107
 234.742099591 469.635753581 234.742099591 469.635753581 235.908203125 470.533203125 c 0,108,109
 238.016430702 471.888280485 238.016430702 471.888280485 240.3515625 472.796875 c 0,110,111
 241.468407531 473.375427566 241.468407531 473.375427566 242.6171875 473.83203125 c 0,112,113
 246.221815802 474.974151533 246.221815802 474.974151533 250 475 c 0,55,56
278.7265625 4.28125 m 0,114,115
 279.205078125 4.291015625 279.205078125 4.291015625 279.294921875 4.291015625 c 0,116,117
 289.640997245 4.291015625 289.640997245 4.291015625 296.966796875 -3.033203125 c 128,-1,118
 304.29296875 -10.359375 304.29296875 -10.359375 304.29296875 -20.71484375 c 128,-1,119
 304.29296875 -31.0625 304.29296875 -31.0625 296.966796875 -38.388671875 c 128,-1,120
 289.640625 -45.71484375 289.640625 -45.71484375 279.28515625 -45.71484375 c 128,-1,121
 268.9375 -45.71484375 268.9375 -45.71484375 261.611328125 -38.388671875 c 128,-1,122
 254.28515625 -31.0625 254.28515625 -31.0625 254.28515625 -20.7080078125 c 128,-1,123
 254.28515625 -10.359375 254.28515625 -10.359375 261.611328125 -3.033203125 c 0,124,125
 267.352823361 2.70982973735 267.352823361 2.70982973735 275.376953125 3.9814453125 c 0,126,127
 277.046469877 4.24388267049 277.046469877 4.24388267049 278.7265625 4.28125 c 0,114,115
350 -25 m 0,128,129
 360 -25 360 -25 367.5 -32.5 c 128,-1,130
 375 -40 375 -40 375 -50 c 128,-1,131
 375 -60 375 -60 367.5 -67.5 c 128,-1,132
 360 -75 360 -75 350 -75 c 0,133,134
 345.753234335 -74.9569002131 345.753234335 -74.9569002131 341.755859375 -73.51171875 c 0,135,136
 340.504125463 -72.9571903308 340.504125463 -72.9571903308 339.330078125 -72.275390625 c 0,137,138
 336.739281229 -71.1107740847 336.739281229 -71.1107740847 334.474609375 -69.39453125 c 0,139,140
 334.058901873 -69.1596280385 334.058901873 -69.1596280385 333.62890625 -68.892578125 c 0,141,142
 332.424297187 -67.6806772401 332.424297187 -67.6806772401 331.39453125 -66.314453125 c 0,143,144
 330.364246419 -65.2579004091 330.364246419 -65.2579004091 329.466796875 -64.091796875 c 0,145,146
 328.111719515 -61.983569298 328.111719515 -61.983569298 327.203125 -59.6484375 c 0,147,148
 326.624572434 -58.5315924691 326.624572434 -58.5315924691 326.16796875 -57.3828125 c 0,149,150
 325.025848467 -53.7781841981 325.025848467 -53.7781841981 325 -50 c 0,151,152
 325.043099787 -45.753234335 325.043099787 -45.753234335 326.48828125 -41.755859375 c 0,153,154
 327.036483288 -40.5154977341 327.036483288 -40.5154977341 327.7265625 -39.32421875 c 0,155,156
 328.888615668 -36.7402563043 328.888615668 -36.7402563043 330.6015625 -34.478515625 c 0,157,158
 330.862808802 -34.0201613351 330.862808802 -34.0201613351 331.10546875 -33.62890625 c 0,159,160
 332.325275657 -32.4164123336 332.325275657 -32.4164123336 333.693359375 -31.38671875 c 0,161,162
 334.74656773 -30.3598040851 334.74656773 -30.3598040851 335.908203125 -29.466796875 c 0,163,164
 338.027396685 -28.1039285185 338.027396685 -28.1039285185 340.373046875 -27.19140625 c 0,165,166
 341.471100848 -26.623089126 341.471100848 -26.623089126 342.611328125 -26.169921875 c 0,167,168
 346.215570454 -25.0258617053 346.215570454 -25.0258617053 350 -25 c 0,128,129
EndSplineSet
EndChar

StartChar: parenright
Encoding: 41 41 9
Width: 500
Flags: W
LayerCount: 2
Fore
SplineSet
150 575 m 0,0,1
 154.472332832 574.994260721 154.472332832 574.994260721 158.669921875 573.435546875 c 0,2,-1
 158.767578125 573.407226562 l 0,3,4
 162.918786999 571.843024135 162.918786999 571.843024135 166.279296875 568.947265625 c 0,5,-1
 166.37109375 568.892578125 l 0,6,7
 166.39453125 568.865722656 166.39453125 568.865722656 166.41796875 568.837890625 c 0,8,9
 169.009528401 566.567344301 169.009528401 566.567344301 170.890625 563.677734375 c 0,10,11
 171.028808594 563.455566406 171.028808594 563.455566406 171.162109375 563.228515625 c 0,12,13
 172.889951103 560.46068626 172.889951103 560.46068626 173.849609375 557.341796875 c 0,14,15
 173.93248981 557.086362092 173.93248981 557.086362092 174.0234375 556.783203125 c 0,16,17
 174.981341027 553.457651258 174.981341027 553.457651258 175 550 c 0,18,19
 175 546.045622873 175 546.045622873 173.77734375 542.279296875 c 0,20,21
 173.775390625 542.274414062 173.775390625 542.274414062 173.775390625 542.271484375 c 0,22,23
 172.551840044 538.508737426 172.551840044 538.508737426 170.224609375 535.3046875 c 0,24,25
 169.593309574 534.435188932 169.593309574 534.435188932 168.89453125 533.62890625 c 0,26,27
 167.674724343 532.416412334 167.674724343 532.416412334 166.306640625 531.38671875 c 0,28,29
 165.25343227 530.359804085 165.25343227 530.359804085 164.091796875 529.466796875 c 0,30,31
 161.972603315 528.103928519 161.972603315 528.103928519 159.626953125 527.19140625 c 0,32,33
 158.528899152 526.623089126 158.528899152 526.623089126 157.388671875 526.169921875 c 0,34,35
 153.784429546 525.025861705 153.784429546 525.025861705 150 525 c 0,36,37
 140 525 140 525 132.5 532.5 c 128,-1,38
 125 540 125 540 125 550 c 128,-1,39
 125 560 125 560 132.5 567.5 c 128,-1,40
 140 575 140 575 150 575 c 0,0,1
220.150390625 545.703125 m 0,41,42
 220.626464844 545.712890625 220.626464844 545.712890625 220.716796875 545.712890625 c 0,43,44
 231.064453125 545.712890625 231.064453125 545.712890625 238.388671875 538.388671875 c 128,-1,45
 245.71484375 531.0625 245.71484375 531.0625 245.71484375 520.708007812 c 128,-1,46
 245.71484375 510.359375 245.71484375 510.359375 238.388671875 503.033203125 c 128,-1,47
 231.0625 495.70703125 231.0625 495.70703125 220.708007812 495.70703125 c 128,-1,48
 210.359375 495.70703125 210.359375 495.70703125 203.033203125 503.033203125 c 128,-1,49
 195.70703125 510.359375 195.70703125 510.359375 195.70703125 520.71484375 c 128,-1,50
 195.70703125 531.0625 195.70703125 531.0625 203.033203125 538.388671875 c 0,51,52
 208.776341645 544.131810395 208.776341645 544.131810395 216.799804688 545.403320312 c 0,53,54
 218.469397281 545.665769592 218.469397281 545.665769592 220.150390625 545.703125 c 0,41,42
250 475 m 128,-1,56
 260 475 260 475 267.5 467.5 c 128,-1,57
 275 460 275 460 275 450 c 2,58,-1
 275 350 l 0,59,60
 275 250 275 250 275 150 c 0,61,-1
 275 50 l 1,62,63
 274.956900213 45.753234335 274.956900213 45.753234335 273.51171875 41.755859375 c 0,64,65
 272.957190331 40.5041254632 272.957190331 40.5041254632 272.275390625 39.330078125 c 0,66,67
 271.110774085 36.7392812293 271.110774085 36.7392812293 269.39453125 34.474609375 c 0,68,69
 269.159628038 34.0589018734 269.159628038 34.0589018734 268.892578125 33.62890625 c 0,70,71
 267.68067724 32.4242971875 267.68067724 32.4242971875 266.314453125 31.39453125 c 0,72,73
 265.257900409 30.3642464193 265.257900409 30.3642464193 264.091796875 29.466796875 c 0,74,75
 261.983569298 28.1117195154 261.983569298 28.1117195154 259.6484375 27.203125 c 0,76,77
 258.531592469 26.6245724339 258.531592469 26.6245724339 257.3828125 26.16796875 c 0,78,79
 253.778184198 25.0258484666 253.778184198 25.0258484666 250 25 c 0,80,81
 245.753234335 25.0430997869 245.753234335 25.0430997869 241.755859375 26.48828125 c 0,82,83
 240.515497734 27.0364832883 240.515497734 27.0364832883 239.32421875 27.7265625 c 0,84,85
 236.740256304 28.8886156677 236.740256304 28.8886156677 234.478515625 30.6015625 c 0,86,87
 234.020161335 30.8628088018 234.020161335 30.8628088018 233.62890625 31.10546875 c 0,88,89
 232.416412334 32.3252756575 232.416412334 32.3252756575 231.38671875 33.693359375 c 0,90,91
 230.359804085 34.7465677298 230.359804085 34.7465677298 229.466796875 35.908203125 c 0,92,93
 228.103928519 38.0273966847 228.103928519 38.0273966847 227.19140625 40.373046875 c 0,94,95
 226.623089126 41.4711008482 226.623089126 41.4711008482 226.169921875 42.611328125 c 0,96,97
 225.025861705 46.2155704537 225.025861705 46.2155704537 225 50 c 2,98,-1
 225 450 l 2,99,100
 225 460 225 460 232.5 467.5 c 128,-1,55
 240 475 240 475 250 475 c 128,-1,56
220.1484375 4.28125 m 2,101,-1
 220.149414062 4.28125 l 0,102,103
 220.625488281 4.291015625 220.625488281 4.291015625 220.716796875 4.291015625 c 0,104,105
 231.064453125 4.291015625 231.064453125 4.291015625 238.388671875 -3.033203125 c 128,-1,106
 245.71484375 -10.359375 245.71484375 -10.359375 245.71484375 -20.71484375 c 128,-1,107
 245.71484375 -31.0625 245.71484375 -31.0625 238.388671875 -38.388671875 c 128,-1,108
 231.0625 -45.71484375 231.0625 -45.71484375 220.708007812 -45.71484375 c 128,-1,109
 210.359375 -45.71484375 210.359375 -45.71484375 203.033203125 -38.388671875 c 128,-1,110
 195.70703125 -31.0625 195.70703125 -31.0625 195.70703125 -20.7080078125 c 128,-1,111
 195.70703125 -10.359375 195.70703125 -10.359375 203.033203125 -3.033203125 c 0,112,113
 208.776432334 2.71002608425 208.776432334 2.71002608425 216.797851562 3.9814453125 c 0,114,115
 218.467444156 4.24389459237 218.467444156 4.24389459237 220.1484375 4.28125 c 2,101,-1
150 -25 m 0,116,117
 160 -25 160 -25 167.5 -32.5 c 128,-1,118
 175 -40 175 -40 175 -50 c 128,-1,119
 175 -60 175 -60 167.5 -67.5 c 128,-1,120
 160 -75 160 -75 150 -75 c 0,121,122
 145.753234335 -74.9569002131 145.753234335 -74.9569002131 141.755859375 -73.51171875 c 0,123,124
 140.504125463 -72.9571903308 140.504125463 -72.9571903308 139.330078125 -72.275390625 c 0,125,126
 136.739281229 -71.1107740847 136.739281229 -71.1107740847 134.474609375 -69.39453125 c 0,127,128
 134.058901873 -69.1596280385 134.058901873 -69.1596280385 133.62890625 -68.892578125 c 0,129,130
 132.424297187 -67.6806772401 132.424297187 -67.6806772401 131.39453125 -66.314453125 c 0,131,132
 130.364246419 -65.2579004091 130.364246419 -65.2579004091 129.466796875 -64.091796875 c 0,133,134
 128.111719515 -61.983569298 128.111719515 -61.983569298 127.203125 -59.6484375 c 0,135,136
 126.624572434 -58.5315924691 126.624572434 -58.5315924691 126.16796875 -57.3828125 c 0,137,138
 125.025848467 -53.7781841981 125.025848467 -53.7781841981 125 -50 c 0,139,140
 125.043099787 -45.753234335 125.043099787 -45.753234335 126.48828125 -41.755859375 c 0,141,142
 127.036483288 -40.5154977341 127.036483288 -40.5154977341 127.7265625 -39.32421875 c 0,143,144
 128.888615668 -36.7402563043 128.888615668 -36.7402563043 130.6015625 -34.478515625 c 0,145,146
 130.862808802 -34.0201613351 130.862808802 -34.0201613351 131.10546875 -33.62890625 c 0,147,148
 132.325275657 -32.4164123336 132.325275657 -32.4164123336 133.693359375 -31.38671875 c 0,149,150
 134.74656773 -30.3598040851 134.74656773 -30.3598040851 135.908203125 -29.466796875 c 0,151,152
 138.027396685 -28.1039285185 138.027396685 -28.1039285185 140.373046875 -27.19140625 c 0,153,154
 141.471100848 -26.623089126 141.471100848 -26.623089126 142.611328125 -26.169921875 c 0,155,156
 146.215570454 -25.0258617053 146.215570454 -25.0258617053 150 -25 c 0,116,117
EndSplineSet
EndChar

StartChar: asterisk
Encoding: 42 42 10
Width: 500
Flags: W
LayerCount: 2
Fore
SplineSet
250 475 m 128,-1,1
 260 475 260 475 267.5 467.5 c 128,-1,2
 275 460 275 460 275 450 c 2,3,-1
 275 310.35546875 l 1,4,-1
 373.744140625 409.099609375 l 2,5,6
 380.945947472 416.301416222 380.945947472 416.301416222 391.232910156 416.402587891 c 128,-1,7
 401.51987284 416.503759559 401.51987284 416.503759559 409.099609375 409.099609375 c 0,8,9
 416.422363281 401.777587891 416.422363281 401.777587891 416.422363281 391.421875 c 128,-1,10
 416.422363281 381.066162109 416.422363281 381.066162109 409.099609375 373.744140625 c 2,11,-1
 285.35546875 250 l 1,12,-1
 409.099609375 126.255859375 l 2,13,14
 416.422363281 118.933837891 416.422363281 118.933837891 416.422363281 108.578125 c 128,-1,15
 416.422363281 98.2224121094 416.422363281 98.2224121094 409.099609375 90.900390625 c 128,-1,16
 401.777587891 83.5776367188 401.777587891 83.5776367188 391.421875 83.5776367188 c 128,-1,17
 381.066162109 83.5776367188 381.066162109 83.5776367188 373.744140625 90.900390625 c 2,18,-1
 275 189.64453125 l 1,19,-1
 275 50 l 2,20,21
 275 40 275 40 267.5 32.5 c 128,-1,22
 260 25 260 25 250 25 c 128,-1,23
 240 25 240 25 232.5 32.5 c 128,-1,24
 225 40 225 40 225 50 c 2,25,-1
 225 189.64453125 l 1,26,-1
 126.255859375 90.900390625 l 2,27,28
 118.933837891 83.5776367188 118.933837891 83.5776367188 108.578125 83.5776367188 c 128,-1,29
 98.2224121094 83.5776367188 98.2224121094 83.5776367188 90.900390625 90.900390625 c 128,-1,30
 83.5776367188 98.2224121094 83.5776367188 98.2224121094 83.5776367188 108.578125 c 128,-1,31
 83.5776367188 118.933837891 83.5776367188 118.933837891 90.900390625 126.255859375 c 2,32,-1
 214.64453125 250 l 1,33,-1
 90.900390625 373.744140625 l 2,34,35
 83.5776367188 381.066162109 83.5776367188 381.066162109 83.5776367188 391.421875 c 128,-1,36
 83.5776367188 401.777587891 83.5776367188 401.777587891 90.900390625 409.099609375 c 128,-1,37
 98.1021974724 416.301416222 98.1021974724 416.301416222 108.389160156 416.402587891 c 128,-1,38
 118.67612284 416.503759559 118.67612284 416.503759559 126.255859375 409.099609375 c 2,39,-1
 225 310.35546875 l 1,40,-1
 225 450 l 2,41,42
 225 460 225 460 232.5 467.5 c 128,-1,0
 240 475 240 475 250 475 c 128,-1,1
EndSplineSet
EndChar

StartChar: plus
Encoding: 43 43 11
Width: 500
Flags: W
LayerCount: 2
Fore
SplineSet
250 475 m 128,-1,1
 260 475 260 475 267.5 467.5 c 128,-1,2
 275 460 275 460 275 450 c 2,3,-1
 275 275 l 1,4,-1
 450 275 l 2,5,6
 460 275 460 275 467.5 267.5 c 128,-1,7
 475 260 475 260 475 250 c 128,-1,8
 475 240 475 240 467.5 232.5 c 128,-1,9
 460 225 460 225 450 225 c 2,10,-1
 275 225 l 1,11,-1
 275 50 l 2,12,13
 275 40 275 40 267.5 32.5 c 128,-1,14
 260 25 260 25 250 25 c 128,-1,15
 240 25 240 25 232.5 32.5 c 128,-1,16
 225 40 225 40 225 50 c 2,17,-1
 225 225 l 1,18,-1
 50 225 l 2,19,20
 40 225 40 225 32.5 232.5 c 128,-1,21
 25 240 25 240 25 250 c 128,-1,22
 25 260 25 260 32.5 267.5 c 128,-1,23
 40 275 40 275 50 275 c 2,24,-1
 225 275 l 1,25,-1
 225 450 l 2,26,27
 225 460 225 460 232.5 467.5 c 128,-1,0
 240 475 240 475 250 475 c 128,-1,1
EndSplineSet
EndChar

StartChar: comma
Encoding: 44 44 12
Width: 500
Flags: W
LayerCount: 2
Fore
SplineSet
50 275 m 128,-1,1
 60 275 60 275 67.5 267.5 c 128,-1,2
 75 260 75 260 75 250 c 128,-1,3
 75 240 75 240 67.5 232.5 c 128,-1,4
 60 225 60 225 50 225 c 128,-1,5
 40 225 40 225 32.5 232.5 c 128,-1,6
 25 240 25 240 25 250 c 128,-1,7
 25 260 25 260 32.5 267.5 c 128,-1,0
 40 275 40 275 50 275 c 128,-1,1
250 275 m 128,-1,9
 260 275 260 275 267.5 267.5 c 128,-1,10
 275 260 275 260 275 250 c 128,-1,11
 275 240 275 240 267.5 232.5 c 128,-1,12
 260 225 260 225 250 225 c 128,-1,13
 240 225 240 225 232.5 232.5 c 128,-1,14
 225 240 225 240 225 250 c 128,-1,15
 225 260 225 260 232.5 267.5 c 128,-1,8
 240 275 240 275 250 275 c 128,-1,9
450 275 m 128,-1,17
 460 275 460 275 467.5 267.5 c 128,-1,18
 475 260 475 260 475 250 c 128,-1,19
 475 240 475 240 467.5 232.5 c 128,-1,20
 460 225 460 225 450 225 c 128,-1,21
 440 225 440 225 432.5 232.5 c 128,-1,22
 425 240 425 240 425 250 c 128,-1,23
 425 260 425 260 432.5 267.5 c 128,-1,16
 440 275 440 275 450 275 c 128,-1,17
EndSplineSet
EndChar

StartChar: hyphen
Encoding: 45 45 13
Width: 500
Flags: W
LayerCount: 2
Fore
SplineSet
50 275 m 2,0,-1
 450 275 l 2,1,2
 460 275 460 275 467.5 267.5 c 128,-1,3
 475 260 475 260 475 250 c 128,-1,4
 475 240 475 240 467.5 232.5 c 128,-1,5
 460 225 460 225 450 225 c 2,6,-1
 50 225 l 2,7,8
 40 225 40 225 32.5 232.5 c 128,-1,9
 25 240 25 240 25 250 c 128,-1,10
 25 260 25 260 32.5 267.5 c 128,-1,11
 40 275 40 275 50 275 c 2,0,-1
EndSplineSet
EndChar

StartChar: period
Encoding: 46 46 14
Width: 500
Flags: W
LayerCount: 2
Fore
SplineSet
250 475 m 128,-1,1
 260 475 260 475 267.5 467.5 c 128,-1,2
 275 460 275 460 275 450 c 128,-1,3
 275 440 275 440 267.5 432.5 c 128,-1,4
 260 425 260 425 250 425 c 128,-1,5
 240 425 240 425 232.5 432.5 c 128,-1,6
 225 440 225 440 225 450 c 128,-1,7
 225 460 225 460 232.5 467.5 c 128,-1,0
 240 475 240 475 250 475 c 128,-1,1
50 275 m 128,-1,9
 60 275 60 275 67.5 267.5 c 128,-1,10
 75 260 75 260 75 250 c 128,-1,11
 75 240 75 240 67.5 232.5 c 128,-1,12
 60 225 60 225 50 225 c 128,-1,13
 40 225 40 225 32.5 232.5 c 128,-1,14
 25 240 25 240 25 250 c 128,-1,15
 25 260 25 260 32.5 267.5 c 128,-1,8
 40 275 40 275 50 275 c 128,-1,9
250 275 m 128,-1,17
 260 275 260 275 267.5 267.5 c 128,-1,18
 275 260 275 260 275 250 c 128,-1,19
 275 240 275 240 267.5 232.5 c 128,-1,20
 260 225 260 225 250 225 c 128,-1,21
 240 225 240 225 232.5 232.5 c 128,-1,22
 225 240 225 240 225 250 c 128,-1,23
 225 260 225 260 232.5 267.5 c 128,-1,16
 240 275 240 275 250 275 c 128,-1,17
450 275 m 128,-1,25
 460 275 460 275 467.5 267.5 c 128,-1,26
 475 260 475 260 475 250 c 128,-1,27
 475 240 475 240 467.5 232.5 c 128,-1,28
 460 225 460 225 450 225 c 128,-1,29
 440 225 440 225 432.5 232.5 c 128,-1,30
 425 240 425 240 425 250 c 128,-1,31
 425 260 425 260 432.5 267.5 c 128,-1,24
 440 275 440 275 450 275 c 128,-1,25
250 75 m 128,-1,33
 260 75 260 75 267.5 67.5 c 128,-1,34
 275 60 275 60 275 50 c 128,-1,35
 275 40 275 40 267.5 32.5 c 128,-1,36
 260 25 260 25 250 25 c 128,-1,37
 240 25 240 25 232.5 32.5 c 128,-1,38
 225 40 225 40 225 50 c 128,-1,39
 225 60 225 60 232.5 67.5 c 128,-1,32
 240 75 240 75 250 75 c 128,-1,33
EndSplineSet
EndChar

StartChar: slash
Encoding: 47 47 15
Width: 500
Flags: W
LayerCount: 2
Fore
SplineSet
373.744140625 409.099609375 m 2,0,1
 381.329761399 416.500795489 381.329761399 416.500795489 391.620727539 416.39453125 c 128,-1,2
 401.911693679 416.288267011 401.911693679 416.288267011 409.099609375 409.099609375 c 128,-1,3
 416.422363281 401.777587891 416.422363281 401.777587891 416.422363281 391.421875 c 128,-1,4
 416.422363281 381.066162109 416.422363281 381.066162109 409.099609375 373.744140625 c 2,5,-1
 126.255859375 90.900390625 l 2,6,7
 118.933837891 83.5776367188 118.933837891 83.5776367188 108.578125 83.5776367188 c 128,-1,8
 98.2224121094 83.5776367188 98.2224121094 83.5776367188 90.900390625 90.900390625 c 128,-1,9
 83.5776367188 98.2224121094 83.5776367188 98.2224121094 83.5776367188 108.578125 c 128,-1,10
 83.5776367188 118.933837891 83.5776367188 118.933837891 90.900390625 126.255859375 c 2,11,-1
 373.744140625 409.099609375 l 2,0,1
EndSplineSet
EndChar

StartChar: zero
Encoding: 48 48 16
Width: 500
Flags: W
LayerCount: 2
Fore
SplineSet
250 375 m 128,-1,1
 260 375 260 375 267.5 367.5 c 128,-1,2
 275 360 275 360 275 350 c 128,-1,3
 275 340 275 340 267.5 332.5 c 128,-1,4
 260 325 260 325 250 325 c 128,-1,5
 240 325 240 325 232.5 332.5 c 128,-1,6
 225 340 225 340 225 350 c 128,-1,7
 225 360 225 360 232.5 367.5 c 128,-1,0
 240 375 240 375 250 375 c 128,-1,1
179.2890625 345.7109375 m 128,-1,9
 189.637451172 345.7109375 189.637451172 345.7109375 196.963256836 338.385131836 c 128,-1,10
 204.2890625 331.059326172 204.2890625 331.059326172 204.2890625 320.7109375 c 128,-1,11
 204.2890625 310.362548828 204.2890625 310.362548828 196.963256836 303.036743164 c 128,-1,12
 189.637451172 295.7109375 189.637451172 295.7109375 179.2890625 295.7109375 c 128,-1,13
 168.940673828 295.7109375 168.940673828 295.7109375 161.614868164 303.036743164 c 128,-1,14
 154.2890625 310.362548828 154.2890625 310.362548828 154.2890625 320.7109375 c 128,-1,15
 154.2890625 331.059326172 154.2890625 331.059326172 161.614868164 338.385131836 c 128,-1,8
 168.940673828 345.7109375 168.940673828 345.7109375 179.2890625 345.7109375 c 128,-1,9
320.7109375 345.7109375 m 128,-1,17
 331.059326172 345.7109375 331.059326172 345.7109375 338.385131836 338.385131836 c 128,-1,18
 345.7109375 331.059326172 345.7109375 331.059326172 345.7109375 320.7109375 c 128,-1,19
 345.7109375 310.362548828 345.7109375 310.362548828 338.385131836 303.036743164 c 128,-1,20
 331.059326172 295.7109375 331.059326172 295.7109375 320.7109375 295.7109375 c 128,-1,21
 310.362548828 295.7109375 310.362548828 295.7109375 303.036743164 303.036743164 c 128,-1,22
 295.7109375 310.362548828 295.7109375 310.362548828 295.7109375 320.7109375 c 128,-1,23
 295.7109375 331.059326172 295.7109375 331.059326172 303.036743164 338.385131836 c 128,-1,16
 310.362548828 345.7109375 310.362548828 345.7109375 320.7109375 345.7109375 c 128,-1,17
150 275 m 128,-1,25
 160 275 160 275 167.5 267.5 c 128,-1,26
 175 260 175 260 175 250 c 128,-1,27
 175 240 175 240 167.5 232.5 c 128,-1,28
 160 225 160 225 150 225 c 128,-1,29
 140 225 140 225 132.5 232.5 c 128,-1,30
 125 240 125 240 125 250 c 128,-1,31
 125 260 125 260 132.5 267.5 c 128,-1,24
 140 275 140 275 150 275 c 128,-1,25
350 275 m 128,-1,33
 360 275 360 275 367.5 267.5 c 128,-1,34
 375 260 375 260 375 250 c 128,-1,35
 375 240 375 240 367.5 232.5 c 128,-1,36
 360 225 360 225 350 225 c 128,-1,37
 340 225 340 225 332.5 232.5 c 128,-1,38
 325 240 325 240 325 250 c 128,-1,39
 325 260 325 260 332.5 267.5 c 128,-1,32
 340 275 340 275 350 275 c 128,-1,33
179.2890625 204.2890625 m 128,-1,41
 189.637451172 204.2890625 189.637451172 204.2890625 196.963256836 196.963256836 c 128,-1,42
 204.2890625 189.637451172 204.2890625 189.637451172 204.2890625 179.2890625 c 128,-1,43
 204.2890625 168.940673828 204.2890625 168.940673828 196.963256836 161.614868164 c 128,-1,44
 189.637451172 154.2890625 189.637451172 154.2890625 179.2890625 154.2890625 c 128,-1,45
 168.940673828 154.2890625 168.940673828 154.2890625 161.614868164 161.614868164 c 128,-1,46
 154.2890625 168.940673828 154.2890625 168.940673828 154.2890625 179.2890625 c 128,-1,47
 154.2890625 189.637451172 154.2890625 189.637451172 161.614868164 196.963256836 c 128,-1,40
 168.940673828 204.2890625 168.940673828 204.2890625 179.2890625 204.2890625 c 128,-1,41
320.7109375 204.2890625 m 128,-1,49
 331.059326172 204.2890625 331.059326172 204.2890625 338.385131836 196.963256836 c 128,-1,50
 345.7109375 189.637451172 345.7109375 189.637451172 345.7109375 179.2890625 c 128,-1,51
 345.7109375 168.940673828 345.7109375 168.940673828 338.385131836 161.614868164 c 128,-1,52
 331.059326172 154.2890625 331.059326172 154.2890625 320.7109375 154.2890625 c 128,-1,53
 310.362548828 154.2890625 310.362548828 154.2890625 303.036743164 161.614868164 c 128,-1,54
 295.7109375 168.940673828 295.7109375 168.940673828 295.7109375 179.2890625 c 128,-1,55
 295.7109375 189.637451172 295.7109375 189.637451172 303.036743164 196.963256836 c 128,-1,48
 310.362548828 204.2890625 310.362548828 204.2890625 320.7109375 204.2890625 c 128,-1,49
250 175 m 128,-1,57
 260 175 260 175 267.5 167.5 c 128,-1,58
 275 160 275 160 275 150 c 128,-1,59
 275 140 275 140 267.5 132.5 c 128,-1,60
 260 125 260 125 250 125 c 128,-1,61
 240 125 240 125 232.5 132.5 c 128,-1,62
 225 140 225 140 225 150 c 128,-1,63
 225 160 225 160 232.5 167.5 c 128,-1,56
 240 175 240 175 250 175 c 128,-1,57
EndSplineSet
EndChar

StartChar: one
Encoding: 49 49 17
Width: 500
Flags: W
LayerCount: 2
Fore
SplineSet
250 500 m 128,-1,1
 271 500 271 500 285.5 485.5 c 128,-1,2
 300 471 300 471 300 450 c 128,-1,3
 300 429 300 429 285.5 414.5 c 128,-1,4
 271 400 271 400 250 400 c 128,-1,5
 229 400 229 400 214.5 414.5 c 128,-1,6
 200 429 200 429 200 450 c 128,-1,7
 200 471 200 471 214.5 485.5 c 128,-1,0
 229 500 229 500 250 500 c 128,-1,1
108.578125 441.421875 m 128,-1,9
 129.274902344 441.421875 129.274902344 441.421875 143.926513672 426.770263672 c 128,-1,10
 158.578125 412.118652344 158.578125 412.118652344 158.578125 391.421875 c 128,-1,11
 158.578125 370.725097656 158.578125 370.725097656 143.926513672 356.073486328 c 128,-1,12
 129.274902344 341.421875 129.274902344 341.421875 108.578125 341.421875 c 128,-1,13
 87.8813476562 341.421875 87.8813476562 341.421875 73.2297363281 356.073486328 c 128,-1,14
 58.578125 370.725097656 58.578125 370.725097656 58.578125 391.421875 c 128,-1,15
 58.578125 412.118652344 58.578125 412.118652344 73.2297363281 426.770263672 c 128,-1,8
 87.8813476562 441.421875 87.8813476562 441.421875 108.578125 441.421875 c 128,-1,9
50 300 m 128,-1,17
 71 300 71 300 85.5 285.5 c 128,-1,18
 100 271 100 271 100 250 c 128,-1,19
 100 229 100 229 85.5 214.5 c 128,-1,20
 71 200 71 200 50 200 c 128,-1,21
 29 200 29 200 14.5 214.5 c 128,-1,22
 0 229 0 229 0 250 c 128,-1,23
 0 271 0 271 14.5 285.5 c 128,-1,16
 29 300 29 300 50 300 c 128,-1,17
250 375 m 128,-1,25
 260 375 260 375 267.5 367.5 c 128,-1,26
 275 360 275 360 275 350 c 128,-1,27
 275 340 275 340 267.5 332.5 c 128,-1,28
 260 325 260 325 250 325 c 128,-1,29
 240 325 240 325 232.5 332.5 c 128,-1,30
 225 340 225 340 225 350 c 128,-1,31
 225 360 225 360 232.5 367.5 c 128,-1,24
 240 375 240 375 250 375 c 128,-1,25
179.2890625 345.7109375 m 128,-1,33
 189.637451172 345.7109375 189.637451172 345.7109375 196.963256836 338.385131836 c 128,-1,34
 204.2890625 331.059326172 204.2890625 331.059326172 204.2890625 320.7109375 c 128,-1,35
 204.2890625 310.362548828 204.2890625 310.362548828 196.963256836 303.036743164 c 128,-1,36
 189.637451172 295.7109375 189.637451172 295.7109375 179.2890625 295.7109375 c 128,-1,37
 168.940673828 295.7109375 168.940673828 295.7109375 161.614868164 303.036743164 c 128,-1,38
 154.2890625 310.362548828 154.2890625 310.362548828 154.2890625 320.7109375 c 128,-1,39
 154.2890625 331.059326172 154.2890625 331.059326172 161.614868164 338.385131836 c 128,-1,32
 168.940673828 345.7109375 168.940673828 345.7109375 179.2890625 345.7109375 c 128,-1,33
320.7109375 345.7109375 m 128,-1,41
 331.059326172 345.7109375 331.059326172 345.7109375 338.385131836 338.385131836 c 128,-1,42
 345.7109375 331.059326172 345.7109375 331.059326172 345.7109375 320.7109375 c 128,-1,43
 345.7109375 310.362548828 345.7109375 310.362548828 338.385131836 303.036743164 c 128,-1,44
 331.059326172 295.7109375 331.059326172 295.7109375 320.7109375 295.7109375 c 128,-1,45
 310.362548828 295.7109375 310.362548828 295.7109375 303.036743164 303.036743164 c 128,-1,46
 295.7109375 310.362548828 295.7109375 310.362548828 295.7109375 320.7109375 c 128,-1,47
 295.7109375 331.059326172 295.7109375 331.059326172 303.036743164 338.385131836 c 128,-1,40
 310.362548828 345.7109375 310.362548828 345.7109375 320.7109375 345.7109375 c 128,-1,41
150 275 m 128,-1,49
 160 275 160 275 167.5 267.5 c 128,-1,50
 175 260 175 260 175 250 c 128,-1,51
 175 240 175 240 167.5 232.5 c 128,-1,52
 160 225 160 225 150 225 c 128,-1,53
 140 225 140 225 132.5 232.5 c 128,-1,54
 125 240 125 240 125 250 c 128,-1,55
 125 260 125 260 132.5 267.5 c 128,-1,48
 140 275 140 275 150 275 c 128,-1,49
350 275 m 128,-1,57
 360 275 360 275 367.5 267.5 c 128,-1,58
 375 260 375 260 375 250 c 128,-1,59
 375 240 375 240 367.5 232.5 c 128,-1,60
 360 225 360 225 350 225 c 128,-1,61
 340 225 340 225 332.5 232.5 c 128,-1,62
 325 240 325 240 325 250 c 128,-1,63
 325 260 325 260 332.5 267.5 c 128,-1,56
 340 275 340 275 350 275 c 128,-1,57
179.2890625 204.2890625 m 128,-1,65
 189.637451172 204.2890625 189.637451172 204.2890625 196.963256836 196.963256836 c 128,-1,66
 204.2890625 189.637451172 204.2890625 189.637451172 204.2890625 179.2890625 c 128,-1,67
 204.2890625 168.940673828 204.2890625 168.940673828 196.963256836 161.614868164 c 128,-1,68
 189.637451172 154.2890625 189.637451172 154.2890625 179.2890625 154.2890625 c 128,-1,69
 168.940673828 154.2890625 168.940673828 154.2890625 161.614868164 161.614868164 c 128,-1,70
 154.2890625 168.940673828 154.2890625 168.940673828 154.2890625 179.2890625 c 128,-1,71
 154.2890625 189.637451172 154.2890625 189.637451172 161.614868164 196.963256836 c 128,-1,64
 168.940673828 204.2890625 168.940673828 204.2890625 179.2890625 204.2890625 c 128,-1,65
320.7109375 204.2890625 m 128,-1,73
 331.059326172 204.2890625 331.059326172 204.2890625 338.385131836 196.963256836 c 128,-1,74
 345.7109375 189.637451172 345.7109375 189.637451172 345.7109375 179.2890625 c 128,-1,75
 345.7109375 168.940673828 345.7109375 168.940673828 338.385131836 161.614868164 c 128,-1,76
 331.059326172 154.2890625 331.059326172 154.2890625 320.7109375 154.2890625 c 128,-1,77
 310.362548828 154.2890625 310.362548828 154.2890625 303.036743164 161.614868164 c 128,-1,78
 295.7109375 168.940673828 295.7109375 168.940673828 295.7109375 179.2890625 c 128,-1,79
 295.7109375 189.637451172 295.7109375 189.637451172 303.036743164 196.963256836 c 128,-1,72
 310.362548828 204.2890625 310.362548828 204.2890625 320.7109375 204.2890625 c 128,-1,73
250 175 m 128,-1,81
 260 175 260 175 267.5 167.5 c 128,-1,82
 275 160 275 160 275 150 c 128,-1,83
 275 140 275 140 267.5 132.5 c 128,-1,84
 260 125 260 125 250 125 c 128,-1,85
 240 125 240 125 232.5 132.5 c 128,-1,86
 225 140 225 140 225 150 c 128,-1,87
 225 160 225 160 232.5 167.5 c 128,-1,80
 240 175 240 175 250 175 c 128,-1,81
EndSplineSet
EndChar

StartChar: two
Encoding: 50 50 18
Width: 500
Flags: W
LayerCount: 2
Fore
SplineSet
250 500 m 128,-1,1
 271 500 271 500 285.5 485.5 c 128,-1,2
 300 471 300 471 300 450 c 128,-1,3
 300 429 300 429 285.5 414.5 c 128,-1,4
 271 400 271 400 250 400 c 128,-1,5
 229 400 229 400 214.5 414.5 c 128,-1,6
 200 429 200 429 200 450 c 128,-1,7
 200 471 200 471 214.5 485.5 c 128,-1,0
 229 500 229 500 250 500 c 128,-1,1
108.578125 441.421875 m 128,-1,9
 129.274902344 441.421875 129.274902344 441.421875 143.926513672 426.770263672 c 128,-1,10
 158.578125 412.118652344 158.578125 412.118652344 158.578125 391.421875 c 128,-1,11
 158.578125 370.725097656 158.578125 370.725097656 143.926513672 356.073486328 c 128,-1,12
 129.274902344 341.421875 129.274902344 341.421875 108.578125 341.421875 c 128,-1,13
 87.8813476562 341.421875 87.8813476562 341.421875 73.2297363281 356.073486328 c 128,-1,14
 58.578125 370.725097656 58.578125 370.725097656 58.578125 391.421875 c 128,-1,15
 58.578125 412.118652344 58.578125 412.118652344 73.2297363281 426.770263672 c 128,-1,8
 87.8813476562 441.421875 87.8813476562 441.421875 108.578125 441.421875 c 128,-1,9
391.421875 441.421875 m 128,-1,17
 412.118652344 441.421875 412.118652344 441.421875 426.770263672 426.770263672 c 128,-1,18
 441.421875 412.118652344 441.421875 412.118652344 441.421875 391.421875 c 128,-1,19
 441.421875 370.725097656 441.421875 370.725097656 426.770263672 356.073486328 c 128,-1,20
 412.118652344 341.421875 412.118652344 341.421875 391.421875 341.421875 c 128,-1,21
 370.725097656 341.421875 370.725097656 341.421875 356.073486328 356.073486328 c 128,-1,22
 341.421875 370.725097656 341.421875 370.725097656 341.421875 391.421875 c 128,-1,23
 341.421875 412.118652344 341.421875 412.118652344 356.073486328 426.770263672 c 128,-1,16
 370.725097656 441.421875 370.725097656 441.421875 391.421875 441.421875 c 128,-1,17
250 375 m 128,-1,25
 260 375 260 375 267.5 367.5 c 128,-1,26
 275 360 275 360 275 350 c 128,-1,27
 275 340 275 340 267.5 332.5 c 128,-1,28
 260 325 260 325 250 325 c 128,-1,29
 240 325 240 325 232.5 332.5 c 128,-1,30
 225 340 225 340 225 350 c 128,-1,31
 225 360 225 360 232.5 367.5 c 128,-1,24
 240 375 240 375 250 375 c 128,-1,25
179.2890625 345.7109375 m 128,-1,33
 189.637451172 345.7109375 189.637451172 345.7109375 196.963256836 338.385131836 c 128,-1,34
 204.2890625 331.059326172 204.2890625 331.059326172 204.2890625 320.7109375 c 128,-1,35
 204.2890625 310.362548828 204.2890625 310.362548828 196.963256836 303.036743164 c 128,-1,36
 189.637451172 295.7109375 189.637451172 295.7109375 179.2890625 295.7109375 c 128,-1,37
 168.940673828 295.7109375 168.940673828 295.7109375 161.614868164 303.036743164 c 128,-1,38
 154.2890625 310.362548828 154.2890625 310.362548828 154.2890625 320.7109375 c 128,-1,39
 154.2890625 331.059326172 154.2890625 331.059326172 161.614868164 338.385131836 c 128,-1,32
 168.940673828 345.7109375 168.940673828 345.7109375 179.2890625 345.7109375 c 128,-1,33
320.7109375 345.7109375 m 128,-1,41
 331.059326172 345.7109375 331.059326172 345.7109375 338.385131836 338.385131836 c 128,-1,42
 345.7109375 331.059326172 345.7109375 331.059326172 345.7109375 320.7109375 c 128,-1,43
 345.7109375 310.362548828 345.7109375 310.362548828 338.385131836 303.036743164 c 128,-1,44
 331.059326172 295.7109375 331.059326172 295.7109375 320.7109375 295.7109375 c 128,-1,45
 310.362548828 295.7109375 310.362548828 295.7109375 303.036743164 303.036743164 c 128,-1,46
 295.7109375 310.362548828 295.7109375 310.362548828 295.7109375 320.7109375 c 128,-1,47
 295.7109375 331.059326172 295.7109375 331.059326172 303.036743164 338.385131836 c 128,-1,40
 310.362548828 345.7109375 310.362548828 345.7109375 320.7109375 345.7109375 c 128,-1,41
150 275 m 128,-1,49
 160 275 160 275 167.5 267.5 c 128,-1,50
 175 260 175 260 175 250 c 128,-1,51
 175 240 175 240 167.5 232.5 c 128,-1,52
 160 225 160 225 150 225 c 128,-1,53
 140 225 140 225 132.5 232.5 c 128,-1,54
 125 240 125 240 125 250 c 128,-1,55
 125 260 125 260 132.5 267.5 c 128,-1,48
 140 275 140 275 150 275 c 128,-1,49
350 275 m 128,-1,57
 360 275 360 275 367.5 267.5 c 128,-1,58
 375 260 375 260 375 250 c 128,-1,59
 375 240 375 240 367.5 232.5 c 128,-1,60
 360 225 360 225 350 225 c 128,-1,61
 340 225 340 225 332.5 232.5 c 128,-1,62
 325 240 325 240 325 250 c 128,-1,63
 325 260 325 260 332.5 267.5 c 128,-1,56
 340 275 340 275 350 275 c 128,-1,57
179.2890625 204.2890625 m 128,-1,65
 189.637451172 204.2890625 189.637451172 204.2890625 196.963256836 196.963256836 c 128,-1,66
 204.2890625 189.637451172 204.2890625 189.637451172 204.2890625 179.2890625 c 128,-1,67
 204.2890625 168.940673828 204.2890625 168.940673828 196.963256836 161.614868164 c 128,-1,68
 189.637451172 154.2890625 189.637451172 154.2890625 179.2890625 154.2890625 c 128,-1,69
 168.940673828 154.2890625 168.940673828 154.2890625 161.614868164 161.614868164 c 128,-1,70
 154.2890625 168.940673828 154.2890625 168.940673828 154.2890625 179.2890625 c 128,-1,71
 154.2890625 189.637451172 154.2890625 189.637451172 161.614868164 196.963256836 c 128,-1,64
 168.940673828 204.2890625 168.940673828 204.2890625 179.2890625 204.2890625 c 128,-1,65
320.7109375 204.2890625 m 128,-1,73
 331.059326172 204.2890625 331.059326172 204.2890625 338.385131836 196.963256836 c 128,-1,74
 345.7109375 189.637451172 345.7109375 189.637451172 345.7109375 179.2890625 c 128,-1,75
 345.7109375 168.940673828 345.7109375 168.940673828 338.385131836 161.614868164 c 128,-1,76
 331.059326172 154.2890625 331.059326172 154.2890625 320.7109375 154.2890625 c 128,-1,77
 310.362548828 154.2890625 310.362548828 154.2890625 303.036743164 161.614868164 c 128,-1,78
 295.7109375 168.940673828 295.7109375 168.940673828 295.7109375 179.2890625 c 128,-1,79
 295.7109375 189.637451172 295.7109375 189.637451172 303.036743164 196.963256836 c 128,-1,72
 310.362548828 204.2890625 310.362548828 204.2890625 320.7109375 204.2890625 c 128,-1,73
250 175 m 128,-1,81
 260 175 260 175 267.5 167.5 c 128,-1,82
 275 160 275 160 275 150 c 128,-1,83
 275 140 275 140 267.5 132.5 c 128,-1,84
 260 125 260 125 250 125 c 128,-1,85
 240 125 240 125 232.5 132.5 c 128,-1,86
 225 140 225 140 225 150 c 128,-1,87
 225 160 225 160 232.5 167.5 c 128,-1,80
 240 175 240 175 250 175 c 128,-1,81
EndSplineSet
EndChar

StartChar: three
Encoding: 51 51 19
Width: 500
Flags: W
LayerCount: 2
Fore
SplineSet
250 500 m 128,-1,1
 271 500 271 500 285.5 485.5 c 128,-1,2
 300 471 300 471 300 450 c 128,-1,3
 300 429 300 429 285.5 414.5 c 128,-1,4
 271 400 271 400 250 400 c 128,-1,5
 229 400 229 400 214.5 414.5 c 128,-1,6
 200 429 200 429 200 450 c 128,-1,7
 200 471 200 471 214.5 485.5 c 128,-1,0
 229 500 229 500 250 500 c 128,-1,1
391.421875 441.421875 m 128,-1,9
 412.118652344 441.421875 412.118652344 441.421875 426.770263672 426.770263672 c 128,-1,10
 441.421875 412.118652344 441.421875 412.118652344 441.421875 391.421875 c 128,-1,11
 441.421875 370.725097656 441.421875 370.725097656 426.770263672 356.073486328 c 128,-1,12
 412.118652344 341.421875 412.118652344 341.421875 391.421875 341.421875 c 128,-1,13
 370.725097656 341.421875 370.725097656 341.421875 356.073486328 356.073486328 c 128,-1,14
 341.421875 370.725097656 341.421875 370.725097656 341.421875 391.421875 c 128,-1,15
 341.421875 412.118652344 341.421875 412.118652344 356.073486328 426.770263672 c 128,-1,8
 370.725097656 441.421875 370.725097656 441.421875 391.421875 441.421875 c 128,-1,9
450 300 m 128,-1,17
 471 300 471 300 485.5 285.5 c 128,-1,18
 500 271 500 271 500 250 c 128,-1,19
 500 229 500 229 485.5 214.5 c 128,-1,20
 471 200 471 200 450 200 c 128,-1,21
 429 200 429 200 414.5 214.5 c 128,-1,22
 400 229 400 229 400 250 c 128,-1,23
 400 271 400 271 414.5 285.5 c 128,-1,16
 429 300 429 300 450 300 c 128,-1,17
250 375 m 128,-1,25
 260 375 260 375 267.5 367.5 c 128,-1,26
 275 360 275 360 275 350 c 128,-1,27
 275 340 275 340 267.5 332.5 c 128,-1,28
 260 325 260 325 250 325 c 128,-1,29
 240 325 240 325 232.5 332.5 c 128,-1,30
 225 340 225 340 225 350 c 128,-1,31
 225 360 225 360 232.5 367.5 c 128,-1,24
 240 375 240 375 250 375 c 128,-1,25
179.2890625 345.7109375 m 128,-1,33
 189.637451172 345.7109375 189.637451172 345.7109375 196.963256836 338.385131836 c 128,-1,34
 204.2890625 331.059326172 204.2890625 331.059326172 204.2890625 320.7109375 c 128,-1,35
 204.2890625 310.362548828 204.2890625 310.362548828 196.963256836 303.036743164 c 128,-1,36
 189.637451172 295.7109375 189.637451172 295.7109375 179.2890625 295.7109375 c 128,-1,37
 168.940673828 295.7109375 168.940673828 295.7109375 161.614868164 303.036743164 c 128,-1,38
 154.2890625 310.362548828 154.2890625 310.362548828 154.2890625 320.7109375 c 128,-1,39
 154.2890625 331.059326172 154.2890625 331.059326172 161.614868164 338.385131836 c 128,-1,32
 168.940673828 345.7109375 168.940673828 345.7109375 179.2890625 345.7109375 c 128,-1,33
320.7109375 345.7109375 m 128,-1,41
 331.059326172 345.7109375 331.059326172 345.7109375 338.385131836 338.385131836 c 128,-1,42
 345.7109375 331.059326172 345.7109375 331.059326172 345.7109375 320.7109375 c 128,-1,43
 345.7109375 310.362548828 345.7109375 310.362548828 338.385131836 303.036743164 c 128,-1,44
 331.059326172 295.7109375 331.059326172 295.7109375 320.7109375 295.7109375 c 128,-1,45
 310.362548828 295.7109375 310.362548828 295.7109375 303.036743164 303.036743164 c 128,-1,46
 295.7109375 310.362548828 295.7109375 310.362548828 295.7109375 320.7109375 c 128,-1,47
 295.7109375 331.059326172 295.7109375 331.059326172 303.036743164 338.385131836 c 128,-1,40
 310.362548828 345.7109375 310.362548828 345.7109375 320.7109375 345.7109375 c 128,-1,41
150 275 m 128,-1,49
 160 275 160 275 167.5 267.5 c 128,-1,50
 175 260 175 260 175 250 c 128,-1,51
 175 240 175 240 167.5 232.5 c 128,-1,52
 160 225 160 225 150 225 c 128,-1,53
 140 225 140 225 132.5 232.5 c 128,-1,54
 125 240 125 240 125 250 c 128,-1,55
 125 260 125 260 132.5 267.5 c 128,-1,48
 140 275 140 275 150 275 c 128,-1,49
350 275 m 128,-1,57
 360 275 360 275 367.5 267.5 c 128,-1,58
 375 260 375 260 375 250 c 128,-1,59
 375 240 375 240 367.5 232.5 c 128,-1,60
 360 225 360 225 350 225 c 128,-1,61
 340 225 340 225 332.5 232.5 c 128,-1,62
 325 240 325 240 325 250 c 128,-1,63
 325 260 325 260 332.5 267.5 c 128,-1,56
 340 275 340 275 350 275 c 128,-1,57
179.2890625 204.2890625 m 128,-1,65
 189.637451172 204.2890625 189.637451172 204.2890625 196.963256836 196.963256836 c 128,-1,66
 204.2890625 189.637451172 204.2890625 189.637451172 204.2890625 179.2890625 c 128,-1,67
 204.2890625 168.940673828 204.2890625 168.940673828 196.963256836 161.614868164 c 128,-1,68
 189.637451172 154.2890625 189.637451172 154.2890625 179.2890625 154.2890625 c 128,-1,69
 168.940673828 154.2890625 168.940673828 154.2890625 161.614868164 161.614868164 c 128,-1,70
 154.2890625 168.940673828 154.2890625 168.940673828 154.2890625 179.2890625 c 128,-1,71
 154.2890625 189.637451172 154.2890625 189.637451172 161.614868164 196.963256836 c 128,-1,64
 168.940673828 204.2890625 168.940673828 204.2890625 179.2890625 204.2890625 c 128,-1,65
320.7109375 204.2890625 m 128,-1,73
 331.059326172 204.2890625 331.059326172 204.2890625 338.385131836 196.963256836 c 128,-1,74
 345.7109375 189.637451172 345.7109375 189.637451172 345.7109375 179.2890625 c 128,-1,75
 345.7109375 168.940673828 345.7109375 168.940673828 338.385131836 161.614868164 c 128,-1,76
 331.059326172 154.2890625 331.059326172 154.2890625 320.7109375 154.2890625 c 128,-1,77
 310.362548828 154.2890625 310.362548828 154.2890625 303.036743164 161.614868164 c 128,-1,78
 295.7109375 168.940673828 295.7109375 168.940673828 295.7109375 179.2890625 c 128,-1,79
 295.7109375 189.637451172 295.7109375 189.637451172 303.036743164 196.963256836 c 128,-1,72
 310.362548828 204.2890625 310.362548828 204.2890625 320.7109375 204.2890625 c 128,-1,73
250 175 m 128,-1,81
 260 175 260 175 267.5 167.5 c 128,-1,82
 275 160 275 160 275 150 c 128,-1,83
 275 140 275 140 267.5 132.5 c 128,-1,84
 260 125 260 125 250 125 c 128,-1,85
 240 125 240 125 232.5 132.5 c 128,-1,86
 225 140 225 140 225 150 c 128,-1,87
 225 160 225 160 232.5 167.5 c 128,-1,80
 240 175 240 175 250 175 c 128,-1,81
EndSplineSet
EndChar

StartChar: four
Encoding: 52 52 20
Width: 500
Flags: W
LayerCount: 2
Fore
SplineSet
108.578125 441.421875 m 128,-1,1
 129.274902344 441.421875 129.274902344 441.421875 143.926513672 426.770263672 c 128,-1,2
 158.578125 412.118652344 158.578125 412.118652344 158.578125 391.421875 c 128,-1,3
 158.578125 370.725097656 158.578125 370.725097656 143.926513672 356.073486328 c 128,-1,4
 129.274902344 341.421875 129.274902344 341.421875 108.578125 341.421875 c 128,-1,5
 87.8813476562 341.421875 87.8813476562 341.421875 73.2297363281 356.073486328 c 128,-1,6
 58.578125 370.725097656 58.578125 370.725097656 58.578125 391.421875 c 128,-1,7
 58.578125 412.118652344 58.578125 412.118652344 73.2297363281 426.770263672 c 128,-1,0
 87.8813476562 441.421875 87.8813476562 441.421875 108.578125 441.421875 c 128,-1,1
50 300 m 128,-1,9
 71 300 71 300 85.5 285.5 c 128,-1,10
 100 271 100 271 100 250 c 128,-1,11
 100 229 100 229 85.5 214.5 c 128,-1,12
 71 200 71 200 50 200 c 128,-1,13
 29 200 29 200 14.5 214.5 c 128,-1,14
 0 229 0 229 0 250 c 128,-1,15
 0 271 0 271 14.5 285.5 c 128,-1,8
 29 300 29 300 50 300 c 128,-1,9
108.578125 158.578125 m 128,-1,17
 129.274902344 158.578125 129.274902344 158.578125 143.926513672 143.926513672 c 128,-1,18
 158.578125 129.274902344 158.578125 129.274902344 158.578125 108.578125 c 128,-1,19
 158.578125 87.8813476562 158.578125 87.8813476562 143.926513672 73.2297363281 c 128,-1,20
 129.274902344 58.578125 129.274902344 58.578125 108.578125 58.578125 c 128,-1,21
 87.8813476562 58.578125 87.8813476562 58.578125 73.2297363281 73.2297363281 c 128,-1,22
 58.578125 87.8813476562 58.578125 87.8813476562 58.578125 108.578125 c 128,-1,23
 58.578125 129.274902344 58.578125 129.274902344 73.2297363281 143.926513672 c 128,-1,16
 87.8813476562 158.578125 87.8813476562 158.578125 108.578125 158.578125 c 128,-1,17
250 375 m 128,-1,25
 260 375 260 375 267.5 367.5 c 128,-1,26
 275 360 275 360 275 350 c 128,-1,27
 275 340 275 340 267.5 332.5 c 128,-1,28
 260 325 260 325 250 325 c 128,-1,29
 240 325 240 325 232.5 332.5 c 128,-1,30
 225 340 225 340 225 350 c 128,-1,31
 225 360 225 360 232.5 367.5 c 128,-1,24
 240 375 240 375 250 375 c 128,-1,25
179.2890625 345.7109375 m 128,-1,33
 189.637451172 345.7109375 189.637451172 345.7109375 196.963256836 338.385131836 c 128,-1,34
 204.2890625 331.059326172 204.2890625 331.059326172 204.2890625 320.7109375 c 128,-1,35
 204.2890625 310.362548828 204.2890625 310.362548828 196.963256836 303.036743164 c 128,-1,36
 189.637451172 295.7109375 189.637451172 295.7109375 179.2890625 295.7109375 c 128,-1,37
 168.940673828 295.7109375 168.940673828 295.7109375 161.614868164 303.036743164 c 128,-1,38
 154.2890625 310.362548828 154.2890625 310.362548828 154.2890625 320.7109375 c 128,-1,39
 154.2890625 331.059326172 154.2890625 331.059326172 161.614868164 338.385131836 c 128,-1,32
 168.940673828 345.7109375 168.940673828 345.7109375 179.2890625 345.7109375 c 128,-1,33
320.7109375 345.7109375 m 128,-1,41
 331.059326172 345.7109375 331.059326172 345.7109375 338.385131836 338.385131836 c 128,-1,42
 345.7109375 331.059326172 345.7109375 331.059326172 345.7109375 320.7109375 c 128,-1,43
 345.7109375 310.362548828 345.7109375 310.362548828 338.385131836 303.036743164 c 128,-1,44
 331.059326172 295.7109375 331.059326172 295.7109375 320.7109375 295.7109375 c 128,-1,45
 310.362548828 295.7109375 310.362548828 295.7109375 303.036743164 303.036743164 c 128,-1,46
 295.7109375 310.362548828 295.7109375 310.362548828 295.7109375 320.7109375 c 128,-1,47
 295.7109375 331.059326172 295.7109375 331.059326172 303.036743164 338.385131836 c 128,-1,40
 310.362548828 345.7109375 310.362548828 345.7109375 320.7109375 345.7109375 c 128,-1,41
150 275 m 128,-1,49
 160 275 160 275 167.5 267.5 c 128,-1,50
 175 260 175 260 175 250 c 128,-1,51
 175 240 175 240 167.5 232.5 c 128,-1,52
 160 225 160 225 150 225 c 128,-1,53
 140 225 140 225 132.5 232.5 c 128,-1,54
 125 240 125 240 125 250 c 128,-1,55
 125 260 125 260 132.5 267.5 c 128,-1,48
 140 275 140 275 150 275 c 128,-1,49
350 275 m 128,-1,57
 360 275 360 275 367.5 267.5 c 128,-1,58
 375 260 375 260 375 250 c 128,-1,59
 375 240 375 240 367.5 232.5 c 128,-1,60
 360 225 360 225 350 225 c 128,-1,61
 340 225 340 225 332.5 232.5 c 128,-1,62
 325 240 325 240 325 250 c 128,-1,63
 325 260 325 260 332.5 267.5 c 128,-1,56
 340 275 340 275 350 275 c 128,-1,57
179.2890625 204.2890625 m 128,-1,65
 189.637451172 204.2890625 189.637451172 204.2890625 196.963256836 196.963256836 c 128,-1,66
 204.2890625 189.637451172 204.2890625 189.637451172 204.2890625 179.2890625 c 128,-1,67
 204.2890625 168.940673828 204.2890625 168.940673828 196.963256836 161.614868164 c 128,-1,68
 189.637451172 154.2890625 189.637451172 154.2890625 179.2890625 154.2890625 c 128,-1,69
 168.940673828 154.2890625 168.940673828 154.2890625 161.614868164 161.614868164 c 128,-1,70
 154.2890625 168.940673828 154.2890625 168.940673828 154.2890625 179.2890625 c 128,-1,71
 154.2890625 189.637451172 154.2890625 189.637451172 161.614868164 196.963256836 c 128,-1,64
 168.940673828 204.2890625 168.940673828 204.2890625 179.2890625 204.2890625 c 128,-1,65
320.7109375 204.2890625 m 128,-1,73
 331.059326172 204.2890625 331.059326172 204.2890625 338.385131836 196.963256836 c 128,-1,74
 345.7109375 189.637451172 345.7109375 189.637451172 345.7109375 179.2890625 c 128,-1,75
 345.7109375 168.940673828 345.7109375 168.940673828 338.385131836 161.614868164 c 128,-1,76
 331.059326172 154.2890625 331.059326172 154.2890625 320.7109375 154.2890625 c 128,-1,77
 310.362548828 154.2890625 310.362548828 154.2890625 303.036743164 161.614868164 c 128,-1,78
 295.7109375 168.940673828 295.7109375 168.940673828 295.7109375 179.2890625 c 128,-1,79
 295.7109375 189.637451172 295.7109375 189.637451172 303.036743164 196.963256836 c 128,-1,72
 310.362548828 204.2890625 310.362548828 204.2890625 320.7109375 204.2890625 c 128,-1,73
250 175 m 128,-1,81
 260 175 260 175 267.5 167.5 c 128,-1,82
 275 160 275 160 275 150 c 128,-1,83
 275 140 275 140 267.5 132.5 c 128,-1,84
 260 125 260 125 250 125 c 128,-1,85
 240 125 240 125 232.5 132.5 c 128,-1,86
 225 140 225 140 225 150 c 128,-1,87
 225 160 225 160 232.5 167.5 c 128,-1,80
 240 175 240 175 250 175 c 128,-1,81
EndSplineSet
EndChar

StartChar: five
Encoding: 53 53 21
Width: 500
Flags: W
LayerCount: 2
Fore
SplineSet
250 500 m 128,-1,1
 271 500 271 500 285.5 485.5 c 128,-1,2
 300 471 300 471 300 450 c 128,-1,3
 300 429 300 429 285.5 414.5 c 128,-1,4
 271 400 271 400 250 400 c 128,-1,5
 229 400 229 400 214.5 414.5 c 128,-1,6
 200 429 200 429 200 450 c 128,-1,7
 200 471 200 471 214.5 485.5 c 128,-1,0
 229 500 229 500 250 500 c 128,-1,1
108.578125 441.421875 m 128,-1,9
 129.274902344 441.421875 129.274902344 441.421875 143.926513672 426.770263672 c 128,-1,10
 158.578125 412.118652344 158.578125 412.118652344 158.578125 391.421875 c 128,-1,11
 158.578125 370.725097656 158.578125 370.725097656 143.926513672 356.073486328 c 128,-1,12
 129.274902344 341.421875 129.274902344 341.421875 108.578125 341.421875 c 128,-1,13
 87.8813476562 341.421875 87.8813476562 341.421875 73.2297363281 356.073486328 c 128,-1,14
 58.578125 370.725097656 58.578125 370.725097656 58.578125 391.421875 c 128,-1,15
 58.578125 412.118652344 58.578125 412.118652344 73.2297363281 426.770263672 c 128,-1,8
 87.8813476562 441.421875 87.8813476562 441.421875 108.578125 441.421875 c 128,-1,9
391.421875 441.421875 m 128,-1,17
 412.118652344 441.421875 412.118652344 441.421875 426.770263672 426.770263672 c 128,-1,18
 441.421875 412.118652344 441.421875 412.118652344 441.421875 391.421875 c 128,-1,19
 441.421875 370.725097656 441.421875 370.725097656 426.770263672 356.073486328 c 128,-1,20
 412.118652344 341.421875 412.118652344 341.421875 391.421875 341.421875 c 128,-1,21
 370.725097656 341.421875 370.725097656 341.421875 356.073486328 356.073486328 c 128,-1,22
 341.421875 370.725097656 341.421875 370.725097656 341.421875 391.421875 c 128,-1,23
 341.421875 412.118652344 341.421875 412.118652344 356.073486328 426.770263672 c 128,-1,16
 370.725097656 441.421875 370.725097656 441.421875 391.421875 441.421875 c 128,-1,17
50 300 m 128,-1,25
 71 300 71 300 85.5 285.5 c 128,-1,26
 100 271 100 271 100 250 c 128,-1,27
 100 229 100 229 85.5 214.5 c 128,-1,28
 71 200 71 200 50 200 c 128,-1,29
 29 200 29 200 14.5 214.5 c 128,-1,30
 0 229 0 229 0 250 c 128,-1,31
 0 271 0 271 14.5 285.5 c 128,-1,24
 29 300 29 300 50 300 c 128,-1,25
450 300 m 128,-1,33
 471 300 471 300 485.5 285.5 c 128,-1,34
 500 271 500 271 500 250 c 128,-1,35
 500 229 500 229 485.5 214.5 c 128,-1,36
 471 200 471 200 450 200 c 128,-1,37
 429 200 429 200 414.5 214.5 c 128,-1,38
 400 229 400 229 400 250 c 128,-1,39
 400 271 400 271 414.5 285.5 c 128,-1,32
 429 300 429 300 450 300 c 128,-1,33
108.578125 158.578125 m 128,-1,41
 129.274902344 158.578125 129.274902344 158.578125 143.926513672 143.926513672 c 128,-1,42
 158.578125 129.274902344 158.578125 129.274902344 158.578125 108.578125 c 128,-1,43
 158.578125 87.8813476562 158.578125 87.8813476562 143.926513672 73.2297363281 c 128,-1,44
 129.274902344 58.578125 129.274902344 58.578125 108.578125 58.578125 c 128,-1,45
 87.8813476562 58.578125 87.8813476562 58.578125 73.2297363281 73.2297363281 c 128,-1,46
 58.578125 87.8813476562 58.578125 87.8813476562 58.578125 108.578125 c 128,-1,47
 58.578125 129.274902344 58.578125 129.274902344 73.2297363281 143.926513672 c 128,-1,40
 87.8813476562 158.578125 87.8813476562 158.578125 108.578125 158.578125 c 128,-1,41
391.421875 158.578125 m 128,-1,49
 412.118652344 158.578125 412.118652344 158.578125 426.770263672 143.926513672 c 128,-1,50
 441.421875 129.274902344 441.421875 129.274902344 441.421875 108.578125 c 128,-1,51
 441.421875 87.8813476562 441.421875 87.8813476562 426.770263672 73.2297363281 c 128,-1,52
 412.118652344 58.578125 412.118652344 58.578125 391.421875 58.578125 c 128,-1,53
 370.725097656 58.578125 370.725097656 58.578125 356.073486328 73.2297363281 c 128,-1,54
 341.421875 87.8813476562 341.421875 87.8813476562 341.421875 108.578125 c 128,-1,55
 341.421875 129.274902344 341.421875 129.274902344 356.073486328 143.926513672 c 128,-1,48
 370.725097656 158.578125 370.725097656 158.578125 391.421875 158.578125 c 128,-1,49
250 100 m 128,-1,57
 271 100 271 100 285.5 85.5 c 128,-1,58
 300 71 300 71 300 50 c 128,-1,59
 300 29 300 29 285.5 14.5 c 128,-1,60
 271 0 271 0 250 0 c 128,-1,61
 229 0 229 0 214.5 14.5 c 128,-1,62
 200 29 200 29 200 50 c 128,-1,63
 200 71 200 71 214.5 85.5 c 128,-1,56
 229 100 229 100 250 100 c 128,-1,57
250 375 m 128,-1,65
 260 375 260 375 267.5 367.5 c 128,-1,66
 275 360 275 360 275 350 c 128,-1,67
 275 340 275 340 267.5 332.5 c 128,-1,68
 260 325 260 325 250 325 c 128,-1,69
 240 325 240 325 232.5 332.5 c 128,-1,70
 225 340 225 340 225 350 c 128,-1,71
 225 360 225 360 232.5 367.5 c 128,-1,64
 240 375 240 375 250 375 c 128,-1,65
179.2890625 345.7109375 m 128,-1,73
 189.637451172 345.7109375 189.637451172 345.7109375 196.963256836 338.385131836 c 128,-1,74
 204.2890625 331.059326172 204.2890625 331.059326172 204.2890625 320.7109375 c 128,-1,75
 204.2890625 310.362548828 204.2890625 310.362548828 196.963256836 303.036743164 c 128,-1,76
 189.637451172 295.7109375 189.637451172 295.7109375 179.2890625 295.7109375 c 128,-1,77
 168.940673828 295.7109375 168.940673828 295.7109375 161.614868164 303.036743164 c 128,-1,78
 154.2890625 310.362548828 154.2890625 310.362548828 154.2890625 320.7109375 c 128,-1,79
 154.2890625 331.059326172 154.2890625 331.059326172 161.614868164 338.385131836 c 128,-1,72
 168.940673828 345.7109375 168.940673828 345.7109375 179.2890625 345.7109375 c 128,-1,73
320.7109375 345.7109375 m 128,-1,81
 331.059326172 345.7109375 331.059326172 345.7109375 338.385131836 338.385131836 c 128,-1,82
 345.7109375 331.059326172 345.7109375 331.059326172 345.7109375 320.7109375 c 128,-1,83
 345.7109375 310.362548828 345.7109375 310.362548828 338.385131836 303.036743164 c 128,-1,84
 331.059326172 295.7109375 331.059326172 295.7109375 320.7109375 295.7109375 c 128,-1,85
 310.362548828 295.7109375 310.362548828 295.7109375 303.036743164 303.036743164 c 128,-1,86
 295.7109375 310.362548828 295.7109375 310.362548828 295.7109375 320.7109375 c 128,-1,87
 295.7109375 331.059326172 295.7109375 331.059326172 303.036743164 338.385131836 c 128,-1,80
 310.362548828 345.7109375 310.362548828 345.7109375 320.7109375 345.7109375 c 128,-1,81
150 275 m 128,-1,89
 160 275 160 275 167.5 267.5 c 128,-1,90
 175 260 175 260 175 250 c 128,-1,91
 175 240 175 240 167.5 232.5 c 128,-1,92
 160 225 160 225 150 225 c 128,-1,93
 140 225 140 225 132.5 232.5 c 128,-1,94
 125 240 125 240 125 250 c 128,-1,95
 125 260 125 260 132.5 267.5 c 128,-1,88
 140 275 140 275 150 275 c 128,-1,89
350 275 m 128,-1,97
 360 275 360 275 367.5 267.5 c 128,-1,98
 375 260 375 260 375 250 c 128,-1,99
 375 240 375 240 367.5 232.5 c 128,-1,100
 360 225 360 225 350 225 c 128,-1,101
 340 225 340 225 332.5 232.5 c 128,-1,102
 325 240 325 240 325 250 c 128,-1,103
 325 260 325 260 332.5 267.5 c 128,-1,96
 340 275 340 275 350 275 c 128,-1,97
179.2890625 204.2890625 m 128,-1,105
 189.637451172 204.2890625 189.637451172 204.2890625 196.963256836 196.963256836 c 128,-1,106
 204.2890625 189.637451172 204.2890625 189.637451172 204.2890625 179.2890625 c 128,-1,107
 204.2890625 168.940673828 204.2890625 168.940673828 196.963256836 161.614868164 c 128,-1,108
 189.637451172 154.2890625 189.637451172 154.2890625 179.2890625 154.2890625 c 128,-1,109
 168.940673828 154.2890625 168.940673828 154.2890625 161.614868164 161.614868164 c 128,-1,110
 154.2890625 168.940673828 154.2890625 168.940673828 154.2890625 179.2890625 c 128,-1,111
 154.2890625 189.637451172 154.2890625 189.637451172 161.614868164 196.963256836 c 128,-1,104
 168.940673828 204.2890625 168.940673828 204.2890625 179.2890625 204.2890625 c 128,-1,105
320.7109375 204.2890625 m 128,-1,113
 331.059326172 204.2890625 331.059326172 204.2890625 338.385131836 196.963256836 c 128,-1,114
 345.7109375 189.637451172 345.7109375 189.637451172 345.7109375 179.2890625 c 128,-1,115
 345.7109375 168.940673828 345.7109375 168.940673828 338.385131836 161.614868164 c 128,-1,116
 331.059326172 154.2890625 331.059326172 154.2890625 320.7109375 154.2890625 c 128,-1,117
 310.362548828 154.2890625 310.362548828 154.2890625 303.036743164 161.614868164 c 128,-1,118
 295.7109375 168.940673828 295.7109375 168.940673828 295.7109375 179.2890625 c 128,-1,119
 295.7109375 189.637451172 295.7109375 189.637451172 303.036743164 196.963256836 c 128,-1,112
 310.362548828 204.2890625 310.362548828 204.2890625 320.7109375 204.2890625 c 128,-1,113
250 175 m 128,-1,121
 260 175 260 175 267.5 167.5 c 128,-1,122
 275 160 275 160 275 150 c 128,-1,123
 275 140 275 140 267.5 132.5 c 128,-1,124
 260 125 260 125 250 125 c 128,-1,125
 240 125 240 125 232.5 132.5 c 128,-1,126
 225 140 225 140 225 150 c 128,-1,127
 225 160 225 160 232.5 167.5 c 128,-1,120
 240 175 240 175 250 175 c 128,-1,121
EndSplineSet
EndChar

StartChar: six
Encoding: 54 54 22
Width: 500
Flags: W
LayerCount: 2
Fore
SplineSet
391.421875 441.421875 m 128,-1,1
 412.118652344 441.421875 412.118652344 441.421875 426.770263672 426.770263672 c 128,-1,2
 441.421875 412.118652344 441.421875 412.118652344 441.421875 391.421875 c 128,-1,3
 441.421875 370.725097656 441.421875 370.725097656 426.770263672 356.073486328 c 128,-1,4
 412.118652344 341.421875 412.118652344 341.421875 391.421875 341.421875 c 128,-1,5
 370.725097656 341.421875 370.725097656 341.421875 356.073486328 356.073486328 c 128,-1,6
 341.421875 370.725097656 341.421875 370.725097656 341.421875 391.421875 c 128,-1,7
 341.421875 412.118652344 341.421875 412.118652344 356.073486328 426.770263672 c 128,-1,0
 370.725097656 441.421875 370.725097656 441.421875 391.421875 441.421875 c 128,-1,1
450 300 m 128,-1,9
 471 300 471 300 485.5 285.5 c 128,-1,10
 500 271 500 271 500 250 c 128,-1,11
 500 229 500 229 485.5 214.5 c 128,-1,12
 471 200 471 200 450 200 c 128,-1,13
 429 200 429 200 414.5 214.5 c 128,-1,14
 400 229 400 229 400 250 c 128,-1,15
 400 271 400 271 414.5 285.5 c 128,-1,8
 429 300 429 300 450 300 c 128,-1,9
391.421875 158.578125 m 128,-1,17
 412.118652344 158.578125 412.118652344 158.578125 426.770263672 143.926513672 c 128,-1,18
 441.421875 129.274902344 441.421875 129.274902344 441.421875 108.578125 c 128,-1,19
 441.421875 87.8813476562 441.421875 87.8813476562 426.770263672 73.2297363281 c 128,-1,20
 412.118652344 58.578125 412.118652344 58.578125 391.421875 58.578125 c 128,-1,21
 370.725097656 58.578125 370.725097656 58.578125 356.073486328 73.2297363281 c 128,-1,22
 341.421875 87.8813476562 341.421875 87.8813476562 341.421875 108.578125 c 128,-1,23
 341.421875 129.274902344 341.421875 129.274902344 356.073486328 143.926513672 c 128,-1,16
 370.725097656 158.578125 370.725097656 158.578125 391.421875 158.578125 c 128,-1,17
250 375 m 128,-1,25
 260 375 260 375 267.5 367.5 c 128,-1,26
 275 360 275 360 275 350 c 128,-1,27
 275 340 275 340 267.5 332.5 c 128,-1,28
 260 325 260 325 250 325 c 128,-1,29
 240 325 240 325 232.5 332.5 c 128,-1,30
 225 340 225 340 225 350 c 128,-1,31
 225 360 225 360 232.5 367.5 c 128,-1,24
 240 375 240 375 250 375 c 128,-1,25
179.2890625 345.7109375 m 128,-1,33
 189.637451172 345.7109375 189.637451172 345.7109375 196.963256836 338.385131836 c 128,-1,34
 204.2890625 331.059326172 204.2890625 331.059326172 204.2890625 320.7109375 c 128,-1,35
 204.2890625 310.362548828 204.2890625 310.362548828 196.963256836 303.036743164 c 128,-1,36
 189.637451172 295.7109375 189.637451172 295.7109375 179.2890625 295.7109375 c 128,-1,37
 168.940673828 295.7109375 168.940673828 295.7109375 161.614868164 303.036743164 c 128,-1,38
 154.2890625 310.362548828 154.2890625 310.362548828 154.2890625 320.7109375 c 128,-1,39
 154.2890625 331.059326172 154.2890625 331.059326172 161.614868164 338.385131836 c 128,-1,32
 168.940673828 345.7109375 168.940673828 345.7109375 179.2890625 345.7109375 c 128,-1,33
320.7109375 345.7109375 m 128,-1,41
 331.059326172 345.7109375 331.059326172 345.7109375 338.385131836 338.385131836 c 128,-1,42
 345.7109375 331.059326172 345.7109375 331.059326172 345.7109375 320.7109375 c 128,-1,43
 345.7109375 310.362548828 345.7109375 310.362548828 338.385131836 303.036743164 c 128,-1,44
 331.059326172 295.7109375 331.059326172 295.7109375 320.7109375 295.7109375 c 128,-1,45
 310.362548828 295.7109375 310.362548828 295.7109375 303.036743164 303.036743164 c 128,-1,46
 295.7109375 310.362548828 295.7109375 310.362548828 295.7109375 320.7109375 c 128,-1,47
 295.7109375 331.059326172 295.7109375 331.059326172 303.036743164 338.385131836 c 128,-1,40
 310.362548828 345.7109375 310.362548828 345.7109375 320.7109375 345.7109375 c 128,-1,41
150 275 m 128,-1,49
 160 275 160 275 167.5 267.5 c 128,-1,50
 175 260 175 260 175 250 c 128,-1,51
 175 240 175 240 167.5 232.5 c 128,-1,52
 160 225 160 225 150 225 c 128,-1,53
 140 225 140 225 132.5 232.5 c 128,-1,54
 125 240 125 240 125 250 c 128,-1,55
 125 260 125 260 132.5 267.5 c 128,-1,48
 140 275 140 275 150 275 c 128,-1,49
350 275 m 128,-1,57
 360 275 360 275 367.5 267.5 c 128,-1,58
 375 260 375 260 375 250 c 128,-1,59
 375 240 375 240 367.5 232.5 c 128,-1,60
 360 225 360 225 350 225 c 128,-1,61
 340 225 340 225 332.5 232.5 c 128,-1,62
 325 240 325 240 325 250 c 128,-1,63
 325 260 325 260 332.5 267.5 c 128,-1,56
 340 275 340 275 350 275 c 128,-1,57
179.2890625 204.2890625 m 128,-1,65
 189.637451172 204.2890625 189.637451172 204.2890625 196.963256836 196.963256836 c 128,-1,66
 204.2890625 189.637451172 204.2890625 189.637451172 204.2890625 179.2890625 c 128,-1,67
 204.2890625 168.940673828 204.2890625 168.940673828 196.963256836 161.614868164 c 128,-1,68
 189.637451172 154.2890625 189.637451172 154.2890625 179.2890625 154.2890625 c 128,-1,69
 168.940673828 154.2890625 168.940673828 154.2890625 161.614868164 161.614868164 c 128,-1,70
 154.2890625 168.940673828 154.2890625 168.940673828 154.2890625 179.2890625 c 128,-1,71
 154.2890625 189.637451172 154.2890625 189.637451172 161.614868164 196.963256836 c 128,-1,64
 168.940673828 204.2890625 168.940673828 204.2890625 179.2890625 204.2890625 c 128,-1,65
320.7109375 204.2890625 m 128,-1,73
 331.059326172 204.2890625 331.059326172 204.2890625 338.385131836 196.963256836 c 128,-1,74
 345.7109375 189.637451172 345.7109375 189.637451172 345.7109375 179.2890625 c 128,-1,75
 345.7109375 168.940673828 345.7109375 168.940673828 338.385131836 161.614868164 c 128,-1,76
 331.059326172 154.2890625 331.059326172 154.2890625 320.7109375 154.2890625 c 128,-1,77
 310.362548828 154.2890625 310.362548828 154.2890625 303.036743164 161.614868164 c 128,-1,78
 295.7109375 168.940673828 295.7109375 168.940673828 295.7109375 179.2890625 c 128,-1,79
 295.7109375 189.637451172 295.7109375 189.637451172 303.036743164 196.963256836 c 128,-1,72
 310.362548828 204.2890625 310.362548828 204.2890625 320.7109375 204.2890625 c 128,-1,73
250 175 m 128,-1,81
 260 175 260 175 267.5 167.5 c 128,-1,82
 275 160 275 160 275 150 c 128,-1,83
 275 140 275 140 267.5 132.5 c 128,-1,84
 260 125 260 125 250 125 c 128,-1,85
 240 125 240 125 232.5 132.5 c 128,-1,86
 225 140 225 140 225 150 c 128,-1,87
 225 160 225 160 232.5 167.5 c 128,-1,80
 240 175 240 175 250 175 c 128,-1,81
EndSplineSet
EndChar

StartChar: seven
Encoding: 55 55 23
Width: 500
Flags: W
LayerCount: 2
Fore
SplineSet
50 300 m 128,-1,1
 71 300 71 300 85.5 285.5 c 128,-1,2
 100 271 100 271 100 250 c 128,-1,3
 100 229 100 229 85.5 214.5 c 128,-1,4
 71 200 71 200 50 200 c 128,-1,5
 29 200 29 200 14.5 214.5 c 128,-1,6
 0 229 0 229 0 250 c 128,-1,7
 0 271 0 271 14.5 285.5 c 128,-1,0
 29 300 29 300 50 300 c 128,-1,1
108.578125 158.578125 m 128,-1,9
 129.274902344 158.578125 129.274902344 158.578125 143.926513672 143.926513672 c 128,-1,10
 158.578125 129.274902344 158.578125 129.274902344 158.578125 108.578125 c 128,-1,11
 158.578125 87.8813476562 158.578125 87.8813476562 143.926513672 73.2297363281 c 128,-1,12
 129.274902344 58.578125 129.274902344 58.578125 108.578125 58.578125 c 128,-1,13
 87.8813476562 58.578125 87.8813476562 58.578125 73.2297363281 73.2297363281 c 128,-1,14
 58.578125 87.8813476562 58.578125 87.8813476562 58.578125 108.578125 c 128,-1,15
 58.578125 129.274902344 58.578125 129.274902344 73.2297363281 143.926513672 c 128,-1,8
 87.8813476562 158.578125 87.8813476562 158.578125 108.578125 158.578125 c 128,-1,9
250 100 m 128,-1,17
 271 100 271 100 285.5 85.5 c 128,-1,18
 300 71 300 71 300 50 c 128,-1,19
 300 29 300 29 285.5 14.5 c 128,-1,20
 271 0 271 0 250 0 c 128,-1,21
 229 0 229 0 214.5 14.5 c 128,-1,22
 200 29 200 29 200 50 c 128,-1,23
 200 71 200 71 214.5 85.5 c 128,-1,16
 229 100 229 100 250 100 c 128,-1,17
250 375 m 128,-1,25
 260 375 260 375 267.5 367.5 c 128,-1,26
 275 360 275 360 275 350 c 128,-1,27
 275 340 275 340 267.5 332.5 c 128,-1,28
 260 325 260 325 250 325 c 128,-1,29
 240 325 240 325 232.5 332.5 c 128,-1,30
 225 340 225 340 225 350 c 128,-1,31
 225 360 225 360 232.5 367.5 c 128,-1,24
 240 375 240 375 250 375 c 128,-1,25
179.2890625 345.7109375 m 128,-1,33
 189.637451172 345.7109375 189.637451172 345.7109375 196.963256836 338.385131836 c 128,-1,34
 204.2890625 331.059326172 204.2890625 331.059326172 204.2890625 320.7109375 c 128,-1,35
 204.2890625 310.362548828 204.2890625 310.362548828 196.963256836 303.036743164 c 128,-1,36
 189.637451172 295.7109375 189.637451172 295.7109375 179.2890625 295.7109375 c 128,-1,37
 168.940673828 295.7109375 168.940673828 295.7109375 161.614868164 303.036743164 c 128,-1,38
 154.2890625 310.362548828 154.2890625 310.362548828 154.2890625 320.7109375 c 128,-1,39
 154.2890625 331.059326172 154.2890625 331.059326172 161.614868164 338.385131836 c 128,-1,32
 168.940673828 345.7109375 168.940673828 345.7109375 179.2890625 345.7109375 c 128,-1,33
320.7109375 345.7109375 m 128,-1,41
 331.059326172 345.7109375 331.059326172 345.7109375 338.385131836 338.385131836 c 128,-1,42
 345.7109375 331.059326172 345.7109375 331.059326172 345.7109375 320.7109375 c 128,-1,43
 345.7109375 310.362548828 345.7109375 310.362548828 338.385131836 303.036743164 c 128,-1,44
 331.059326172 295.7109375 331.059326172 295.7109375 320.7109375 295.7109375 c 128,-1,45
 310.362548828 295.7109375 310.362548828 295.7109375 303.036743164 303.036743164 c 128,-1,46
 295.7109375 310.362548828 295.7109375 310.362548828 295.7109375 320.7109375 c 128,-1,47
 295.7109375 331.059326172 295.7109375 331.059326172 303.036743164 338.385131836 c 128,-1,40
 310.362548828 345.7109375 310.362548828 345.7109375 320.7109375 345.7109375 c 128,-1,41
150 275 m 128,-1,49
 160 275 160 275 167.5 267.5 c 128,-1,50
 175 260 175 260 175 250 c 128,-1,51
 175 240 175 240 167.5 232.5 c 128,-1,52
 160 225 160 225 150 225 c 128,-1,53
 140 225 140 225 132.5 232.5 c 128,-1,54
 125 240 125 240 125 250 c 128,-1,55
 125 260 125 260 132.5 267.5 c 128,-1,48
 140 275 140 275 150 275 c 128,-1,49
350 275 m 128,-1,57
 360 275 360 275 367.5 267.5 c 128,-1,58
 375 260 375 260 375 250 c 128,-1,59
 375 240 375 240 367.5 232.5 c 128,-1,60
 360 225 360 225 350 225 c 128,-1,61
 340 225 340 225 332.5 232.5 c 128,-1,62
 325 240 325 240 325 250 c 128,-1,63
 325 260 325 260 332.5 267.5 c 128,-1,56
 340 275 340 275 350 275 c 128,-1,57
179.2890625 204.2890625 m 128,-1,65
 189.637451172 204.2890625 189.637451172 204.2890625 196.963256836 196.963256836 c 128,-1,66
 204.2890625 189.637451172 204.2890625 189.637451172 204.2890625 179.2890625 c 128,-1,67
 204.2890625 168.940673828 204.2890625 168.940673828 196.963256836 161.614868164 c 128,-1,68
 189.637451172 154.2890625 189.637451172 154.2890625 179.2890625 154.2890625 c 128,-1,69
 168.940673828 154.2890625 168.940673828 154.2890625 161.614868164 161.614868164 c 128,-1,70
 154.2890625 168.940673828 154.2890625 168.940673828 154.2890625 179.2890625 c 128,-1,71
 154.2890625 189.637451172 154.2890625 189.637451172 161.614868164 196.963256836 c 128,-1,64
 168.940673828 204.2890625 168.940673828 204.2890625 179.2890625 204.2890625 c 128,-1,65
320.7109375 204.2890625 m 128,-1,73
 331.059326172 204.2890625 331.059326172 204.2890625 338.385131836 196.963256836 c 128,-1,74
 345.7109375 189.637451172 345.7109375 189.637451172 345.7109375 179.2890625 c 128,-1,75
 345.7109375 168.940673828 345.7109375 168.940673828 338.385131836 161.614868164 c 128,-1,76
 331.059326172 154.2890625 331.059326172 154.2890625 320.7109375 154.2890625 c 128,-1,77
 310.362548828 154.2890625 310.362548828 154.2890625 303.036743164 161.614868164 c 128,-1,78
 295.7109375 168.940673828 295.7109375 168.940673828 295.7109375 179.2890625 c 128,-1,79
 295.7109375 189.637451172 295.7109375 189.637451172 303.036743164 196.963256836 c 128,-1,72
 310.362548828 204.2890625 310.362548828 204.2890625 320.7109375 204.2890625 c 128,-1,73
250 175 m 128,-1,81
 260 175 260 175 267.5 167.5 c 128,-1,82
 275 160 275 160 275 150 c 128,-1,83
 275 140 275 140 267.5 132.5 c 128,-1,84
 260 125 260 125 250 125 c 128,-1,85
 240 125 240 125 232.5 132.5 c 128,-1,86
 225 140 225 140 225 150 c 128,-1,87
 225 160 225 160 232.5 167.5 c 128,-1,80
 240 175 240 175 250 175 c 128,-1,81
EndSplineSet
EndChar

StartChar: eight
Encoding: 56 56 24
Width: 500
Flags: W
LayerCount: 2
Fore
SplineSet
108.578125 158.578125 m 128,-1,1
 129.274902344 158.578125 129.274902344 158.578125 143.926513672 143.926513672 c 128,-1,2
 158.578125 129.274902344 158.578125 129.274902344 158.578125 108.578125 c 128,-1,3
 158.578125 87.8813476562 158.578125 87.8813476562 143.926513672 73.2297363281 c 128,-1,4
 129.274902344 58.578125 129.274902344 58.578125 108.578125 58.578125 c 128,-1,5
 87.8813476562 58.578125 87.8813476562 58.578125 73.2297363281 73.2297363281 c 128,-1,6
 58.578125 87.8813476562 58.578125 87.8813476562 58.578125 108.578125 c 128,-1,7
 58.578125 129.274902344 58.578125 129.274902344 73.2297363281 143.926513672 c 128,-1,0
 87.8813476562 158.578125 87.8813476562 158.578125 108.578125 158.578125 c 128,-1,1
391.421875 158.578125 m 128,-1,9
 412.118652344 158.578125 412.118652344 158.578125 426.770263672 143.926513672 c 128,-1,10
 441.421875 129.274902344 441.421875 129.274902344 441.421875 108.578125 c 128,-1,11
 441.421875 87.8813476562 441.421875 87.8813476562 426.770263672 73.2297363281 c 128,-1,12
 412.118652344 58.578125 412.118652344 58.578125 391.421875 58.578125 c 128,-1,13
 370.725097656 58.578125 370.725097656 58.578125 356.073486328 73.2297363281 c 128,-1,14
 341.421875 87.8813476562 341.421875 87.8813476562 341.421875 108.578125 c 128,-1,15
 341.421875 129.274902344 341.421875 129.274902344 356.073486328 143.926513672 c 128,-1,8
 370.725097656 158.578125 370.725097656 158.578125 391.421875 158.578125 c 128,-1,9
250 100 m 128,-1,17
 271 100 271 100 285.5 85.5 c 128,-1,18
 300 71 300 71 300 50 c 128,-1,19
 300 29 300 29 285.5 14.5 c 128,-1,20
 271 0 271 0 250 0 c 128,-1,21
 229 0 229 0 214.5 14.5 c 128,-1,22
 200 29 200 29 200 50 c 128,-1,23
 200 71 200 71 214.5 85.5 c 128,-1,16
 229 100 229 100 250 100 c 128,-1,17
250 375 m 128,-1,25
 260 375 260 375 267.5 367.5 c 128,-1,26
 275 360 275 360 275 350 c 128,-1,27
 275 340 275 340 267.5 332.5 c 128,-1,28
 260 325 260 325 250 325 c 128,-1,29
 240 325 240 325 232.5 332.5 c 128,-1,30
 225 340 225 340 225 350 c 128,-1,31
 225 360 225 360 232.5 367.5 c 128,-1,24
 240 375 240 375 250 375 c 128,-1,25
179.2890625 345.7109375 m 128,-1,33
 189.637451172 345.7109375 189.637451172 345.7109375 196.963256836 338.385131836 c 128,-1,34
 204.2890625 331.059326172 204.2890625 331.059326172 204.2890625 320.7109375 c 128,-1,35
 204.2890625 310.362548828 204.2890625 310.362548828 196.963256836 303.036743164 c 128,-1,36
 189.637451172 295.7109375 189.637451172 295.7109375 179.2890625 295.7109375 c 128,-1,37
 168.940673828 295.7109375 168.940673828 295.7109375 161.614868164 303.036743164 c 128,-1,38
 154.2890625 310.362548828 154.2890625 310.362548828 154.2890625 320.7109375 c 128,-1,39
 154.2890625 331.059326172 154.2890625 331.059326172 161.614868164 338.385131836 c 128,-1,32
 168.940673828 345.7109375 168.940673828 345.7109375 179.2890625 345.7109375 c 128,-1,33
320.7109375 345.7109375 m 128,-1,41
 331.059326172 345.7109375 331.059326172 345.7109375 338.385131836 338.385131836 c 128,-1,42
 345.7109375 331.059326172 345.7109375 331.059326172 345.7109375 320.7109375 c 128,-1,43
 345.7109375 310.362548828 345.7109375 310.362548828 338.385131836 303.036743164 c 128,-1,44
 331.059326172 295.7109375 331.059326172 295.7109375 320.7109375 295.7109375 c 128,-1,45
 310.362548828 295.7109375 310.362548828 295.7109375 303.036743164 303.036743164 c 128,-1,46
 295.7109375 310.362548828 295.7109375 310.362548828 295.7109375 320.7109375 c 128,-1,47
 295.7109375 331.059326172 295.7109375 331.059326172 303.036743164 338.385131836 c 128,-1,40
 310.362548828 345.7109375 310.362548828 345.7109375 320.7109375 345.7109375 c 128,-1,41
150 275 m 128,-1,49
 160 275 160 275 167.5 267.5 c 128,-1,50
 175 260 175 260 175 250 c 128,-1,51
 175 240 175 240 167.5 232.5 c 128,-1,52
 160 225 160 225 150 225 c 128,-1,53
 140 225 140 225 132.5 232.5 c 128,-1,54
 125 240 125 240 125 250 c 128,-1,55
 125 260 125 260 132.5 267.5 c 128,-1,48
 140 275 140 275 150 275 c 128,-1,49
350 275 m 128,-1,57
 360 275 360 275 367.5 267.5 c 128,-1,58
 375 260 375 260 375 250 c 128,-1,59
 375 240 375 240 367.5 232.5 c 128,-1,60
 360 225 360 225 350 225 c 128,-1,61
 340 225 340 225 332.5 232.5 c 128,-1,62
 325 240 325 240 325 250 c 128,-1,63
 325 260 325 260 332.5 267.5 c 128,-1,56
 340 275 340 275 350 275 c 128,-1,57
179.2890625 204.2890625 m 128,-1,65
 189.637451172 204.2890625 189.637451172 204.2890625 196.963256836 196.963256836 c 128,-1,66
 204.2890625 189.637451172 204.2890625 189.637451172 204.2890625 179.2890625 c 128,-1,67
 204.2890625 168.940673828 204.2890625 168.940673828 196.963256836 161.614868164 c 128,-1,68
 189.637451172 154.2890625 189.637451172 154.2890625 179.2890625 154.2890625 c 128,-1,69
 168.940673828 154.2890625 168.940673828 154.2890625 161.614868164 161.614868164 c 128,-1,70
 154.2890625 168.940673828 154.2890625 168.940673828 154.2890625 179.2890625 c 128,-1,71
 154.2890625 189.637451172 154.2890625 189.637451172 161.614868164 196.963256836 c 128,-1,64
 168.940673828 204.2890625 168.940673828 204.2890625 179.2890625 204.2890625 c 128,-1,65
320.7109375 204.2890625 m 128,-1,73
 331.059326172 204.2890625 331.059326172 204.2890625 338.385131836 196.963256836 c 128,-1,74
 345.7109375 189.637451172 345.7109375 189.637451172 345.7109375 179.2890625 c 128,-1,75
 345.7109375 168.940673828 345.7109375 168.940673828 338.385131836 161.614868164 c 128,-1,76
 331.059326172 154.2890625 331.059326172 154.2890625 320.7109375 154.2890625 c 128,-1,77
 310.362548828 154.2890625 310.362548828 154.2890625 303.036743164 161.614868164 c 128,-1,78
 295.7109375 168.940673828 295.7109375 168.940673828 295.7109375 179.2890625 c 128,-1,79
 295.7109375 189.637451172 295.7109375 189.637451172 303.036743164 196.963256836 c 128,-1,72
 310.362548828 204.2890625 310.362548828 204.2890625 320.7109375 204.2890625 c 128,-1,73
250 175 m 128,-1,81
 260 175 260 175 267.5 167.5 c 128,-1,82
 275 160 275 160 275 150 c 128,-1,83
 275 140 275 140 267.5 132.5 c 128,-1,84
 260 125 260 125 250 125 c 128,-1,85
 240 125 240 125 232.5 132.5 c 128,-1,86
 225 140 225 140 225 150 c 128,-1,87
 225 160 225 160 232.5 167.5 c 128,-1,80
 240 175 240 175 250 175 c 128,-1,81
EndSplineSet
EndChar

StartChar: nine
Encoding: 57 57 25
Width: 500
Flags: W
LayerCount: 2
Fore
SplineSet
450 300 m 128,-1,1
 471 300 471 300 485.5 285.5 c 128,-1,2
 500 271 500 271 500 250 c 128,-1,3
 500 229 500 229 485.5 214.5 c 128,-1,4
 471 200 471 200 450 200 c 128,-1,5
 429 200 429 200 414.5 214.5 c 128,-1,6
 400 229 400 229 400 250 c 128,-1,7
 400 271 400 271 414.5 285.5 c 128,-1,0
 429 300 429 300 450 300 c 128,-1,1
391.421875 158.578125 m 128,-1,9
 412.118652344 158.578125 412.118652344 158.578125 426.770263672 143.926513672 c 128,-1,10
 441.421875 129.274902344 441.421875 129.274902344 441.421875 108.578125 c 128,-1,11
 441.421875 87.8813476562 441.421875 87.8813476562 426.770263672 73.2297363281 c 128,-1,12
 412.118652344 58.578125 412.118652344 58.578125 391.421875 58.578125 c 128,-1,13
 370.725097656 58.578125 370.725097656 58.578125 356.073486328 73.2297363281 c 128,-1,14
 341.421875 87.8813476562 341.421875 87.8813476562 341.421875 108.578125 c 128,-1,15
 341.421875 129.274902344 341.421875 129.274902344 356.073486328 143.926513672 c 128,-1,8
 370.725097656 158.578125 370.725097656 158.578125 391.421875 158.578125 c 128,-1,9
250 100 m 128,-1,17
 271 100 271 100 285.5 85.5 c 128,-1,18
 300 71 300 71 300 50 c 128,-1,19
 300 29 300 29 285.5 14.5 c 128,-1,20
 271 0 271 0 250 0 c 128,-1,21
 229 0 229 0 214.5 14.5 c 128,-1,22
 200 29 200 29 200 50 c 128,-1,23
 200 71 200 71 214.5 85.5 c 128,-1,16
 229 100 229 100 250 100 c 128,-1,17
250 375 m 128,-1,25
 260 375 260 375 267.5 367.5 c 128,-1,26
 275 360 275 360 275 350 c 128,-1,27
 275 340 275 340 267.5 332.5 c 128,-1,28
 260 325 260 325 250 325 c 128,-1,29
 240 325 240 325 232.5 332.5 c 128,-1,30
 225 340 225 340 225 350 c 128,-1,31
 225 360 225 360 232.5 367.5 c 128,-1,24
 240 375 240 375 250 375 c 128,-1,25
179.2890625 345.7109375 m 128,-1,33
 189.637451172 345.7109375 189.637451172 345.7109375 196.963256836 338.385131836 c 128,-1,34
 204.2890625 331.059326172 204.2890625 331.059326172 204.2890625 320.7109375 c 128,-1,35
 204.2890625 310.362548828 204.2890625 310.362548828 196.963256836 303.036743164 c 128,-1,36
 189.637451172 295.7109375 189.637451172 295.7109375 179.2890625 295.7109375 c 128,-1,37
 168.940673828 295.7109375 168.940673828 295.7109375 161.614868164 303.036743164 c 128,-1,38
 154.2890625 310.362548828 154.2890625 310.362548828 154.2890625 320.7109375 c 128,-1,39
 154.2890625 331.059326172 154.2890625 331.059326172 161.614868164 338.385131836 c 128,-1,32
 168.940673828 345.7109375 168.940673828 345.7109375 179.2890625 345.7109375 c 128,-1,33
320.7109375 345.7109375 m 128,-1,41
 331.059326172 345.7109375 331.059326172 345.7109375 338.385131836 338.385131836 c 128,-1,42
 345.7109375 331.059326172 345.7109375 331.059326172 345.7109375 320.7109375 c 128,-1,43
 345.7109375 310.362548828 345.7109375 310.362548828 338.385131836 303.036743164 c 128,-1,44
 331.059326172 295.7109375 331.059326172 295.7109375 320.7109375 295.7109375 c 128,-1,45
 310.362548828 295.7109375 310.362548828 295.7109375 303.036743164 303.036743164 c 128,-1,46
 295.7109375 310.362548828 295.7109375 310.362548828 295.7109375 320.7109375 c 128,-1,47
 295.7109375 331.059326172 295.7109375 331.059326172 303.036743164 338.385131836 c 128,-1,40
 310.362548828 345.7109375 310.362548828 345.7109375 320.7109375 345.7109375 c 128,-1,41
150 275 m 128,-1,49
 160 275 160 275 167.5 267.5 c 128,-1,50
 175 260 175 260 175 250 c 128,-1,51
 175 240 175 240 167.5 232.5 c 128,-1,52
 160 225 160 225 150 225 c 128,-1,53
 140 225 140 225 132.5 232.5 c 128,-1,54
 125 240 125 240 125 250 c 128,-1,55
 125 260 125 260 132.5 267.5 c 128,-1,48
 140 275 140 275 150 275 c 128,-1,49
350 275 m 128,-1,57
 360 275 360 275 367.5 267.5 c 128,-1,58
 375 260 375 260 375 250 c 128,-1,59
 375 240 375 240 367.5 232.5 c 128,-1,60
 360 225 360 225 350 225 c 128,-1,61
 340 225 340 225 332.5 232.5 c 128,-1,62
 325 240 325 240 325 250 c 128,-1,63
 325 260 325 260 332.5 267.5 c 128,-1,56
 340 275 340 275 350 275 c 128,-1,57
179.2890625 204.2890625 m 128,-1,65
 189.637451172 204.2890625 189.637451172 204.2890625 196.963256836 196.963256836 c 128,-1,66
 204.2890625 189.637451172 204.2890625 189.637451172 204.2890625 179.2890625 c 128,-1,67
 204.2890625 168.940673828 204.2890625 168.940673828 196.963256836 161.614868164 c 128,-1,68
 189.637451172 154.2890625 189.637451172 154.2890625 179.2890625 154.2890625 c 128,-1,69
 168.940673828 154.2890625 168.940673828 154.2890625 161.614868164 161.614868164 c 128,-1,70
 154.2890625 168.940673828 154.2890625 168.940673828 154.2890625 179.2890625 c 128,-1,71
 154.2890625 189.637451172 154.2890625 189.637451172 161.614868164 196.963256836 c 128,-1,64
 168.940673828 204.2890625 168.940673828 204.2890625 179.2890625 204.2890625 c 128,-1,65
320.7109375 204.2890625 m 128,-1,73
 331.059326172 204.2890625 331.059326172 204.2890625 338.385131836 196.963256836 c 128,-1,74
 345.7109375 189.637451172 345.7109375 189.637451172 345.7109375 179.2890625 c 128,-1,75
 345.7109375 168.940673828 345.7109375 168.940673828 338.385131836 161.614868164 c 128,-1,76
 331.059326172 154.2890625 331.059326172 154.2890625 320.7109375 154.2890625 c 128,-1,77
 310.362548828 154.2890625 310.362548828 154.2890625 303.036743164 161.614868164 c 128,-1,78
 295.7109375 168.940673828 295.7109375 168.940673828 295.7109375 179.2890625 c 128,-1,79
 295.7109375 189.637451172 295.7109375 189.637451172 303.036743164 196.963256836 c 128,-1,72
 310.362548828 204.2890625 310.362548828 204.2890625 320.7109375 204.2890625 c 128,-1,73
250 175 m 128,-1,81
 260 175 260 175 267.5 167.5 c 128,-1,82
 275 160 275 160 275 150 c 128,-1,83
 275 140 275 140 267.5 132.5 c 128,-1,84
 260 125 260 125 250 125 c 128,-1,85
 240 125 240 125 232.5 132.5 c 128,-1,86
 225 140 225 140 225 150 c 128,-1,87
 225 160 225 160 232.5 167.5 c 128,-1,80
 240 175 240 175 250 175 c 128,-1,81
EndSplineSet
EndChar

StartChar: colon
Encoding: 58 58 26
Width: 500
Flags: W
LayerCount: 2
Fore
SplineSet
250 475 m 128,-1,1
 260 475 260 475 267.5 467.5 c 128,-1,2
 275 460 275 460 275 450 c 128,-1,3
 275 440 275 440 267.5 432.5 c 128,-1,4
 260 425 260 425 250 425 c 128,-1,5
 240 425 240 425 232.5 432.5 c 128,-1,6
 225 440 225 440 225 450 c 128,-1,7
 225 460 225 460 232.5 467.5 c 128,-1,0
 240 475 240 475 250 475 c 128,-1,1
250 375 m 128,-1,9
 260 375 260 375 267.5 367.5 c 128,-1,10
 275 360 275 360 275 350 c 128,-1,11
 275 340 275 340 267.5 332.5 c 128,-1,12
 260 325 260 325 250 325 c 128,-1,13
 240 325 240 325 232.5 332.5 c 128,-1,14
 225 340 225 340 225 350 c 128,-1,15
 225 360 225 360 232.5 367.5 c 128,-1,8
 240 375 240 375 250 375 c 128,-1,9
179.2890625 345.7109375 m 128,-1,17
 189.637451172 345.7109375 189.637451172 345.7109375 196.963256836 338.385131836 c 128,-1,18
 204.2890625 331.059326172 204.2890625 331.059326172 204.2890625 320.7109375 c 128,-1,19
 204.2890625 310.362548828 204.2890625 310.362548828 196.963256836 303.036743164 c 128,-1,20
 189.637451172 295.7109375 189.637451172 295.7109375 179.2890625 295.7109375 c 128,-1,21
 168.940673828 295.7109375 168.940673828 295.7109375 161.614868164 303.036743164 c 128,-1,22
 154.2890625 310.362548828 154.2890625 310.362548828 154.2890625 320.7109375 c 128,-1,23
 154.2890625 331.059326172 154.2890625 331.059326172 161.614868164 338.385131836 c 128,-1,16
 168.940673828 345.7109375 168.940673828 345.7109375 179.2890625 345.7109375 c 128,-1,17
320.7109375 345.7109375 m 128,-1,25
 331.059326172 345.7109375 331.059326172 345.7109375 338.385131836 338.385131836 c 128,-1,26
 345.7109375 331.059326172 345.7109375 331.059326172 345.7109375 320.7109375 c 128,-1,27
 345.7109375 310.362548828 345.7109375 310.362548828 338.385131836 303.036743164 c 128,-1,28
 331.059326172 295.7109375 331.059326172 295.7109375 320.7109375 295.7109375 c 128,-1,29
 310.362548828 295.7109375 310.362548828 295.7109375 303.036743164 303.036743164 c 128,-1,30
 295.7109375 310.362548828 295.7109375 310.362548828 295.7109375 320.7109375 c 128,-1,31
 295.7109375 331.059326172 295.7109375 331.059326172 303.036743164 338.385131836 c 128,-1,24
 310.362548828 345.7109375 310.362548828 345.7109375 320.7109375 345.7109375 c 128,-1,25
50 275 m 128,-1,33
 60 275 60 275 67.5 267.5 c 128,-1,34
 75 260 75 260 75 250 c 128,-1,35
 75 240 75 240 67.5 232.5 c 128,-1,36
 60 225 60 225 50 225 c 128,-1,37
 40 225 40 225 32.5 232.5 c 128,-1,38
 25 240 25 240 25 250 c 128,-1,39
 25 260 25 260 32.5 267.5 c 128,-1,32
 40 275 40 275 50 275 c 128,-1,33
150 275 m 128,-1,41
 160 275 160 275 167.5 267.5 c 128,-1,42
 175 260 175 260 175 250 c 128,-1,43
 175 240 175 240 167.5 232.5 c 128,-1,44
 160 225 160 225 150 225 c 128,-1,45
 140 225 140 225 132.5 232.5 c 128,-1,46
 125 240 125 240 125 250 c 128,-1,47
 125 260 125 260 132.5 267.5 c 128,-1,40
 140 275 140 275 150 275 c 128,-1,41
250 275 m 128,-1,49
 260 275 260 275 267.5 267.5 c 128,-1,50
 275 260 275 260 275 250 c 128,-1,51
 275 240 275 240 267.5 232.5 c 128,-1,52
 260 225 260 225 250 225 c 128,-1,53
 240 225 240 225 232.5 232.5 c 128,-1,54
 225 240 225 240 225 250 c 128,-1,55
 225 260 225 260 232.5 267.5 c 128,-1,48
 240 275 240 275 250 275 c 128,-1,49
350 275 m 128,-1,57
 360 275 360 275 367.5 267.5 c 128,-1,58
 375 260 375 260 375 250 c 128,-1,59
 375 240 375 240 367.5 232.5 c 128,-1,60
 360 225 360 225 350 225 c 128,-1,61
 340 225 340 225 332.5 232.5 c 128,-1,62
 325 240 325 240 325 250 c 128,-1,63
 325 260 325 260 332.5 267.5 c 128,-1,56
 340 275 340 275 350 275 c 128,-1,57
450 275 m 128,-1,65
 460 275 460 275 467.5 267.5 c 128,-1,66
 475 260 475 260 475 250 c 128,-1,67
 475 240 475 240 467.5 232.5 c 128,-1,68
 460 225 460 225 450 225 c 128,-1,69
 440 225 440 225 432.5 232.5 c 128,-1,70
 425 240 425 240 425 250 c 128,-1,71
 425 260 425 260 432.5 267.5 c 128,-1,64
 440 275 440 275 450 275 c 128,-1,65
179.2890625 204.2890625 m 128,-1,73
 189.637451172 204.2890625 189.637451172 204.2890625 196.963256836 196.963256836 c 128,-1,74
 204.2890625 189.637451172 204.2890625 189.637451172 204.2890625 179.2890625 c 128,-1,75
 204.2890625 168.940673828 204.2890625 168.940673828 196.963256836 161.614868164 c 128,-1,76
 189.637451172 154.2890625 189.637451172 154.2890625 179.2890625 154.2890625 c 128,-1,77
 168.940673828 154.2890625 168.940673828 154.2890625 161.614868164 161.614868164 c 128,-1,78
 154.2890625 168.940673828 154.2890625 168.940673828 154.2890625 179.2890625 c 128,-1,79
 154.2890625 189.637451172 154.2890625 189.637451172 161.614868164 196.963256836 c 128,-1,72
 168.940673828 204.2890625 168.940673828 204.2890625 179.2890625 204.2890625 c 128,-1,73
320.7109375 204.2890625 m 128,-1,81
 331.059326172 204.2890625 331.059326172 204.2890625 338.385131836 196.963256836 c 128,-1,82
 345.7109375 189.637451172 345.7109375 189.637451172 345.7109375 179.2890625 c 128,-1,83
 345.7109375 168.940673828 345.7109375 168.940673828 338.385131836 161.614868164 c 128,-1,84
 331.059326172 154.2890625 331.059326172 154.2890625 320.7109375 154.2890625 c 128,-1,85
 310.362548828 154.2890625 310.362548828 154.2890625 303.036743164 161.614868164 c 128,-1,86
 295.7109375 168.940673828 295.7109375 168.940673828 295.7109375 179.2890625 c 128,-1,87
 295.7109375 189.637451172 295.7109375 189.637451172 303.036743164 196.963256836 c 128,-1,80
 310.362548828 204.2890625 310.362548828 204.2890625 320.7109375 204.2890625 c 128,-1,81
250 175 m 128,-1,89
 260 175 260 175 267.5 167.5 c 128,-1,90
 275 160 275 160 275 150 c 128,-1,91
 275 140 275 140 267.5 132.5 c 128,-1,92
 260 125 260 125 250 125 c 128,-1,93
 240 125 240 125 232.5 132.5 c 128,-1,94
 225 140 225 140 225 150 c 128,-1,95
 225 160 225 160 232.5 167.5 c 128,-1,88
 240 175 240 175 250 175 c 128,-1,89
250 75 m 128,-1,97
 260 75 260 75 267.5 67.5 c 128,-1,98
 275 60 275 60 275 50 c 128,-1,99
 275 40 275 40 267.5 32.5 c 128,-1,100
 260 25 260 25 250 25 c 128,-1,101
 240 25 240 25 232.5 32.5 c 128,-1,102
 225 40 225 40 225 50 c 128,-1,103
 225 60 225 60 232.5 67.5 c 128,-1,96
 240 75 240 75 250 75 c 128,-1,97
EndSplineSet
EndChar

StartChar: semicolon
Encoding: 59 59 27
Width: 500
Flags: W
LayerCount: 2
Fore
SplineSet
250 375 m 128,-1,1
 260 375 260 375 267.5 367.5 c 128,-1,2
 275 360 275 360 275 350 c 128,-1,3
 275 340 275 340 267.5 332.5 c 128,-1,4
 260 325 260 325 250 325 c 128,-1,5
 240 325 240 325 232.5 332.5 c 128,-1,6
 225 340 225 340 225 350 c 128,-1,7
 225 360 225 360 232.5 367.5 c 128,-1,0
 240 375 240 375 250 375 c 128,-1,1
179.2890625 345.7109375 m 128,-1,9
 189.637451172 345.7109375 189.637451172 345.7109375 196.963256836 338.385131836 c 128,-1,10
 204.2890625 331.059326172 204.2890625 331.059326172 204.2890625 320.7109375 c 128,-1,11
 204.2890625 310.362548828 204.2890625 310.362548828 196.963256836 303.036743164 c 128,-1,12
 189.637451172 295.7109375 189.637451172 295.7109375 179.2890625 295.7109375 c 128,-1,13
 168.940673828 295.7109375 168.940673828 295.7109375 161.614868164 303.036743164 c 128,-1,14
 154.2890625 310.362548828 154.2890625 310.362548828 154.2890625 320.7109375 c 128,-1,15
 154.2890625 331.059326172 154.2890625 331.059326172 161.614868164 338.385131836 c 128,-1,8
 168.940673828 345.7109375 168.940673828 345.7109375 179.2890625 345.7109375 c 128,-1,9
320.7109375 345.7109375 m 128,-1,17
 331.059326172 345.7109375 331.059326172 345.7109375 338.385131836 338.385131836 c 128,-1,18
 345.7109375 331.059326172 345.7109375 331.059326172 345.7109375 320.7109375 c 128,-1,19
 345.7109375 310.362548828 345.7109375 310.362548828 338.385131836 303.036743164 c 128,-1,20
 331.059326172 295.7109375 331.059326172 295.7109375 320.7109375 295.7109375 c 128,-1,21
 310.362548828 295.7109375 310.362548828 295.7109375 303.036743164 303.036743164 c 128,-1,22
 295.7109375 310.362548828 295.7109375 310.362548828 295.7109375 320.7109375 c 128,-1,23
 295.7109375 331.059326172 295.7109375 331.059326172 303.036743164 338.385131836 c 128,-1,16
 310.362548828 345.7109375 310.362548828 345.7109375 320.7109375 345.7109375 c 128,-1,17
50 275 m 128,-1,25
 60 275 60 275 67.5 267.5 c 128,-1,26
 75 260 75 260 75 250 c 128,-1,27
 75 240 75 240 67.5 232.5 c 128,-1,28
 60 225 60 225 50 225 c 128,-1,29
 40 225 40 225 32.5 232.5 c 128,-1,30
 25 240 25 240 25 250 c 128,-1,31
 25 260 25 260 32.5 267.5 c 128,-1,24
 40 275 40 275 50 275 c 128,-1,25
150 275 m 128,-1,33
 160 275 160 275 167.5 267.5 c 128,-1,34
 175 260 175 260 175 250 c 128,-1,35
 175 240 175 240 167.5 232.5 c 128,-1,36
 160 225 160 225 150 225 c 128,-1,37
 140 225 140 225 132.5 232.5 c 128,-1,38
 125 240 125 240 125 250 c 128,-1,39
 125 260 125 260 132.5 267.5 c 128,-1,32
 140 275 140 275 150 275 c 128,-1,33
250 275 m 128,-1,41
 260 275 260 275 267.5 267.5 c 128,-1,42
 275 260 275 260 275 250 c 128,-1,43
 275 240 275 240 267.5 232.5 c 128,-1,44
 260 225 260 225 250 225 c 128,-1,45
 240 225 240 225 232.5 232.5 c 128,-1,46
 225 240 225 240 225 250 c 128,-1,47
 225 260 225 260 232.5 267.5 c 128,-1,40
 240 275 240 275 250 275 c 128,-1,41
350 275 m 128,-1,49
 360 275 360 275 367.5 267.5 c 128,-1,50
 375 260 375 260 375 250 c 128,-1,51
 375 240 375 240 367.5 232.5 c 128,-1,52
 360 225 360 225 350 225 c 128,-1,53
 340 225 340 225 332.5 232.5 c 128,-1,54
 325 240 325 240 325 250 c 128,-1,55
 325 260 325 260 332.5 267.5 c 128,-1,48
 340 275 340 275 350 275 c 128,-1,49
450 275 m 128,-1,57
 460 275 460 275 467.5 267.5 c 128,-1,58
 475 260 475 260 475 250 c 128,-1,59
 475 240 475 240 467.5 232.5 c 128,-1,60
 460 225 460 225 450 225 c 128,-1,61
 440 225 440 225 432.5 232.5 c 128,-1,62
 425 240 425 240 425 250 c 128,-1,63
 425 260 425 260 432.5 267.5 c 128,-1,56
 440 275 440 275 450 275 c 128,-1,57
179.2890625 204.2890625 m 128,-1,65
 189.637451172 204.2890625 189.637451172 204.2890625 196.963256836 196.963256836 c 128,-1,66
 204.2890625 189.637451172 204.2890625 189.637451172 204.2890625 179.2890625 c 128,-1,67
 204.2890625 168.940673828 204.2890625 168.940673828 196.963256836 161.614868164 c 128,-1,68
 189.637451172 154.2890625 189.637451172 154.2890625 179.2890625 154.2890625 c 128,-1,69
 168.940673828 154.2890625 168.940673828 154.2890625 161.614868164 161.614868164 c 128,-1,70
 154.2890625 168.940673828 154.2890625 168.940673828 154.2890625 179.2890625 c 128,-1,71
 154.2890625 189.637451172 154.2890625 189.637451172 161.614868164 196.963256836 c 128,-1,64
 168.940673828 204.2890625 168.940673828 204.2890625 179.2890625 204.2890625 c 128,-1,65
320.7109375 204.2890625 m 128,-1,73
 331.059326172 204.2890625 331.059326172 204.2890625 338.385131836 196.963256836 c 128,-1,74
 345.7109375 189.637451172 345.7109375 189.637451172 345.7109375 179.2890625 c 128,-1,75
 345.7109375 168.940673828 345.7109375 168.940673828 338.385131836 161.614868164 c 128,-1,76
 331.059326172 154.2890625 331.059326172 154.2890625 320.7109375 154.2890625 c 128,-1,77
 310.362548828 154.2890625 310.362548828 154.2890625 303.036743164 161.614868164 c 128,-1,78
 295.7109375 168.940673828 295.7109375 168.940673828 295.7109375 179.2890625 c 128,-1,79
 295.7109375 189.637451172 295.7109375 189.637451172 303.036743164 196.963256836 c 128,-1,72
 310.362548828 204.2890625 310.362548828 204.2890625 320.7109375 204.2890625 c 128,-1,73
250 175 m 128,-1,81
 260 175 260 175 267.5 167.5 c 128,-1,82
 275 160 275 160 275 150 c 128,-1,83
 275 140 275 140 267.5 132.5 c 128,-1,84
 260 125 260 125 250 125 c 128,-1,85
 240 125 240 125 232.5 132.5 c 128,-1,86
 225 140 225 140 225 150 c 128,-1,87
 225 160 225 160 232.5 167.5 c 128,-1,80
 240 175 240 175 250 175 c 128,-1,81
EndSplineSet
EndChar

StartChar: less
Encoding: 60 60 28
Width: 500
Flags: W
LayerCount: 2
Fore
SplineSet
250 375 m 128,-1,1
 260 375 260 375 267.5 367.5 c 128,-1,2
 275 360 275 360 275 350 c 128,-1,3
 275 340 275 340 267.5 332.5 c 128,-1,4
 260 325 260 325 250 325 c 128,-1,5
 240 325 240 325 232.5 332.5 c 128,-1,6
 225 340 225 340 225 350 c 128,-1,7
 225 360 225 360 232.5 367.5 c 128,-1,0
 240 375 240 375 250 375 c 128,-1,1
179.2890625 345.7109375 m 128,-1,9
 189.637451172 345.7109375 189.637451172 345.7109375 196.963256836 338.385131836 c 128,-1,10
 204.2890625 331.059326172 204.2890625 331.059326172 204.2890625 320.7109375 c 128,-1,11
 204.2890625 310.362548828 204.2890625 310.362548828 196.963256836 303.036743164 c 128,-1,12
 189.637451172 295.7109375 189.637451172 295.7109375 179.2890625 295.7109375 c 128,-1,13
 168.940673828 295.7109375 168.940673828 295.7109375 161.614868164 303.036743164 c 128,-1,14
 154.2890625 310.362548828 154.2890625 310.362548828 154.2890625 320.7109375 c 128,-1,15
 154.2890625 331.059326172 154.2890625 331.059326172 161.614868164 338.385131836 c 128,-1,8
 168.940673828 345.7109375 168.940673828 345.7109375 179.2890625 345.7109375 c 128,-1,9
320.7109375 345.7109375 m 128,-1,17
 331.059326172 345.7109375 331.059326172 345.7109375 338.385131836 338.385131836 c 128,-1,18
 345.7109375 331.059326172 345.7109375 331.059326172 345.7109375 320.7109375 c 128,-1,19
 345.7109375 310.362548828 345.7109375 310.362548828 338.385131836 303.036743164 c 128,-1,20
 331.059326172 295.7109375 331.059326172 295.7109375 320.7109375 295.7109375 c 128,-1,21
 310.362548828 295.7109375 310.362548828 295.7109375 303.036743164 303.036743164 c 128,-1,22
 295.7109375 310.362548828 295.7109375 310.362548828 295.7109375 320.7109375 c 128,-1,23
 295.7109375 331.059326172 295.7109375 331.059326172 303.036743164 338.385131836 c 128,-1,16
 310.362548828 345.7109375 310.362548828 345.7109375 320.7109375 345.7109375 c 128,-1,17
150 275 m 128,-1,25
 160 275 160 275 167.5 267.5 c 128,-1,26
 175 260 175 260 175 250 c 128,-1,27
 175 240 175 240 167.5 232.5 c 128,-1,28
 160 225 160 225 150 225 c 128,-1,29
 140 225 140 225 132.5 232.5 c 128,-1,30
 125 240 125 240 125 250 c 128,-1,31
 125 260 125 260 132.5 267.5 c 128,-1,24
 140 275 140 275 150 275 c 128,-1,25
179.2890625 204.2890625 m 128,-1,33
 189.637451172 204.2890625 189.637451172 204.2890625 196.963256836 196.963256836 c 128,-1,34
 204.2890625 189.637451172 204.2890625 189.637451172 204.2890625 179.2890625 c 128,-1,35
 204.2890625 168.940673828 204.2890625 168.940673828 196.963256836 161.614868164 c 128,-1,36
 189.637451172 154.2890625 189.637451172 154.2890625 179.2890625 154.2890625 c 128,-1,37
 168.940673828 154.2890625 168.940673828 154.2890625 161.614868164 161.614868164 c 128,-1,38
 154.2890625 168.940673828 154.2890625 168.940673828 154.2890625 179.2890625 c 128,-1,39
 154.2890625 189.637451172 154.2890625 189.637451172 161.614868164 196.963256836 c 128,-1,32
 168.940673828 204.2890625 168.940673828 204.2890625 179.2890625 204.2890625 c 128,-1,33
320.7109375 204.2890625 m 128,-1,41
 331.059326172 204.2890625 331.059326172 204.2890625 338.385131836 196.963256836 c 128,-1,42
 345.7109375 189.637451172 345.7109375 189.637451172 345.7109375 179.2890625 c 128,-1,43
 345.7109375 168.940673828 345.7109375 168.940673828 338.385131836 161.614868164 c 128,-1,44
 331.059326172 154.2890625 331.059326172 154.2890625 320.7109375 154.2890625 c 128,-1,45
 310.362548828 154.2890625 310.362548828 154.2890625 303.036743164 161.614868164 c 128,-1,46
 295.7109375 168.940673828 295.7109375 168.940673828 295.7109375 179.2890625 c 128,-1,47
 295.7109375 189.637451172 295.7109375 189.637451172 303.036743164 196.963256836 c 128,-1,40
 310.362548828 204.2890625 310.362548828 204.2890625 320.7109375 204.2890625 c 128,-1,41
250 175 m 128,-1,49
 260 175 260 175 267.5 167.5 c 128,-1,50
 275 160 275 160 275 150 c 128,-1,51
 275 140 275 140 267.5 132.5 c 128,-1,52
 260 125 260 125 250 125 c 128,-1,53
 240 125 240 125 232.5 132.5 c 128,-1,54
 225 140 225 140 225 150 c 128,-1,55
 225 160 225 160 232.5 167.5 c 128,-1,48
 240 175 240 175 250 175 c 128,-1,49
EndSplineSet
EndChar

StartChar: equal
Encoding: 61 61 29
Width: 500
Flags: W
LayerCount: 2
Fore
SplineSet
250 375 m 128,-1,1
 260 375 260 375 267.5 367.5 c 128,-1,2
 275 360 275 360 275 350 c 128,-1,3
 275 340 275 340 267.5 332.5 c 128,-1,4
 260 325 260 325 250 325 c 128,-1,5
 240 325 240 325 232.5 332.5 c 128,-1,6
 225 340 225 340 225 350 c 128,-1,7
 225 360 225 360 232.5 367.5 c 128,-1,0
 240 375 240 375 250 375 c 128,-1,1
179.2890625 345.7109375 m 128,-1,9
 189.637451172 345.7109375 189.637451172 345.7109375 196.963256836 338.385131836 c 128,-1,10
 204.2890625 331.059326172 204.2890625 331.059326172 204.2890625 320.7109375 c 128,-1,11
 204.2890625 310.362548828 204.2890625 310.362548828 196.963256836 303.036743164 c 128,-1,12
 189.637451172 295.7109375 189.637451172 295.7109375 179.2890625 295.7109375 c 128,-1,13
 168.940673828 295.7109375 168.940673828 295.7109375 161.614868164 303.036743164 c 128,-1,14
 154.2890625 310.362548828 154.2890625 310.362548828 154.2890625 320.7109375 c 128,-1,15
 154.2890625 331.059326172 154.2890625 331.059326172 161.614868164 338.385131836 c 128,-1,8
 168.940673828 345.7109375 168.940673828 345.7109375 179.2890625 345.7109375 c 128,-1,9
320.7109375 345.7109375 m 128,-1,17
 331.059326172 345.7109375 331.059326172 345.7109375 338.385131836 338.385131836 c 128,-1,18
 345.7109375 331.059326172 345.7109375 331.059326172 345.7109375 320.7109375 c 128,-1,19
 345.7109375 310.362548828 345.7109375 310.362548828 338.385131836 303.036743164 c 128,-1,20
 331.059326172 295.7109375 331.059326172 295.7109375 320.7109375 295.7109375 c 128,-1,21
 310.362548828 295.7109375 310.362548828 295.7109375 303.036743164 303.036743164 c 128,-1,22
 295.7109375 310.362548828 295.7109375 310.362548828 295.7109375 320.7109375 c 128,-1,23
 295.7109375 331.059326172 295.7109375 331.059326172 303.036743164 338.385131836 c 128,-1,16
 310.362548828 345.7109375 310.362548828 345.7109375 320.7109375 345.7109375 c 128,-1,17
179.2890625 204.2890625 m 128,-1,25
 189.637451172 204.2890625 189.637451172 204.2890625 196.963256836 196.963256836 c 128,-1,26
 204.2890625 189.637451172 204.2890625 189.637451172 204.2890625 179.2890625 c 128,-1,27
 204.2890625 168.940673828 204.2890625 168.940673828 196.963256836 161.614868164 c 128,-1,28
 189.637451172 154.2890625 189.637451172 154.2890625 179.2890625 154.2890625 c 128,-1,29
 168.940673828 154.2890625 168.940673828 154.2890625 161.614868164 161.614868164 c 128,-1,30
 154.2890625 168.940673828 154.2890625 168.940673828 154.2890625 179.2890625 c 128,-1,31
 154.2890625 189.637451172 154.2890625 189.637451172 161.614868164 196.963256836 c 128,-1,24
 168.940673828 204.2890625 168.940673828 204.2890625 179.2890625 204.2890625 c 128,-1,25
320.7109375 204.2890625 m 128,-1,33
 331.059326172 204.2890625 331.059326172 204.2890625 338.385131836 196.963256836 c 128,-1,34
 345.7109375 189.637451172 345.7109375 189.637451172 345.7109375 179.2890625 c 128,-1,35
 345.7109375 168.940673828 345.7109375 168.940673828 338.385131836 161.614868164 c 128,-1,36
 331.059326172 154.2890625 331.059326172 154.2890625 320.7109375 154.2890625 c 128,-1,37
 310.362548828 154.2890625 310.362548828 154.2890625 303.036743164 161.614868164 c 128,-1,38
 295.7109375 168.940673828 295.7109375 168.940673828 295.7109375 179.2890625 c 128,-1,39
 295.7109375 189.637451172 295.7109375 189.637451172 303.036743164 196.963256836 c 128,-1,32
 310.362548828 204.2890625 310.362548828 204.2890625 320.7109375 204.2890625 c 128,-1,33
250 175 m 128,-1,41
 260 175 260 175 267.5 167.5 c 128,-1,42
 275 160 275 160 275 150 c 128,-1,43
 275 140 275 140 267.5 132.5 c 128,-1,44
 260 125 260 125 250 125 c 128,-1,45
 240 125 240 125 232.5 132.5 c 128,-1,46
 225 140 225 140 225 150 c 128,-1,47
 225 160 225 160 232.5 167.5 c 128,-1,40
 240 175 240 175 250 175 c 128,-1,41
EndSplineSet
EndChar

StartChar: greater
Encoding: 62 62 30
Width: 500
Flags: W
LayerCount: 2
Fore
SplineSet
250 375 m 128,-1,1
 260 375 260 375 267.5 367.5 c 128,-1,2
 275 360 275 360 275 350 c 128,-1,3
 275 340 275 340 267.5 332.5 c 128,-1,4
 260 325 260 325 250 325 c 128,-1,5
 240 325 240 325 232.5 332.5 c 128,-1,6
 225 340 225 340 225 350 c 128,-1,7
 225 360 225 360 232.5 367.5 c 128,-1,0
 240 375 240 375 250 375 c 128,-1,1
179.2890625 345.7109375 m 128,-1,9
 189.637451172 345.7109375 189.637451172 345.7109375 196.963256836 338.385131836 c 128,-1,10
 204.2890625 331.059326172 204.2890625 331.059326172 204.2890625 320.7109375 c 128,-1,11
 204.2890625 310.362548828 204.2890625 310.362548828 196.963256836 303.036743164 c 128,-1,12
 189.637451172 295.7109375 189.637451172 295.7109375 179.2890625 295.7109375 c 128,-1,13
 168.940673828 295.7109375 168.940673828 295.7109375 161.614868164 303.036743164 c 128,-1,14
 154.2890625 310.362548828 154.2890625 310.362548828 154.2890625 320.7109375 c 128,-1,15
 154.2890625 331.059326172 154.2890625 331.059326172 161.614868164 338.385131836 c 128,-1,8
 168.940673828 345.7109375 168.940673828 345.7109375 179.2890625 345.7109375 c 128,-1,9
320.7109375 345.7109375 m 128,-1,17
 331.059326172 345.7109375 331.059326172 345.7109375 338.385131836 338.385131836 c 128,-1,18
 345.7109375 331.059326172 345.7109375 331.059326172 345.7109375 320.7109375 c 128,-1,19
 345.7109375 310.362548828 345.7109375 310.362548828 338.385131836 303.036743164 c 128,-1,20
 331.059326172 295.7109375 331.059326172 295.7109375 320.7109375 295.7109375 c 128,-1,21
 310.362548828 295.7109375 310.362548828 295.7109375 303.036743164 303.036743164 c 128,-1,22
 295.7109375 310.362548828 295.7109375 310.362548828 295.7109375 320.7109375 c 128,-1,23
 295.7109375 331.059326172 295.7109375 331.059326172 303.036743164 338.385131836 c 128,-1,16
 310.362548828 345.7109375 310.362548828 345.7109375 320.7109375 345.7109375 c 128,-1,17
350 275 m 128,-1,25
 360 275 360 275 367.5 267.5 c 128,-1,26
 375 260 375 260 375 250 c 128,-1,27
 375 240 375 240 367.5 232.5 c 128,-1,28
 360 225 360 225 350 225 c 128,-1,29
 340 225 340 225 332.5 232.5 c 128,-1,30
 325 240 325 240 325 250 c 128,-1,31
 325 260 325 260 332.5 267.5 c 128,-1,24
 340 275 340 275 350 275 c 128,-1,25
179.2890625 204.2890625 m 128,-1,33
 189.637451172 204.2890625 189.637451172 204.2890625 196.963256836 196.963256836 c 128,-1,34
 204.2890625 189.637451172 204.2890625 189.637451172 204.2890625 179.2890625 c 128,-1,35
 204.2890625 168.940673828 204.2890625 168.940673828 196.963256836 161.614868164 c 128,-1,36
 189.637451172 154.2890625 189.637451172 154.2890625 179.2890625 154.2890625 c 128,-1,37
 168.940673828 154.2890625 168.940673828 154.2890625 161.614868164 161.614868164 c 128,-1,38
 154.2890625 168.940673828 154.2890625 168.940673828 154.2890625 179.2890625 c 128,-1,39
 154.2890625 189.637451172 154.2890625 189.637451172 161.614868164 196.963256836 c 128,-1,32
 168.940673828 204.2890625 168.940673828 204.2890625 179.2890625 204.2890625 c 128,-1,33
320.7109375 204.2890625 m 128,-1,41
 331.059326172 204.2890625 331.059326172 204.2890625 338.385131836 196.963256836 c 128,-1,42
 345.7109375 189.637451172 345.7109375 189.637451172 345.7109375 179.2890625 c 128,-1,43
 345.7109375 168.940673828 345.7109375 168.940673828 338.385131836 161.614868164 c 128,-1,44
 331.059326172 154.2890625 331.059326172 154.2890625 320.7109375 154.2890625 c 128,-1,45
 310.362548828 154.2890625 310.362548828 154.2890625 303.036743164 161.614868164 c 128,-1,46
 295.7109375 168.940673828 295.7109375 168.940673828 295.7109375 179.2890625 c 128,-1,47
 295.7109375 189.637451172 295.7109375 189.637451172 303.036743164 196.963256836 c 128,-1,40
 310.362548828 204.2890625 310.362548828 204.2890625 320.7109375 204.2890625 c 128,-1,41
250 175 m 128,-1,49
 260 175 260 175 267.5 167.5 c 128,-1,50
 275 160 275 160 275 150 c 128,-1,51
 275 140 275 140 267.5 132.5 c 128,-1,52
 260 125 260 125 250 125 c 128,-1,53
 240 125 240 125 232.5 132.5 c 128,-1,54
 225 140 225 140 225 150 c 128,-1,55
 225 160 225 160 232.5 167.5 c 128,-1,48
 240 175 240 175 250 175 c 128,-1,49
EndSplineSet
EndChar

StartChar: question
Encoding: 63 63 31
Width: 500
Flags: W
LayerCount: 2
Fore
SplineSet
250 475 m 128,-1,1
 260 475 260 475 267.5 467.5 c 128,-1,2
 275 460 275 460 275 450 c 128,-1,3
 275 440 275 440 267.5 432.5 c 128,-1,4
 260 425 260 425 250 425 c 128,-1,5
 240 425 240 425 232.5 432.5 c 128,-1,6
 225 440 225 440 225 450 c 128,-1,7
 225 460 225 460 232.5 467.5 c 128,-1,0
 240 475 240 475 250 475 c 128,-1,1
250 275 m 128,-1,9
 260 275 260 275 267.5 267.5 c 128,-1,10
 275 260 275 260 275 250 c 128,-1,11
 275 240 275 240 267.5 232.5 c 128,-1,12
 260 225 260 225 250 225 c 128,-1,13
 240 225 240 225 232.5 232.5 c 128,-1,14
 225 240 225 240 225 250 c 128,-1,15
 225 260 225 260 232.5 267.5 c 128,-1,8
 240 275 240 275 250 275 c 128,-1,9
250 75 m 128,-1,17
 260 75 260 75 267.5 67.5 c 128,-1,18
 275 60 275 60 275 50 c 128,-1,19
 275 40 275 40 267.5 32.5 c 128,-1,20
 260 25 260 25 250 25 c 128,-1,21
 240 25 240 25 232.5 32.5 c 128,-1,22
 225 40 225 40 225 50 c 128,-1,23
 225 60 225 60 232.5 67.5 c 128,-1,16
 240 75 240 75 250 75 c 128,-1,17
EndSplineSet
EndChar

StartChar: at
Encoding: 64 64 32
Width: 500
Flags: W
LayerCount: 2
Fore
SplineSet
250 475 m 128,-1,1
 260 475 260 475 267.5 467.5 c 128,-1,2
 275 460 275 460 275 450 c 128,-1,3
 275 440 275 440 267.5 432.5 c 128,-1,4
 260 425 260 425 250 425 c 128,-1,5
 240 425 240 425 232.5 432.5 c 128,-1,6
 225 440 225 440 225 450 c 128,-1,7
 225 460 225 460 232.5 467.5 c 128,-1,0
 240 475 240 475 250 475 c 128,-1,1
108.578125 416.421875 m 128,-1,9
 118.926513672 416.421875 118.926513672 416.421875 126.252319336 409.096069336 c 128,-1,10
 133.578125 401.770263672 133.578125 401.770263672 133.578125 391.421875 c 128,-1,11
 133.578125 381.073486328 133.578125 381.073486328 126.252319336 373.747680664 c 128,-1,12
 118.926513672 366.421875 118.926513672 366.421875 108.578125 366.421875 c 128,-1,13
 98.2297363281 366.421875 98.2297363281 366.421875 90.9039306641 373.747680664 c 128,-1,14
 83.578125 381.073486328 83.578125 381.073486328 83.578125 391.421875 c 128,-1,15
 83.578125 401.770263672 83.578125 401.770263672 90.9039306641 409.096069336 c 128,-1,8
 98.2297363281 416.421875 98.2297363281 416.421875 108.578125 416.421875 c 128,-1,9
391.421875 416.421875 m 128,-1,17
 401.770263672 416.421875 401.770263672 416.421875 409.096069336 409.096069336 c 128,-1,18
 416.421875 401.770263672 416.421875 401.770263672 416.421875 391.421875 c 128,-1,19
 416.421875 381.073486328 416.421875 381.073486328 409.096069336 373.747680664 c 128,-1,20
 401.770263672 366.421875 401.770263672 366.421875 391.421875 366.421875 c 128,-1,21
 381.073486328 366.421875 381.073486328 366.421875 373.747680664 373.747680664 c 128,-1,22
 366.421875 381.073486328 366.421875 381.073486328 366.421875 391.421875 c 128,-1,23
 366.421875 401.770263672 366.421875 401.770263672 373.747680664 409.096069336 c 128,-1,16
 381.073486328 416.421875 381.073486328 416.421875 391.421875 416.421875 c 128,-1,17
250 375 m 128,-1,25
 260 375 260 375 267.5 367.5 c 128,-1,26
 275 360 275 360 275 350 c 128,-1,27
 275 340 275 340 267.5 332.5 c 128,-1,28
 260 325 260 325 250 325 c 128,-1,29
 240 325 240 325 232.5 332.5 c 128,-1,30
 225 340 225 340 225 350 c 128,-1,31
 225 360 225 360 232.5 367.5 c 128,-1,24
 240 375 240 375 250 375 c 128,-1,25
179.2890625 345.7109375 m 128,-1,33
 189.637451172 345.7109375 189.637451172 345.7109375 196.963256836 338.385131836 c 128,-1,34
 204.2890625 331.059326172 204.2890625 331.059326172 204.2890625 320.7109375 c 128,-1,35
 204.2890625 310.362548828 204.2890625 310.362548828 196.963256836 303.036743164 c 128,-1,36
 189.637451172 295.7109375 189.637451172 295.7109375 179.2890625 295.7109375 c 128,-1,37
 168.940673828 295.7109375 168.940673828 295.7109375 161.614868164 303.036743164 c 128,-1,38
 154.2890625 310.362548828 154.2890625 310.362548828 154.2890625 320.7109375 c 128,-1,39
 154.2890625 331.059326172 154.2890625 331.059326172 161.614868164 338.385131836 c 128,-1,32
 168.940673828 345.7109375 168.940673828 345.7109375 179.2890625 345.7109375 c 128,-1,33
320.7109375 345.7109375 m 128,-1,41
 331.059326172 345.7109375 331.059326172 345.7109375 338.385131836 338.385131836 c 128,-1,42
 345.7109375 331.059326172 345.7109375 331.059326172 345.7109375 320.7109375 c 128,-1,43
 345.7109375 310.362548828 345.7109375 310.362548828 338.385131836 303.036743164 c 128,-1,44
 331.059326172 295.7109375 331.059326172 295.7109375 320.7109375 295.7109375 c 128,-1,45
 310.362548828 295.7109375 310.362548828 295.7109375 303.036743164 303.036743164 c 128,-1,46
 295.7109375 310.362548828 295.7109375 310.362548828 295.7109375 320.7109375 c 128,-1,47
 295.7109375 331.059326172 295.7109375 331.059326172 303.036743164 338.385131836 c 128,-1,40
 310.362548828 345.7109375 310.362548828 345.7109375 320.7109375 345.7109375 c 128,-1,41
50 275 m 128,-1,49
 60 275 60 275 67.5 267.5 c 128,-1,50
 75 260 75 260 75 250 c 128,-1,51
 75 240 75 240 67.5 232.5 c 128,-1,52
 60 225 60 225 50 225 c 128,-1,53
 40 225 40 225 32.5 232.5 c 128,-1,54
 25 240 25 240 25 250 c 128,-1,55
 25 260 25 260 32.5 267.5 c 128,-1,48
 40 275 40 275 50 275 c 128,-1,49
150 275 m 128,-1,57
 160 275 160 275 167.5 267.5 c 128,-1,58
 175 260 175 260 175 250 c 128,-1,59
 175 240 175 240 167.5 232.5 c 128,-1,60
 160 225 160 225 150 225 c 128,-1,61
 140 225 140 225 132.5 232.5 c 128,-1,62
 125 240 125 240 125 250 c 128,-1,63
 125 260 125 260 132.5 267.5 c 128,-1,56
 140 275 140 275 150 275 c 128,-1,57
250 275 m 128,-1,65
 260 275 260 275 267.5 267.5 c 128,-1,66
 275 260 275 260 275 250 c 128,-1,67
 275 240 275 240 267.5 232.5 c 128,-1,68
 260 225 260 225 250 225 c 128,-1,69
 240 225 240 225 232.5 232.5 c 128,-1,70
 225 240 225 240 225 250 c 128,-1,71
 225 260 225 260 232.5 267.5 c 128,-1,64
 240 275 240 275 250 275 c 128,-1,65
350 275 m 128,-1,73
 360 275 360 275 367.5 267.5 c 128,-1,74
 375 260 375 260 375 250 c 128,-1,75
 375 240 375 240 367.5 232.5 c 128,-1,76
 360 225 360 225 350 225 c 128,-1,77
 340 225 340 225 332.5 232.5 c 128,-1,78
 325 240 325 240 325 250 c 128,-1,79
 325 260 325 260 332.5 267.5 c 128,-1,72
 340 275 340 275 350 275 c 128,-1,73
450 275 m 128,-1,81
 460 275 460 275 467.5 267.5 c 128,-1,82
 475 260 475 260 475 250 c 128,-1,83
 475 240 475 240 467.5 232.5 c 128,-1,84
 460 225 460 225 450 225 c 128,-1,85
 440 225 440 225 432.5 232.5 c 128,-1,86
 425 240 425 240 425 250 c 128,-1,87
 425 260 425 260 432.5 267.5 c 128,-1,80
 440 275 440 275 450 275 c 128,-1,81
179.2890625 204.2890625 m 128,-1,89
 189.637451172 204.2890625 189.637451172 204.2890625 196.963256836 196.963256836 c 128,-1,90
 204.2890625 189.637451172 204.2890625 189.637451172 204.2890625 179.2890625 c 128,-1,91
 204.2890625 168.940673828 204.2890625 168.940673828 196.963256836 161.614868164 c 128,-1,92
 189.637451172 154.2890625 189.637451172 154.2890625 179.2890625 154.2890625 c 128,-1,93
 168.940673828 154.2890625 168.940673828 154.2890625 161.614868164 161.614868164 c 128,-1,94
 154.2890625 168.940673828 154.2890625 168.940673828 154.2890625 179.2890625 c 128,-1,95
 154.2890625 189.637451172 154.2890625 189.637451172 161.614868164 196.963256836 c 128,-1,88
 168.940673828 204.2890625 168.940673828 204.2890625 179.2890625 204.2890625 c 128,-1,89
320.7109375 204.2890625 m 128,-1,97
 331.059326172 204.2890625 331.059326172 204.2890625 338.385131836 196.963256836 c 128,-1,98
 345.7109375 189.637451172 345.7109375 189.637451172 345.7109375 179.2890625 c 128,-1,99
 345.7109375 168.940673828 345.7109375 168.940673828 338.385131836 161.614868164 c 128,-1,100
 331.059326172 154.2890625 331.059326172 154.2890625 320.7109375 154.2890625 c 128,-1,101
 310.362548828 154.2890625 310.362548828 154.2890625 303.036743164 161.614868164 c 128,-1,102
 295.7109375 168.940673828 295.7109375 168.940673828 295.7109375 179.2890625 c 128,-1,103
 295.7109375 189.637451172 295.7109375 189.637451172 303.036743164 196.963256836 c 128,-1,96
 310.362548828 204.2890625 310.362548828 204.2890625 320.7109375 204.2890625 c 128,-1,97
250 175 m 128,-1,105
 260 175 260 175 267.5 167.5 c 128,-1,106
 275 160 275 160 275 150 c 128,-1,107
 275 140 275 140 267.5 132.5 c 128,-1,108
 260 125 260 125 250 125 c 128,-1,109
 240 125 240 125 232.5 132.5 c 128,-1,110
 225 140 225 140 225 150 c 128,-1,111
 225 160 225 160 232.5 167.5 c 128,-1,104
 240 175 240 175 250 175 c 128,-1,105
108.578125 133.578125 m 128,-1,113
 118.926513672 133.578125 118.926513672 133.578125 126.252319336 126.252319336 c 128,-1,114
 133.578125 118.926513672 133.578125 118.926513672 133.578125 108.578125 c 128,-1,115
 133.578125 98.2297363281 133.578125 98.2297363281 126.252319336 90.9039306641 c 128,-1,116
 118.926513672 83.578125 118.926513672 83.578125 108.578125 83.578125 c 128,-1,117
 98.2297363281 83.578125 98.2297363281 83.578125 90.9039306641 90.9039306641 c 128,-1,118
 83.578125 98.2297363281 83.578125 98.2297363281 83.578125 108.578125 c 128,-1,119
 83.578125 118.926513672 83.578125 118.926513672 90.9039306641 126.252319336 c 128,-1,112
 98.2297363281 133.578125 98.2297363281 133.578125 108.578125 133.578125 c 128,-1,113
391.421875 133.578125 m 128,-1,121
 401.770263672 133.578125 401.770263672 133.578125 409.096069336 126.252319336 c 128,-1,122
 416.421875 118.926513672 416.421875 118.926513672 416.421875 108.578125 c 128,-1,123
 416.421875 98.2297363281 416.421875 98.2297363281 409.096069336 90.9039306641 c 128,-1,124
 401.770263672 83.578125 401.770263672 83.578125 391.421875 83.578125 c 128,-1,125
 381.073486328 83.578125 381.073486328 83.578125 373.747680664 90.9039306641 c 128,-1,126
 366.421875 98.2297363281 366.421875 98.2297363281 366.421875 108.578125 c 128,-1,127
 366.421875 118.926513672 366.421875 118.926513672 373.747680664 126.252319336 c 128,-1,120
 381.073486328 133.578125 381.073486328 133.578125 391.421875 133.578125 c 128,-1,121
250 75 m 128,-1,129
 260 75 260 75 267.5 67.5 c 128,-1,130
 275 60 275 60 275 50 c 128,-1,131
 275 40 275 40 267.5 32.5 c 128,-1,132
 260 25 260 25 250 25 c 128,-1,133
 240 25 240 25 232.5 32.5 c 128,-1,134
 225 40 225 40 225 50 c 128,-1,135
 225 60 225 60 232.5 67.5 c 128,-1,128
 240 75 240 75 250 75 c 128,-1,129
EndSplineSet
EndChar

StartChar: A
Encoding: 65 65 33
Width: 0
VWidth: 1000
Flags: W
AnchorPoint: "vowel" -250 250 mark 0
LayerCount: 2
Fore
SplineSet
-250 700 m 128,-1,1
 -229 700 -229 700 -214.5 685.5 c 128,-1,2
 -200 671 -200 671 -200 650 c 128,-1,3
 -200 629 -200 629 -214.5 614.5 c 128,-1,4
 -229 600 -229 600 -250 600 c 128,-1,5
 -271 600 -271 600 -285.5 614.5 c 128,-1,6
 -300 629 -300 629 -300 650 c 128,-1,7
 -300 671 -300 671 -285.5 685.5 c 128,-1,0
 -271 700 -271 700 -250 700 c 128,-1,1
-250 600 m 128,-1,9
 -229 600 -229 600 -214.5 585.5 c 128,-1,10
 -200 571 -200 571 -200 550 c 128,-1,11
 -200 529 -200 529 -214.5 514.5 c 128,-1,12
 -229 500 -229 500 -250 500 c 128,-1,13
 -271 500 -271 500 -285.5 514.5 c 128,-1,14
 -300 529 -300 529 -300 550 c 128,-1,15
 -300 571 -300 571 -285.5 585.5 c 128,-1,8
 -271 600 -271 600 -250 600 c 128,-1,9
-391.421875 641.421875 m 128,-1,17
 -370.725097656 641.421875 -370.725097656 641.421875 -356.073486328 626.770263672 c 128,-1,18
 -341.421875 612.118652344 -341.421875 612.118652344 -341.421875 591.421875 c 128,-1,19
 -341.421875 570.725097656 -341.421875 570.725097656 -356.073486328 556.073486328 c 128,-1,20
 -370.725097656 541.421875 -370.725097656 541.421875 -391.421875 541.421875 c 128,-1,21
 -412.118652344 541.421875 -412.118652344 541.421875 -426.770263672 556.073486328 c 128,-1,22
 -441.421875 570.725097656 -441.421875 570.725097656 -441.421875 591.421875 c 128,-1,23
 -441.421875 612.118652344 -441.421875 612.118652344 -426.770263672 626.770263672 c 128,-1,16
 -412.118652344 641.421875 -412.118652344 641.421875 -391.421875 641.421875 c 128,-1,17
-108.578125 641.421875 m 128,-1,25
 -87.8813476562 641.421875 -87.8813476562 641.421875 -73.2297363281 626.770263672 c 128,-1,26
 -58.578125 612.118652344 -58.578125 612.118652344 -58.578125 591.421875 c 128,-1,27
 -58.578125 570.725097656 -58.578125 570.725097656 -73.2297363281 556.073486328 c 128,-1,28
 -87.8813476562 541.421875 -87.8813476562 541.421875 -108.578125 541.421875 c 128,-1,29
 -129.274902344 541.421875 -129.274902344 541.421875 -143.926513672 556.073486328 c 128,-1,30
 -158.578125 570.725097656 -158.578125 570.725097656 -158.578125 591.421875 c 128,-1,31
 -158.578125 612.118652344 -158.578125 612.118652344 -143.926513672 626.770263672 c 128,-1,24
 -129.274902344 641.421875 -129.274902344 641.421875 -108.578125 641.421875 c 128,-1,25
EndSplineSet
EndChar

StartChar: B
Encoding: 66 66 34
Width: 500
Flags: W
AnchorPoint: "vowel" 250 250 basechar 0
LayerCount: 2
Fore
SplineSet
391.421875 441.421875 m 128,-1,1
 412.118652344 441.421875 412.118652344 441.421875 426.770263672 426.770263672 c 128,-1,2
 441.421875 412.118652344 441.421875 412.118652344 441.421875 391.421875 c 128,-1,3
 441.421875 370.725097656 441.421875 370.725097656 426.770263672 356.073486328 c 128,-1,4
 412.118652344 341.421875 412.118652344 341.421875 391.421875 341.421875 c 128,-1,5
 370.725097656 341.421875 370.725097656 341.421875 356.073486328 356.073486328 c 128,-1,6
 341.421875 370.725097656 341.421875 370.725097656 341.421875 391.421875 c 128,-1,7
 341.421875 412.118652344 341.421875 412.118652344 356.073486328 426.770263672 c 128,-1,0
 370.725097656 441.421875 370.725097656 441.421875 391.421875 441.421875 c 128,-1,1
450 300 m 128,-1,9
 471 300 471 300 485.5 285.5 c 128,-1,10
 500 271 500 271 500 250 c 128,-1,11
 500 229 500 229 485.5 214.5 c 128,-1,12
 471 200 471 200 450 200 c 128,-1,13
 429 200 429 200 414.5 214.5 c 128,-1,14
 400 229 400 229 400 250 c 128,-1,15
 400 271 400 271 414.5 285.5 c 128,-1,8
 429 300 429 300 450 300 c 128,-1,9
391.421875 158.578125 m 128,-1,17
 412.118652344 158.578125 412.118652344 158.578125 426.770263672 143.926513672 c 128,-1,18
 441.421875 129.274902344 441.421875 129.274902344 441.421875 108.578125 c 128,-1,19
 441.421875 87.8813476562 441.421875 87.8813476562 426.770263672 73.2297363281 c 128,-1,20
 412.118652344 58.578125 412.118652344 58.578125 391.421875 58.578125 c 128,-1,21
 370.725097656 58.578125 370.725097656 58.578125 356.073486328 73.2297363281 c 128,-1,22
 341.421875 87.8813476562 341.421875 87.8813476562 341.421875 108.578125 c 128,-1,23
 341.421875 129.274902344 341.421875 129.274902344 356.073486328 143.926513672 c 128,-1,16
 370.725097656 158.578125 370.725097656 158.578125 391.421875 158.578125 c 128,-1,17
400 250 m 128,-1,25
 400 188 400 188 356 144 c 128,-1,26
 312 100 312 100 250 100 c 128,-1,27
 188 100 188 100 144 144 c 128,-1,28
 100 188 100 188 100 250 c 128,-1,29
 100 312 100 312 144 356 c 128,-1,30
 188 400 188 400 250 400 c 128,-1,31
 312 400 312 400 356 356 c 128,-1,24
 400 312 400 312 400 250 c 128,-1,25
EndSplineSet
EndChar

StartChar: C
Encoding: 67 67 35
Width: 500
Flags: W
AnchorPoint: "vowel" 250 250 basechar 0
LayerCount: 2
Fore
SplineSet
108.578125 441.421875 m 128,-1,1
 129.274902344 441.421875 129.274902344 441.421875 143.926513672 426.770263672 c 128,-1,2
 158.578125 412.118652344 158.578125 412.118652344 158.578125 391.421875 c 128,-1,3
 158.578125 370.725097656 158.578125 370.725097656 143.926513672 356.073486328 c 128,-1,4
 129.274902344 341.421875 129.274902344 341.421875 108.578125 341.421875 c 128,-1,5
 87.8813476562 341.421875 87.8813476562 341.421875 73.2297363281 356.073486328 c 128,-1,6
 58.578125 370.725097656 58.578125 370.725097656 58.578125 391.421875 c 128,-1,7
 58.578125 412.118652344 58.578125 412.118652344 73.2297363281 426.770263672 c 128,-1,0
 87.8813476562 441.421875 87.8813476562 441.421875 108.578125 441.421875 c 128,-1,1
50 300 m 128,-1,9
 71 300 71 300 85.5 285.5 c 128,-1,10
 100 271 100 271 100 250 c 128,-1,11
 100 229 100 229 85.5 214.5 c 128,-1,12
 71 200 71 200 50 200 c 128,-1,13
 29 200 29 200 14.5 214.5 c 128,-1,14
 0 229 0 229 0 250 c 128,-1,15
 0 271 0 271 14.5 285.5 c 128,-1,8
 29 300 29 300 50 300 c 128,-1,9
108.578125 158.578125 m 128,-1,17
 129.274902344 158.578125 129.274902344 158.578125 143.926513672 143.926513672 c 128,-1,18
 158.578125 129.274902344 158.578125 129.274902344 158.578125 108.578125 c 128,-1,19
 158.578125 87.8813476562 158.578125 87.8813476562 143.926513672 73.2297363281 c 128,-1,20
 129.274902344 58.578125 129.274902344 58.578125 108.578125 58.578125 c 128,-1,21
 87.8813476562 58.578125 87.8813476562 58.578125 73.2297363281 73.2297363281 c 128,-1,22
 58.578125 87.8813476562 58.578125 87.8813476562 58.578125 108.578125 c 128,-1,23
 58.578125 129.274902344 58.578125 129.274902344 73.2297363281 143.926513672 c 128,-1,16
 87.8813476562 158.578125 87.8813476562 158.578125 108.578125 158.578125 c 128,-1,17
400 250 m 128,-1,25
 400 188 400 188 356 144 c 128,-1,26
 312 100 312 100 250 100 c 128,-1,27
 188 100 188 100 144 144 c 128,-1,28
 100 188 100 188 100 250 c 128,-1,29
 100 312 100 312 144 356 c 128,-1,30
 188 400 188 400 250 400 c 128,-1,31
 312 400 312 400 356 356 c 128,-1,24
 400 312 400 312 400 250 c 128,-1,25
EndSplineSet
EndChar

StartChar: D
Encoding: 68 68 36
Width: 500
Flags: W
AnchorPoint: "vowel" 250 250 basechar 0
LayerCount: 2
Fore
SplineSet
250 500 m 128,-1,1
 271 500 271 500 285.5 485.5 c 128,-1,2
 300 471 300 471 300 450 c 128,-1,3
 300 429 300 429 285.5 414.5 c 128,-1,4
 271 400 271 400 250 400 c 128,-1,5
 229 400 229 400 214.5 414.5 c 128,-1,6
 200 429 200 429 200 450 c 128,-1,7
 200 471 200 471 214.5 485.5 c 128,-1,0
 229 500 229 500 250 500 c 128,-1,1
108.578125 441.421875 m 128,-1,9
 129.274902344 441.421875 129.274902344 441.421875 143.926513672 426.770263672 c 128,-1,10
 158.578125 412.118652344 158.578125 412.118652344 158.578125 391.421875 c 128,-1,11
 158.578125 370.725097656 158.578125 370.725097656 143.926513672 356.073486328 c 128,-1,12
 129.274902344 341.421875 129.274902344 341.421875 108.578125 341.421875 c 128,-1,13
 87.8813476562 341.421875 87.8813476562 341.421875 73.2297363281 356.073486328 c 128,-1,14
 58.578125 370.725097656 58.578125 370.725097656 58.578125 391.421875 c 128,-1,15
 58.578125 412.118652344 58.578125 412.118652344 73.2297363281 426.770263672 c 128,-1,8
 87.8813476562 441.421875 87.8813476562 441.421875 108.578125 441.421875 c 128,-1,9
391.421875 441.421875 m 128,-1,17
 412.118652344 441.421875 412.118652344 441.421875 426.770263672 426.770263672 c 128,-1,18
 441.421875 412.118652344 441.421875 412.118652344 441.421875 391.421875 c 128,-1,19
 441.421875 370.725097656 441.421875 370.725097656 426.770263672 356.073486328 c 128,-1,20
 412.118652344 341.421875 412.118652344 341.421875 391.421875 341.421875 c 128,-1,21
 370.725097656 341.421875 370.725097656 341.421875 356.073486328 356.073486328 c 128,-1,22
 341.421875 370.725097656 341.421875 370.725097656 341.421875 391.421875 c 128,-1,23
 341.421875 412.118652344 341.421875 412.118652344 356.073486328 426.770263672 c 128,-1,16
 370.725097656 441.421875 370.725097656 441.421875 391.421875 441.421875 c 128,-1,17
400 250 m 128,-1,25
 400 188 400 188 356 144 c 128,-1,26
 312 100 312 100 250 100 c 128,-1,27
 188 100 188 100 144 144 c 128,-1,28
 100 188 100 188 100 250 c 128,-1,29
 100 312 100 312 144 356 c 128,-1,30
 188 400 188 400 250 400 c 128,-1,31
 312 400 312 400 356 356 c 128,-1,24
 400 312 400 312 400 250 c 128,-1,25
EndSplineSet
EndChar

StartChar: E
Encoding: 69 69 37
Width: 0
VWidth: 1000
Flags: W
AnchorPoint: "vowel" -250 250 mark 0
LayerCount: 2
Fore
SplineSet
-200 550 m 128,-1,1
 -200 529 -200 529 -214.5 514.5 c 128,-1,2
 -229 500 -229 500 -250 500 c 128,-1,3
 -271 500 -271 500 -285.5 514.5 c 128,-1,4
 -300 529 -300 529 -300 550 c 128,-1,5
 -300 571 -300 571 -285.5 585.5 c 128,-1,6
 -271 600 -271 600 -250 600 c 128,-1,7
 -229 600 -229 600 -214.5 585.5 c 128,-1,0
 -200 571 -200 571 -200 550 c 128,-1,1
EndSplineSet
EndChar

StartChar: F
Encoding: 70 70 38
Width: 500
Flags: W
AnchorPoint: "vowel" 250 250 basechar 0
LayerCount: 2
Fore
SplineSet
108.578125 158.578125 m 128,-1,1
 129.274902344 158.578125 129.274902344 158.578125 143.926513672 143.926513672 c 128,-1,2
 158.578125 129.274902344 158.578125 129.274902344 158.578125 108.578125 c 128,-1,3
 158.578125 87.8813476562 158.578125 87.8813476562 143.926513672 73.2297363281 c 128,-1,4
 129.274902344 58.578125 129.274902344 58.578125 108.578125 58.578125 c 128,-1,5
 87.8813476562 58.578125 87.8813476562 58.578125 73.2297363281 73.2297363281 c 128,-1,6
 58.578125 87.8813476562 58.578125 87.8813476562 58.578125 108.578125 c 128,-1,7
 58.578125 129.274902344 58.578125 129.274902344 73.2297363281 143.926513672 c 128,-1,0
 87.8813476562 158.578125 87.8813476562 158.578125 108.578125 158.578125 c 128,-1,1
391.421875 158.578125 m 128,-1,9
 412.118652344 158.578125 412.118652344 158.578125 426.770263672 143.926513672 c 128,-1,10
 441.421875 129.274902344 441.421875 129.274902344 441.421875 108.578125 c 128,-1,11
 441.421875 87.8813476562 441.421875 87.8813476562 426.770263672 73.2297363281 c 128,-1,12
 412.118652344 58.578125 412.118652344 58.578125 391.421875 58.578125 c 128,-1,13
 370.725097656 58.578125 370.725097656 58.578125 356.073486328 73.2297363281 c 128,-1,14
 341.421875 87.8813476562 341.421875 87.8813476562 341.421875 108.578125 c 128,-1,15
 341.421875 129.274902344 341.421875 129.274902344 356.073486328 143.926513672 c 128,-1,8
 370.725097656 158.578125 370.725097656 158.578125 391.421875 158.578125 c 128,-1,9
250 100 m 128,-1,17
 271 100 271 100 285.5 85.5 c 128,-1,18
 300 71 300 71 300 50 c 128,-1,19
 300 29 300 29 285.5 14.5 c 128,-1,20
 271 0 271 0 250 0 c 128,-1,21
 229 0 229 0 214.5 14.5 c 128,-1,22
 200 29 200 29 200 50 c 128,-1,23
 200 71 200 71 214.5 85.5 c 128,-1,16
 229 100 229 100 250 100 c 128,-1,17
EndSplineSet
EndChar

StartChar: G
Encoding: 71 71 39
Width: 500
Flags: W
AnchorPoint: "vowel" 250 250 basechar 0
LayerCount: 2
Fore
SplineSet
250 500 m 128,-1,1
 271 500 271 500 285.5 485.5 c 128,-1,2
 300 471 300 471 300 450 c 128,-1,3
 300 429 300 429 285.5 414.5 c 128,-1,4
 271 400 271 400 250 400 c 128,-1,5
 229 400 229 400 214.5 414.5 c 128,-1,6
 200 429 200 429 200 450 c 128,-1,7
 200 471 200 471 214.5 485.5 c 128,-1,0
 229 500 229 500 250 500 c 128,-1,1
108.578125 441.421875 m 128,-1,9
 129.274902344 441.421875 129.274902344 441.421875 143.926513672 426.770263672 c 128,-1,10
 158.578125 412.118652344 158.578125 412.118652344 158.578125 391.421875 c 128,-1,11
 158.578125 370.725097656 158.578125 370.725097656 143.926513672 356.073486328 c 128,-1,12
 129.274902344 341.421875 129.274902344 341.421875 108.578125 341.421875 c 128,-1,13
 87.8813476562 341.421875 87.8813476562 341.421875 73.2297363281 356.073486328 c 128,-1,14
 58.578125 370.725097656 58.578125 370.725097656 58.578125 391.421875 c 128,-1,15
 58.578125 412.118652344 58.578125 412.118652344 73.2297363281 426.770263672 c 128,-1,8
 87.8813476562 441.421875 87.8813476562 441.421875 108.578125 441.421875 c 128,-1,9
50 300 m 128,-1,17
 71 300 71 300 85.5 285.5 c 128,-1,18
 100 271 100 271 100 250 c 128,-1,19
 100 229 100 229 85.5 214.5 c 128,-1,20
 71 200 71 200 50 200 c 128,-1,21
 29 200 29 200 14.5 214.5 c 128,-1,22
 0 229 0 229 0 250 c 128,-1,23
 0 271 0 271 14.5 285.5 c 128,-1,16
 29 300 29 300 50 300 c 128,-1,17
400 250 m 128,-1,25
 400 188 400 188 356 144 c 128,-1,26
 312 100 312 100 250 100 c 128,-1,27
 188 100 188 100 144 144 c 128,-1,28
 100 188 100 188 100 250 c 128,-1,29
 100 312 100 312 144 356 c 128,-1,30
 188 400 188 400 250 400 c 128,-1,31
 312 400 312 400 356 356 c 128,-1,24
 400 312 400 312 400 250 c 128,-1,25
EndSplineSet
EndChar

StartChar: H
Encoding: 72 72 40
Width: 500
Flags: W
AnchorPoint: "vowel" 250 250 basechar 0
LayerCount: 2
Fore
SplineSet
50 300 m 128,-1,1
 71 300 71 300 85.5 285.5 c 128,-1,2
 100 271 100 271 100 250 c 128,-1,3
 100 229 100 229 85.5 214.5 c 128,-1,4
 71 200 71 200 50 200 c 128,-1,5
 29 200 29 200 14.5 214.5 c 128,-1,6
 0 229 0 229 0 250 c 128,-1,7
 0 271 0 271 14.5 285.5 c 128,-1,0
 29 300 29 300 50 300 c 128,-1,1
108.578125 158.578125 m 128,-1,9
 129.274902344 158.578125 129.274902344 158.578125 143.926513672 143.926513672 c 128,-1,10
 158.578125 129.274902344 158.578125 129.274902344 158.578125 108.578125 c 128,-1,11
 158.578125 87.8813476562 158.578125 87.8813476562 143.926513672 73.2297363281 c 128,-1,12
 129.274902344 58.578125 129.274902344 58.578125 108.578125 58.578125 c 128,-1,13
 87.8813476562 58.578125 87.8813476562 58.578125 73.2297363281 73.2297363281 c 128,-1,14
 58.578125 87.8813476562 58.578125 87.8813476562 58.578125 108.578125 c 128,-1,15
 58.578125 129.274902344 58.578125 129.274902344 73.2297363281 143.926513672 c 128,-1,8
 87.8813476562 158.578125 87.8813476562 158.578125 108.578125 158.578125 c 128,-1,9
250 100 m 128,-1,17
 271 100 271 100 285.5 85.5 c 128,-1,18
 300 71 300 71 300 50 c 128,-1,19
 300 29 300 29 285.5 14.5 c 128,-1,20
 271 0 271 0 250 0 c 128,-1,21
 229 0 229 0 214.5 14.5 c 128,-1,22
 200 29 200 29 200 50 c 128,-1,23
 200 71 200 71 214.5 85.5 c 128,-1,16
 229 100 229 100 250 100 c 128,-1,17
EndSplineSet
EndChar

StartChar: I
Encoding: 73 73 41
Width: 0
VWidth: 1000
Flags: W
AnchorPoint: "vowel" -250 250 mark 0
LayerCount: 2
Fore
SplineSet
-250 700 m 128,-1,1
 -229 700 -229 700 -214.5 685.5 c 128,-1,2
 -200 671 -200 671 -200 650 c 128,-1,3
 -200 629 -200 629 -214.5 614.5 c 128,-1,4
 -229 600 -229 600 -250 600 c 128,-1,5
 -271 600 -271 600 -285.5 614.5 c 128,-1,6
 -300 629 -300 629 -300 650 c 128,-1,7
 -300 671 -300 671 -285.5 685.5 c 128,-1,0
 -271 700 -271 700 -250 700 c 128,-1,1
-391.421875 641.421875 m 128,-1,9
 -370.725097656 641.421875 -370.725097656 641.421875 -356.073486328 626.770263672 c 128,-1,10
 -341.421875 612.118652344 -341.421875 612.118652344 -341.421875 591.421875 c 128,-1,11
 -341.421875 570.725097656 -341.421875 570.725097656 -356.073486328 556.073486328 c 128,-1,12
 -370.725097656 541.421875 -370.725097656 541.421875 -391.421875 541.421875 c 128,-1,13
 -412.118652344 541.421875 -412.118652344 541.421875 -426.770263672 556.073486328 c 128,-1,14
 -441.421875 570.725097656 -441.421875 570.725097656 -441.421875 591.421875 c 128,-1,15
 -441.421875 612.118652344 -441.421875 612.118652344 -426.770263672 626.770263672 c 128,-1,8
 -412.118652344 641.421875 -412.118652344 641.421875 -391.421875 641.421875 c 128,-1,9
-108.578125 641.421875 m 128,-1,17
 -87.8813476562 641.421875 -87.8813476562 641.421875 -73.2297363281 626.770263672 c 128,-1,18
 -58.578125 612.118652344 -58.578125 612.118652344 -58.578125 591.421875 c 128,-1,19
 -58.578125 570.725097656 -58.578125 570.725097656 -73.2297363281 556.073486328 c 128,-1,20
 -87.8813476562 541.421875 -87.8813476562 541.421875 -108.578125 541.421875 c 128,-1,21
 -129.274902344 541.421875 -129.274902344 541.421875 -143.926513672 556.073486328 c 128,-1,22
 -158.578125 570.725097656 -158.578125 570.725097656 -158.578125 591.421875 c 128,-1,23
 -158.578125 612.118652344 -158.578125 612.118652344 -143.926513672 626.770263672 c 128,-1,16
 -129.274902344 641.421875 -129.274902344 641.421875 -108.578125 641.421875 c 128,-1,17
EndSplineSet
EndChar

StartChar: J
Encoding: 74 74 42
Width: 500
Flags: W
AnchorPoint: "vowel" 250 250 basechar 0
LayerCount: 2
Fore
SplineSet
250 500 m 128,-1,1
 271 500 271 500 285.5 485.5 c 128,-1,2
 300 471 300 471 300 450 c 128,-1,3
 300 429 300 429 285.5 414.5 c 128,-1,4
 271 400 271 400 250 400 c 128,-1,5
 229 400 229 400 214.5 414.5 c 128,-1,6
 200 429 200 429 200 450 c 128,-1,7
 200 471 200 471 214.5 485.5 c 128,-1,0
 229 500 229 500 250 500 c 128,-1,1
391.421875 441.421875 m 128,-1,9
 412.118652344 441.421875 412.118652344 441.421875 426.770263672 426.770263672 c 128,-1,10
 441.421875 412.118652344 441.421875 412.118652344 441.421875 391.421875 c 128,-1,11
 441.421875 370.725097656 441.421875 370.725097656 426.770263672 356.073486328 c 128,-1,12
 412.118652344 341.421875 412.118652344 341.421875 391.421875 341.421875 c 128,-1,13
 370.725097656 341.421875 370.725097656 341.421875 356.073486328 356.073486328 c 128,-1,14
 341.421875 370.725097656 341.421875 370.725097656 341.421875 391.421875 c 128,-1,15
 341.421875 412.118652344 341.421875 412.118652344 356.073486328 426.770263672 c 128,-1,8
 370.725097656 441.421875 370.725097656 441.421875 391.421875 441.421875 c 128,-1,9
450 300 m 128,-1,17
 471 300 471 300 485.5 285.5 c 128,-1,18
 500 271 500 271 500 250 c 128,-1,19
 500 229 500 229 485.5 214.5 c 128,-1,20
 471 200 471 200 450 200 c 128,-1,21
 429 200 429 200 414.5 214.5 c 128,-1,22
 400 229 400 229 400 250 c 128,-1,23
 400 271 400 271 414.5 285.5 c 128,-1,16
 429 300 429 300 450 300 c 128,-1,17
300 250 m 128,-1,25
 300 229 300 229 285.5 214.5 c 128,-1,26
 271 200 271 200 250 200 c 128,-1,27
 229 200 229 200 214.5 214.5 c 128,-1,28
 200 229 200 229 200 250 c 128,-1,29
 200 271 200 271 214.5 285.5 c 128,-1,30
 229 300 229 300 250 300 c 128,-1,31
 271 300 271 300 285.5 285.5 c 128,-1,24
 300 271 300 271 300 250 c 128,-1,25
250 375 m 128,-1,33
 260 375 260 375 267.5 367.5 c 128,-1,34
 275 360 275 360 275 350 c 128,-1,35
 275 340 275 340 267.5 332.5 c 128,-1,36
 260 325 260 325 250 325 c 128,-1,37
 240 325 240 325 232.5 332.5 c 128,-1,38
 225 340 225 340 225 350 c 128,-1,39
 225 360 225 360 232.5 367.5 c 128,-1,32
 240 375 240 375 250 375 c 128,-1,33
179.2890625 345.7109375 m 128,-1,41
 189.637451172 345.7109375 189.637451172 345.7109375 196.963256836 338.385131836 c 128,-1,42
 204.2890625 331.059326172 204.2890625 331.059326172 204.2890625 320.7109375 c 128,-1,43
 204.2890625 310.362548828 204.2890625 310.362548828 196.963256836 303.036743164 c 128,-1,44
 189.637451172 295.7109375 189.637451172 295.7109375 179.2890625 295.7109375 c 128,-1,45
 168.940673828 295.7109375 168.940673828 295.7109375 161.614868164 303.036743164 c 128,-1,46
 154.2890625 310.362548828 154.2890625 310.362548828 154.2890625 320.7109375 c 128,-1,47
 154.2890625 331.059326172 154.2890625 331.059326172 161.614868164 338.385131836 c 128,-1,40
 168.940673828 345.7109375 168.940673828 345.7109375 179.2890625 345.7109375 c 128,-1,41
320.7109375 345.7109375 m 128,-1,49
 331.059326172 345.7109375 331.059326172 345.7109375 338.385131836 338.385131836 c 128,-1,50
 345.7109375 331.059326172 345.7109375 331.059326172 345.7109375 320.7109375 c 128,-1,51
 345.7109375 310.362548828 345.7109375 310.362548828 338.385131836 303.036743164 c 128,-1,52
 331.059326172 295.7109375 331.059326172 295.7109375 320.7109375 295.7109375 c 128,-1,53
 310.362548828 295.7109375 310.362548828 295.7109375 303.036743164 303.036743164 c 128,-1,54
 295.7109375 310.362548828 295.7109375 310.362548828 295.7109375 320.7109375 c 128,-1,55
 295.7109375 331.059326172 295.7109375 331.059326172 303.036743164 338.385131836 c 128,-1,48
 310.362548828 345.7109375 310.362548828 345.7109375 320.7109375 345.7109375 c 128,-1,49
150 275 m 128,-1,57
 160 275 160 275 167.5 267.5 c 128,-1,58
 175 260 175 260 175 250 c 128,-1,59
 175 240 175 240 167.5 232.5 c 128,-1,60
 160 225 160 225 150 225 c 128,-1,61
 140 225 140 225 132.5 232.5 c 128,-1,62
 125 240 125 240 125 250 c 128,-1,63
 125 260 125 260 132.5 267.5 c 128,-1,56
 140 275 140 275 150 275 c 128,-1,57
350 275 m 128,-1,65
 360 275 360 275 367.5 267.5 c 128,-1,66
 375 260 375 260 375 250 c 128,-1,67
 375 240 375 240 367.5 232.5 c 128,-1,68
 360 225 360 225 350 225 c 128,-1,69
 340 225 340 225 332.5 232.5 c 128,-1,70
 325 240 325 240 325 250 c 128,-1,71
 325 260 325 260 332.5 267.5 c 128,-1,64
 340 275 340 275 350 275 c 128,-1,65
179.2890625 204.2890625 m 128,-1,73
 189.637451172 204.2890625 189.637451172 204.2890625 196.963256836 196.963256836 c 128,-1,74
 204.2890625 189.637451172 204.2890625 189.637451172 204.2890625 179.2890625 c 128,-1,75
 204.2890625 168.940673828 204.2890625 168.940673828 196.963256836 161.614868164 c 128,-1,76
 189.637451172 154.2890625 189.637451172 154.2890625 179.2890625 154.2890625 c 128,-1,77
 168.940673828 154.2890625 168.940673828 154.2890625 161.614868164 161.614868164 c 128,-1,78
 154.2890625 168.940673828 154.2890625 168.940673828 154.2890625 179.2890625 c 128,-1,79
 154.2890625 189.637451172 154.2890625 189.637451172 161.614868164 196.963256836 c 128,-1,72
 168.940673828 204.2890625 168.940673828 204.2890625 179.2890625 204.2890625 c 128,-1,73
320.7109375 204.2890625 m 128,-1,81
 331.059326172 204.2890625 331.059326172 204.2890625 338.385131836 196.963256836 c 128,-1,82
 345.7109375 189.637451172 345.7109375 189.637451172 345.7109375 179.2890625 c 128,-1,83
 345.7109375 168.940673828 345.7109375 168.940673828 338.385131836 161.614868164 c 128,-1,84
 331.059326172 154.2890625 331.059326172 154.2890625 320.7109375 154.2890625 c 128,-1,85
 310.362548828 154.2890625 310.362548828 154.2890625 303.036743164 161.614868164 c 128,-1,86
 295.7109375 168.940673828 295.7109375 168.940673828 295.7109375 179.2890625 c 128,-1,87
 295.7109375 189.637451172 295.7109375 189.637451172 303.036743164 196.963256836 c 128,-1,80
 310.362548828 204.2890625 310.362548828 204.2890625 320.7109375 204.2890625 c 128,-1,81
250 175 m 128,-1,89
 260 175 260 175 267.5 167.5 c 128,-1,90
 275 160 275 160 275 150 c 128,-1,91
 275 140 275 140 267.5 132.5 c 128,-1,92
 260 125 260 125 250 125 c 128,-1,93
 240 125 240 125 232.5 132.5 c 128,-1,94
 225 140 225 140 225 150 c 128,-1,95
 225 160 225 160 232.5 167.5 c 128,-1,88
 240 175 240 175 250 175 c 128,-1,89
EndSplineSet
EndChar

StartChar: K
Encoding: 75 75 43
Width: 500
Flags: W
AnchorPoint: "vowel" 250 250 basechar 0
LayerCount: 2
Fore
SplineSet
250 500 m 128,-1,1
 271 500 271 500 285.5 485.5 c 128,-1,2
 300 471 300 471 300 450 c 128,-1,3
 300 429 300 429 285.5 414.5 c 128,-1,4
 271 400 271 400 250 400 c 128,-1,5
 229 400 229 400 214.5 414.5 c 128,-1,6
 200 429 200 429 200 450 c 128,-1,7
 200 471 200 471 214.5 485.5 c 128,-1,0
 229 500 229 500 250 500 c 128,-1,1
108.578125 441.421875 m 128,-1,9
 129.274902344 441.421875 129.274902344 441.421875 143.926513672 426.770263672 c 128,-1,10
 158.578125 412.118652344 158.578125 412.118652344 158.578125 391.421875 c 128,-1,11
 158.578125 370.725097656 158.578125 370.725097656 143.926513672 356.073486328 c 128,-1,12
 129.274902344 341.421875 129.274902344 341.421875 108.578125 341.421875 c 128,-1,13
 87.8813476562 341.421875 87.8813476562 341.421875 73.2297363281 356.073486328 c 128,-1,14
 58.578125 370.725097656 58.578125 370.725097656 58.578125 391.421875 c 128,-1,15
 58.578125 412.118652344 58.578125 412.118652344 73.2297363281 426.770263672 c 128,-1,8
 87.8813476562 441.421875 87.8813476562 441.421875 108.578125 441.421875 c 128,-1,9
50 300 m 128,-1,17
 71 300 71 300 85.5 285.5 c 128,-1,18
 100 271 100 271 100 250 c 128,-1,19
 100 229 100 229 85.5 214.5 c 128,-1,20
 71 200 71 200 50 200 c 128,-1,21
 29 200 29 200 14.5 214.5 c 128,-1,22
 0 229 0 229 0 250 c 128,-1,23
 0 271 0 271 14.5 285.5 c 128,-1,16
 29 300 29 300 50 300 c 128,-1,17
EndSplineSet
EndChar

StartChar: L
Encoding: 76 76 44
Width: 500
Flags: W
AnchorPoint: "vowel" 250 250 basechar 0
LayerCount: 2
Fore
SplineSet
250 500 m 128,-1,1
 271 500 271 500 285.5 485.5 c 128,-1,2
 300 471 300 471 300 450 c 128,-1,3
 300 429 300 429 285.5 414.5 c 128,-1,4
 271 400 271 400 250 400 c 128,-1,5
 229 400 229 400 214.5 414.5 c 128,-1,6
 200 429 200 429 200 450 c 128,-1,7
 200 471 200 471 214.5 485.5 c 128,-1,0
 229 500 229 500 250 500 c 128,-1,1
108.578125 441.421875 m 128,-1,9
 129.274902344 441.421875 129.274902344 441.421875 143.926513672 426.770263672 c 128,-1,10
 158.578125 412.118652344 158.578125 412.118652344 158.578125 391.421875 c 128,-1,11
 158.578125 370.725097656 158.578125 370.725097656 143.926513672 356.073486328 c 128,-1,12
 129.274902344 341.421875 129.274902344 341.421875 108.578125 341.421875 c 128,-1,13
 87.8813476562 341.421875 87.8813476562 341.421875 73.2297363281 356.073486328 c 128,-1,14
 58.578125 370.725097656 58.578125 370.725097656 58.578125 391.421875 c 128,-1,15
 58.578125 412.118652344 58.578125 412.118652344 73.2297363281 426.770263672 c 128,-1,8
 87.8813476562 441.421875 87.8813476562 441.421875 108.578125 441.421875 c 128,-1,9
391.421875 441.421875 m 128,-1,17
 412.118652344 441.421875 412.118652344 441.421875 426.770263672 426.770263672 c 128,-1,18
 441.421875 412.118652344 441.421875 412.118652344 441.421875 391.421875 c 128,-1,19
 441.421875 370.725097656 441.421875 370.725097656 426.770263672 356.073486328 c 128,-1,20
 412.118652344 341.421875 412.118652344 341.421875 391.421875 341.421875 c 128,-1,21
 370.725097656 341.421875 370.725097656 341.421875 356.073486328 356.073486328 c 128,-1,22
 341.421875 370.725097656 341.421875 370.725097656 341.421875 391.421875 c 128,-1,23
 341.421875 412.118652344 341.421875 412.118652344 356.073486328 426.770263672 c 128,-1,16
 370.725097656 441.421875 370.725097656 441.421875 391.421875 441.421875 c 128,-1,17
50 300 m 128,-1,25
 71 300 71 300 85.5 285.5 c 128,-1,26
 100 271 100 271 100 250 c 128,-1,27
 100 229 100 229 85.5 214.5 c 128,-1,28
 71 200 71 200 50 200 c 128,-1,29
 29 200 29 200 14.5 214.5 c 128,-1,30
 0 229 0 229 0 250 c 128,-1,31
 0 271 0 271 14.5 285.5 c 128,-1,24
 29 300 29 300 50 300 c 128,-1,25
450 300 m 128,-1,33
 471 300 471 300 485.5 285.5 c 128,-1,34
 500 271 500 271 500 250 c 128,-1,35
 500 229 500 229 485.5 214.5 c 128,-1,36
 471 200 471 200 450 200 c 128,-1,37
 429 200 429 200 414.5 214.5 c 128,-1,38
 400 229 400 229 400 250 c 128,-1,39
 400 271 400 271 414.5 285.5 c 128,-1,32
 429 300 429 300 450 300 c 128,-1,33
108.578125 158.578125 m 128,-1,41
 129.274902344 158.578125 129.274902344 158.578125 143.926513672 143.926513672 c 128,-1,42
 158.578125 129.274902344 158.578125 129.274902344 158.578125 108.578125 c 128,-1,43
 158.578125 87.8813476562 158.578125 87.8813476562 143.926513672 73.2297363281 c 128,-1,44
 129.274902344 58.578125 129.274902344 58.578125 108.578125 58.578125 c 128,-1,45
 87.8813476562 58.578125 87.8813476562 58.578125 73.2297363281 73.2297363281 c 128,-1,46
 58.578125 87.8813476562 58.578125 87.8813476562 58.578125 108.578125 c 128,-1,47
 58.578125 129.274902344 58.578125 129.274902344 73.2297363281 143.926513672 c 128,-1,40
 87.8813476562 158.578125 87.8813476562 158.578125 108.578125 158.578125 c 128,-1,41
391.421875 158.578125 m 128,-1,49
 412.118652344 158.578125 412.118652344 158.578125 426.770263672 143.926513672 c 128,-1,50
 441.421875 129.274902344 441.421875 129.274902344 441.421875 108.578125 c 128,-1,51
 441.421875 87.8813476562 441.421875 87.8813476562 426.770263672 73.2297363281 c 128,-1,52
 412.118652344 58.578125 412.118652344 58.578125 391.421875 58.578125 c 128,-1,53
 370.725097656 58.578125 370.725097656 58.578125 356.073486328 73.2297363281 c 128,-1,54
 341.421875 87.8813476562 341.421875 87.8813476562 341.421875 108.578125 c 128,-1,55
 341.421875 129.274902344 341.421875 129.274902344 356.073486328 143.926513672 c 128,-1,48
 370.725097656 158.578125 370.725097656 158.578125 391.421875 158.578125 c 128,-1,49
250 100 m 128,-1,57
 271 100 271 100 285.5 85.5 c 128,-1,58
 300 71 300 71 300 50 c 128,-1,59
 300 29 300 29 285.5 14.5 c 128,-1,60
 271 0 271 0 250 0 c 128,-1,61
 229 0 229 0 214.5 14.5 c 128,-1,62
 200 29 200 29 200 50 c 128,-1,63
 200 71 200 71 214.5 85.5 c 128,-1,56
 229 100 229 100 250 100 c 128,-1,57
400 250 m 128,-1,65
 400 188 400 188 356 144 c 128,-1,66
 312 100 312 100 250 100 c 128,-1,67
 188 100 188 100 144 144 c 128,-1,68
 100 188 100 188 100 250 c 128,-1,69
 100 312 100 312 144 356 c 128,-1,70
 188 400 188 400 250 400 c 128,-1,71
 312 400 312 400 356 356 c 128,-1,64
 400 312 400 312 400 250 c 128,-1,65
EndSplineSet
EndChar

StartChar: M
Encoding: 77 77 45
Width: 500
Flags: W
AnchorPoint: "vowel" 250 250 basechar 0
LayerCount: 2
Fore
SplineSet
450 300 m 128,-1,1
 471 300 471 300 485.5 285.5 c 128,-1,2
 500 271 500 271 500 250 c 128,-1,3
 500 229 500 229 485.5 214.5 c 128,-1,4
 471 200 471 200 450 200 c 128,-1,5
 429 200 429 200 414.5 214.5 c 128,-1,6
 400 229 400 229 400 250 c 128,-1,7
 400 271 400 271 414.5 285.5 c 128,-1,0
 429 300 429 300 450 300 c 128,-1,1
391.421875 158.578125 m 128,-1,9
 412.118652344 158.578125 412.118652344 158.578125 426.770263672 143.926513672 c 128,-1,10
 441.421875 129.274902344 441.421875 129.274902344 441.421875 108.578125 c 128,-1,11
 441.421875 87.8813476562 441.421875 87.8813476562 426.770263672 73.2297363281 c 128,-1,12
 412.118652344 58.578125 412.118652344 58.578125 391.421875 58.578125 c 128,-1,13
 370.725097656 58.578125 370.725097656 58.578125 356.073486328 73.2297363281 c 128,-1,14
 341.421875 87.8813476562 341.421875 87.8813476562 341.421875 108.578125 c 128,-1,15
 341.421875 129.274902344 341.421875 129.274902344 356.073486328 143.926513672 c 128,-1,8
 370.725097656 158.578125 370.725097656 158.578125 391.421875 158.578125 c 128,-1,9
250 100 m 128,-1,17
 271 100 271 100 285.5 85.5 c 128,-1,18
 300 71 300 71 300 50 c 128,-1,19
 300 29 300 29 285.5 14.5 c 128,-1,20
 271 0 271 0 250 0 c 128,-1,21
 229 0 229 0 214.5 14.5 c 128,-1,22
 200 29 200 29 200 50 c 128,-1,23
 200 71 200 71 214.5 85.5 c 128,-1,16
 229 100 229 100 250 100 c 128,-1,17
EndSplineSet
EndChar

StartChar: N
Encoding: 78 78 46
Width: 500
Flags: W
AnchorPoint: "vowel" 250 250 basechar 0
LayerCount: 2
Fore
SplineSet
450 300 m 128,-1,1
 471 300 471 300 485.5 285.5 c 128,-1,2
 500 271 500 271 500 250 c 128,-1,3
 500 229 500 229 485.5 214.5 c 128,-1,4
 471 200 471 200 450 200 c 128,-1,5
 429 200 429 200 414.5 214.5 c 128,-1,6
 400 229 400 229 400 250 c 128,-1,7
 400 271 400 271 414.5 285.5 c 128,-1,0
 429 300 429 300 450 300 c 128,-1,1
391.421875 158.578125 m 128,-1,9
 412.118652344 158.578125 412.118652344 158.578125 426.770263672 143.926513672 c 128,-1,10
 441.421875 129.274902344 441.421875 129.274902344 441.421875 108.578125 c 128,-1,11
 441.421875 87.8813476562 441.421875 87.8813476562 426.770263672 73.2297363281 c 128,-1,12
 412.118652344 58.578125 412.118652344 58.578125 391.421875 58.578125 c 128,-1,13
 370.725097656 58.578125 370.725097656 58.578125 356.073486328 73.2297363281 c 128,-1,14
 341.421875 87.8813476562 341.421875 87.8813476562 341.421875 108.578125 c 128,-1,15
 341.421875 129.274902344 341.421875 129.274902344 356.073486328 143.926513672 c 128,-1,8
 370.725097656 158.578125 370.725097656 158.578125 391.421875 158.578125 c 128,-1,9
250 100 m 128,-1,17
 271 100 271 100 285.5 85.5 c 128,-1,18
 300 71 300 71 300 50 c 128,-1,19
 300 29 300 29 285.5 14.5 c 128,-1,20
 271 0 271 0 250 0 c 128,-1,21
 229 0 229 0 214.5 14.5 c 128,-1,22
 200 29 200 29 200 50 c 128,-1,23
 200 71 200 71 214.5 85.5 c 128,-1,16
 229 100 229 100 250 100 c 128,-1,17
400 250 m 128,-1,25
 400 188 400 188 356 144 c 128,-1,26
 312 100 312 100 250 100 c 128,-1,27
 188 100 188 100 144 144 c 128,-1,28
 100 188 100 188 100 250 c 128,-1,29
 100 312 100 312 144 356 c 128,-1,30
 188 400 188 400 250 400 c 128,-1,31
 312 400 312 400 356 356 c 128,-1,24
 400 312 400 312 400 250 c 128,-1,25
EndSplineSet
EndChar

StartChar: O
Encoding: 79 79 47
Width: 0
VWidth: 1000
Flags: W
AnchorPoint: "vowel" -250 250 mark 0
LayerCount: 2
Fore
SplineSet
-250 0 m 128,-1,1
 -229 0 -229 0 -214.5 -14.5 c 128,-1,2
 -200 -29 -200 -29 -200 -50 c 128,-1,3
 -200 -71 -200 -71 -214.5 -85.5 c 128,-1,4
 -229 -100 -229 -100 -250 -100 c 128,-1,5
 -271 -100 -271 -100 -285.5 -85.5 c 128,-1,6
 -300 -71 -300 -71 -300 -50 c 128,-1,7
 -300 -29 -300 -29 -285.5 -14.5 c 128,-1,0
 -271 0 -271 0 -250 0 c 128,-1,1
-250 -100 m 128,-1,9
 -229 -100 -229 -100 -214.5 -114.5 c 128,-1,10
 -200 -129 -200 -129 -200 -150 c 128,-1,11
 -200 -171 -200 -171 -214.5 -185.5 c 128,-1,12
 -229 -200 -229 -200 -250 -200 c 128,-1,13
 -271 -200 -271 -200 -285.5 -185.5 c 128,-1,14
 -300 -171 -300 -171 -300 -150 c 128,-1,15
 -300 -129 -300 -129 -285.5 -114.5 c 128,-1,8
 -271 -100 -271 -100 -250 -100 c 128,-1,9
-391.421875 -41.421875 m 128,-1,17
 -370.725097656 -41.421875 -370.725097656 -41.421875 -356.073486328 -56.0734863281 c 128,-1,18
 -341.421875 -70.7250976562 -341.421875 -70.7250976562 -341.421875 -91.421875 c 128,-1,19
 -341.421875 -112.118652344 -341.421875 -112.118652344 -356.073486328 -126.770263672 c 128,-1,20
 -370.725097656 -141.421875 -370.725097656 -141.421875 -391.421875 -141.421875 c 128,-1,21
 -412.118652344 -141.421875 -412.118652344 -141.421875 -426.770263672 -126.770263672 c 128,-1,22
 -441.421875 -112.118652344 -441.421875 -112.118652344 -441.421875 -91.421875 c 128,-1,23
 -441.421875 -70.7250976562 -441.421875 -70.7250976562 -426.770263672 -56.0734863281 c 128,-1,16
 -412.118652344 -41.421875 -412.118652344 -41.421875 -391.421875 -41.421875 c 128,-1,17
-108.578125 -41.421875 m 128,-1,25
 -87.8813476562 -41.421875 -87.8813476562 -41.421875 -73.2297363281 -56.0734863281 c 128,-1,26
 -58.578125 -70.7250976562 -58.578125 -70.7250976562 -58.578125 -91.421875 c 128,-1,27
 -58.578125 -112.118652344 -58.578125 -112.118652344 -73.2297363281 -126.770263672 c 128,-1,28
 -87.8813476562 -141.421875 -87.8813476562 -141.421875 -108.578125 -141.421875 c 128,-1,29
 -129.274902344 -141.421875 -129.274902344 -141.421875 -143.926513672 -126.770263672 c 128,-1,30
 -158.578125 -112.118652344 -158.578125 -112.118652344 -158.578125 -91.421875 c 128,-1,31
 -158.578125 -70.7250976562 -158.578125 -70.7250976562 -143.926513672 -56.0734863281 c 128,-1,24
 -129.274902344 -41.421875 -129.274902344 -41.421875 -108.578125 -41.421875 c 128,-1,25
EndSplineSet
EndChar

StartChar: P
Encoding: 80 80 48
Width: 500
Flags: W
AnchorPoint: "vowel" 250 250 basechar 0
LayerCount: 2
Fore
SplineSet
391.421875 441.421875 m 128,-1,1
 412.118652344 441.421875 412.118652344 441.421875 426.770263672 426.770263672 c 128,-1,2
 441.421875 412.118652344 441.421875 412.118652344 441.421875 391.421875 c 128,-1,3
 441.421875 370.725097656 441.421875 370.725097656 426.770263672 356.073486328 c 128,-1,4
 412.118652344 341.421875 412.118652344 341.421875 391.421875 341.421875 c 128,-1,5
 370.725097656 341.421875 370.725097656 341.421875 356.073486328 356.073486328 c 128,-1,6
 341.421875 370.725097656 341.421875 370.725097656 341.421875 391.421875 c 128,-1,7
 341.421875 412.118652344 341.421875 412.118652344 356.073486328 426.770263672 c 128,-1,0
 370.725097656 441.421875 370.725097656 441.421875 391.421875 441.421875 c 128,-1,1
450 300 m 128,-1,9
 471 300 471 300 485.5 285.5 c 128,-1,10
 500 271 500 271 500 250 c 128,-1,11
 500 229 500 229 485.5 214.5 c 128,-1,12
 471 200 471 200 450 200 c 128,-1,13
 429 200 429 200 414.5 214.5 c 128,-1,14
 400 229 400 229 400 250 c 128,-1,15
 400 271 400 271 414.5 285.5 c 128,-1,8
 429 300 429 300 450 300 c 128,-1,9
391.421875 158.578125 m 128,-1,17
 412.118652344 158.578125 412.118652344 158.578125 426.770263672 143.926513672 c 128,-1,18
 441.421875 129.274902344 441.421875 129.274902344 441.421875 108.578125 c 128,-1,19
 441.421875 87.8813476562 441.421875 87.8813476562 426.770263672 73.2297363281 c 128,-1,20
 412.118652344 58.578125 412.118652344 58.578125 391.421875 58.578125 c 128,-1,21
 370.725097656 58.578125 370.725097656 58.578125 356.073486328 73.2297363281 c 128,-1,22
 341.421875 87.8813476562 341.421875 87.8813476562 341.421875 108.578125 c 128,-1,23
 341.421875 129.274902344 341.421875 129.274902344 356.073486328 143.926513672 c 128,-1,16
 370.725097656 158.578125 370.725097656 158.578125 391.421875 158.578125 c 128,-1,17
EndSplineSet
EndChar

StartChar: Q
Encoding: 81 81 49
Width: 500
Flags: W
AnchorPoint: "vowel" 250 250 basechar 0
LayerCount: 2
Fore
SplineSet
108.578125 441.421875 m 128,-1,1
 129.274902344 441.421875 129.274902344 441.421875 143.926513672 426.770263672 c 128,-1,2
 158.578125 412.118652344 158.578125 412.118652344 158.578125 391.421875 c 128,-1,3
 158.578125 370.725097656 158.578125 370.725097656 143.926513672 356.073486328 c 128,-1,4
 129.274902344 341.421875 129.274902344 341.421875 108.578125 341.421875 c 128,-1,5
 87.8813476562 341.421875 87.8813476562 341.421875 73.2297363281 356.073486328 c 128,-1,6
 58.578125 370.725097656 58.578125 370.725097656 58.578125 391.421875 c 128,-1,7
 58.578125 412.118652344 58.578125 412.118652344 73.2297363281 426.770263672 c 128,-1,0
 87.8813476562 441.421875 87.8813476562 441.421875 108.578125 441.421875 c 128,-1,1
50 300 m 128,-1,9
 71 300 71 300 85.5 285.5 c 128,-1,10
 100 271 100 271 100 250 c 128,-1,11
 100 229 100 229 85.5 214.5 c 128,-1,12
 71 200 71 200 50 200 c 128,-1,13
 29 200 29 200 14.5 214.5 c 128,-1,14
 0 229 0 229 0 250 c 128,-1,15
 0 271 0 271 14.5 285.5 c 128,-1,8
 29 300 29 300 50 300 c 128,-1,9
108.578125 158.578125 m 128,-1,17
 129.274902344 158.578125 129.274902344 158.578125 143.926513672 143.926513672 c 128,-1,18
 158.578125 129.274902344 158.578125 129.274902344 158.578125 108.578125 c 128,-1,19
 158.578125 87.8813476562 158.578125 87.8813476562 143.926513672 73.2297363281 c 128,-1,20
 129.274902344 58.578125 129.274902344 58.578125 108.578125 58.578125 c 128,-1,21
 87.8813476562 58.578125 87.8813476562 58.578125 73.2297363281 73.2297363281 c 128,-1,22
 58.578125 87.8813476562 58.578125 87.8813476562 58.578125 108.578125 c 128,-1,23
 58.578125 129.274902344 58.578125 129.274902344 73.2297363281 143.926513672 c 128,-1,16
 87.8813476562 158.578125 87.8813476562 158.578125 108.578125 158.578125 c 128,-1,17
EndSplineSet
EndChar

StartChar: R
Encoding: 82 82 50
Width: 500
Flags: W
AnchorPoint: "vowel" 250 250 basechar 0
LayerCount: 2
Fore
SplineSet
250 500 m 128,-1,1
 271 500 271 500 285.5 485.5 c 128,-1,2
 300 471 300 471 300 450 c 128,-1,3
 300 429 300 429 285.5 414.5 c 128,-1,4
 271 400 271 400 250 400 c 128,-1,5
 229 400 229 400 214.5 414.5 c 128,-1,6
 200 429 200 429 200 450 c 128,-1,7
 200 471 200 471 214.5 485.5 c 128,-1,0
 229 500 229 500 250 500 c 128,-1,1
108.578125 441.421875 m 128,-1,9
 129.274902344 441.421875 129.274902344 441.421875 143.926513672 426.770263672 c 128,-1,10
 158.578125 412.118652344 158.578125 412.118652344 158.578125 391.421875 c 128,-1,11
 158.578125 370.725097656 158.578125 370.725097656 143.926513672 356.073486328 c 128,-1,12
 129.274902344 341.421875 129.274902344 341.421875 108.578125 341.421875 c 128,-1,13
 87.8813476562 341.421875 87.8813476562 341.421875 73.2297363281 356.073486328 c 128,-1,14
 58.578125 370.725097656 58.578125 370.725097656 58.578125 391.421875 c 128,-1,15
 58.578125 412.118652344 58.578125 412.118652344 73.2297363281 426.770263672 c 128,-1,8
 87.8813476562 441.421875 87.8813476562 441.421875 108.578125 441.421875 c 128,-1,9
391.421875 441.421875 m 128,-1,17
 412.118652344 441.421875 412.118652344 441.421875 426.770263672 426.770263672 c 128,-1,18
 441.421875 412.118652344 441.421875 412.118652344 441.421875 391.421875 c 128,-1,19
 441.421875 370.725097656 441.421875 370.725097656 426.770263672 356.073486328 c 128,-1,20
 412.118652344 341.421875 412.118652344 341.421875 391.421875 341.421875 c 128,-1,21
 370.725097656 341.421875 370.725097656 341.421875 356.073486328 356.073486328 c 128,-1,22
 341.421875 370.725097656 341.421875 370.725097656 341.421875 391.421875 c 128,-1,23
 341.421875 412.118652344 341.421875 412.118652344 356.073486328 426.770263672 c 128,-1,16
 370.725097656 441.421875 370.725097656 441.421875 391.421875 441.421875 c 128,-1,17
50 300 m 128,-1,25
 71 300 71 300 85.5 285.5 c 128,-1,26
 100 271 100 271 100 250 c 128,-1,27
 100 229 100 229 85.5 214.5 c 128,-1,28
 71 200 71 200 50 200 c 128,-1,29
 29 200 29 200 14.5 214.5 c 128,-1,30
 0 229 0 229 0 250 c 128,-1,31
 0 271 0 271 14.5 285.5 c 128,-1,24
 29 300 29 300 50 300 c 128,-1,25
450 300 m 128,-1,33
 471 300 471 300 485.5 285.5 c 128,-1,34
 500 271 500 271 500 250 c 128,-1,35
 500 229 500 229 485.5 214.5 c 128,-1,36
 471 200 471 200 450 200 c 128,-1,37
 429 200 429 200 414.5 214.5 c 128,-1,38
 400 229 400 229 400 250 c 128,-1,39
 400 271 400 271 414.5 285.5 c 128,-1,32
 429 300 429 300 450 300 c 128,-1,33
108.578125 158.578125 m 128,-1,41
 129.274902344 158.578125 129.274902344 158.578125 143.926513672 143.926513672 c 128,-1,42
 158.578125 129.274902344 158.578125 129.274902344 158.578125 108.578125 c 128,-1,43
 158.578125 87.8813476562 158.578125 87.8813476562 143.926513672 73.2297363281 c 128,-1,44
 129.274902344 58.578125 129.274902344 58.578125 108.578125 58.578125 c 128,-1,45
 87.8813476562 58.578125 87.8813476562 58.578125 73.2297363281 73.2297363281 c 128,-1,46
 58.578125 87.8813476562 58.578125 87.8813476562 58.578125 108.578125 c 128,-1,47
 58.578125 129.274902344 58.578125 129.274902344 73.2297363281 143.926513672 c 128,-1,40
 87.8813476562 158.578125 87.8813476562 158.578125 108.578125 158.578125 c 128,-1,41
391.421875 158.578125 m 128,-1,49
 412.118652344 158.578125 412.118652344 158.578125 426.770263672 143.926513672 c 128,-1,50
 441.421875 129.274902344 441.421875 129.274902344 441.421875 108.578125 c 128,-1,51
 441.421875 87.8813476562 441.421875 87.8813476562 426.770263672 73.2297363281 c 128,-1,52
 412.118652344 58.578125 412.118652344 58.578125 391.421875 58.578125 c 128,-1,53
 370.725097656 58.578125 370.725097656 58.578125 356.073486328 73.2297363281 c 128,-1,54
 341.421875 87.8813476562 341.421875 87.8813476562 341.421875 108.578125 c 128,-1,55
 341.421875 129.274902344 341.421875 129.274902344 356.073486328 143.926513672 c 128,-1,48
 370.725097656 158.578125 370.725097656 158.578125 391.421875 158.578125 c 128,-1,49
250 100 m 128,-1,57
 271 100 271 100 285.5 85.5 c 128,-1,58
 300 71 300 71 300 50 c 128,-1,59
 300 29 300 29 285.5 14.5 c 128,-1,60
 271 0 271 0 250 0 c 128,-1,61
 229 0 229 0 214.5 14.5 c 128,-1,62
 200 29 200 29 200 50 c 128,-1,63
 200 71 200 71 214.5 85.5 c 128,-1,56
 229 100 229 100 250 100 c 128,-1,57
EndSplineSet
EndChar

StartChar: S
Encoding: 83 83 51
Width: 500
Flags: W
AnchorPoint: "vowel" 250 250 basechar 0
LayerCount: 2
Fore
SplineSet
250 500 m 128,-1,1
 271 500 271 500 285.5 485.5 c 128,-1,2
 300 471 300 471 300 450 c 128,-1,3
 300 429 300 429 285.5 414.5 c 128,-1,4
 271 400 271 400 250 400 c 128,-1,5
 229 400 229 400 214.5 414.5 c 128,-1,6
 200 429 200 429 200 450 c 128,-1,7
 200 471 200 471 214.5 485.5 c 128,-1,0
 229 500 229 500 250 500 c 128,-1,1
391.421875 441.421875 m 128,-1,9
 412.118652344 441.421875 412.118652344 441.421875 426.770263672 426.770263672 c 128,-1,10
 441.421875 412.118652344 441.421875 412.118652344 441.421875 391.421875 c 128,-1,11
 441.421875 370.725097656 441.421875 370.725097656 426.770263672 356.073486328 c 128,-1,12
 412.118652344 341.421875 412.118652344 341.421875 391.421875 341.421875 c 128,-1,13
 370.725097656 341.421875 370.725097656 341.421875 356.073486328 356.073486328 c 128,-1,14
 341.421875 370.725097656 341.421875 370.725097656 341.421875 391.421875 c 128,-1,15
 341.421875 412.118652344 341.421875 412.118652344 356.073486328 426.770263672 c 128,-1,8
 370.725097656 441.421875 370.725097656 441.421875 391.421875 441.421875 c 128,-1,9
450 300 m 128,-1,17
 471 300 471 300 485.5 285.5 c 128,-1,18
 500 271 500 271 500 250 c 128,-1,19
 500 229 500 229 485.5 214.5 c 128,-1,20
 471 200 471 200 450 200 c 128,-1,21
 429 200 429 200 414.5 214.5 c 128,-1,22
 400 229 400 229 400 250 c 128,-1,23
 400 271 400 271 414.5 285.5 c 128,-1,16
 429 300 429 300 450 300 c 128,-1,17
EndSplineSet
EndChar

StartChar: T
Encoding: 84 84 52
Width: 500
Flags: W
AnchorPoint: "vowel" 250 250 basechar 0
LayerCount: 2
Fore
SplineSet
250 500 m 128,-1,1
 271 500 271 500 285.5 485.5 c 128,-1,2
 300 471 300 471 300 450 c 128,-1,3
 300 429 300 429 285.5 414.5 c 128,-1,4
 271 400 271 400 250 400 c 128,-1,5
 229 400 229 400 214.5 414.5 c 128,-1,6
 200 429 200 429 200 450 c 128,-1,7
 200 471 200 471 214.5 485.5 c 128,-1,0
 229 500 229 500 250 500 c 128,-1,1
108.578125 441.421875 m 128,-1,9
 129.274902344 441.421875 129.274902344 441.421875 143.926513672 426.770263672 c 128,-1,10
 158.578125 412.118652344 158.578125 412.118652344 158.578125 391.421875 c 128,-1,11
 158.578125 370.725097656 158.578125 370.725097656 143.926513672 356.073486328 c 128,-1,12
 129.274902344 341.421875 129.274902344 341.421875 108.578125 341.421875 c 128,-1,13
 87.8813476562 341.421875 87.8813476562 341.421875 73.2297363281 356.073486328 c 128,-1,14
 58.578125 370.725097656 58.578125 370.725097656 58.578125 391.421875 c 128,-1,15
 58.578125 412.118652344 58.578125 412.118652344 73.2297363281 426.770263672 c 128,-1,8
 87.8813476562 441.421875 87.8813476562 441.421875 108.578125 441.421875 c 128,-1,9
391.421875 441.421875 m 128,-1,17
 412.118652344 441.421875 412.118652344 441.421875 426.770263672 426.770263672 c 128,-1,18
 441.421875 412.118652344 441.421875 412.118652344 441.421875 391.421875 c 128,-1,19
 441.421875 370.725097656 441.421875 370.725097656 426.770263672 356.073486328 c 128,-1,20
 412.118652344 341.421875 412.118652344 341.421875 391.421875 341.421875 c 128,-1,21
 370.725097656 341.421875 370.725097656 341.421875 356.073486328 356.073486328 c 128,-1,22
 341.421875 370.725097656 341.421875 370.725097656 341.421875 391.421875 c 128,-1,23
 341.421875 412.118652344 341.421875 412.118652344 356.073486328 426.770263672 c 128,-1,16
 370.725097656 441.421875 370.725097656 441.421875 391.421875 441.421875 c 128,-1,17
EndSplineSet
EndChar

StartChar: U
Encoding: 85 85 53
Width: 0
VWidth: 1000
Flags: W
AnchorPoint: "vowel" -250 250 mark 0
LayerCount: 2
Fore
SplineSet
-200 -50 m 128,-1,1
 -200 -71 -200 -71 -214.5 -85.5 c 128,-1,2
 -229 -100 -229 -100 -250 -100 c 128,-1,3
 -271 -100 -271 -100 -285.5 -85.5 c 128,-1,4
 -300 -71 -300 -71 -300 -50 c 128,-1,5
 -300 -29 -300 -29 -285.5 -14.5 c 128,-1,6
 -271 0 -271 0 -250 0 c 128,-1,7
 -229 0 -229 0 -214.5 -14.5 c 128,-1,0
 -200 -29 -200 -29 -200 -50 c 128,-1,1
EndSplineSet
EndChar

StartChar: V
Encoding: 86 86 54
Width: 500
Flags: W
AnchorPoint: "vowel" 250 250 basechar 0
LayerCount: 2
Fore
SplineSet
108.578125 158.578125 m 128,-1,1
 129.274902344 158.578125 129.274902344 158.578125 143.926513672 143.926513672 c 128,-1,2
 158.578125 129.274902344 158.578125 129.274902344 158.578125 108.578125 c 128,-1,3
 158.578125 87.8813476562 158.578125 87.8813476562 143.926513672 73.2297363281 c 128,-1,4
 129.274902344 58.578125 129.274902344 58.578125 108.578125 58.578125 c 128,-1,5
 87.8813476562 58.578125 87.8813476562 58.578125 73.2297363281 73.2297363281 c 128,-1,6
 58.578125 87.8813476562 58.578125 87.8813476562 58.578125 108.578125 c 128,-1,7
 58.578125 129.274902344 58.578125 129.274902344 73.2297363281 143.926513672 c 128,-1,0
 87.8813476562 158.578125 87.8813476562 158.578125 108.578125 158.578125 c 128,-1,1
391.421875 158.578125 m 128,-1,9
 412.118652344 158.578125 412.118652344 158.578125 426.770263672 143.926513672 c 128,-1,10
 441.421875 129.274902344 441.421875 129.274902344 441.421875 108.578125 c 128,-1,11
 441.421875 87.8813476562 441.421875 87.8813476562 426.770263672 73.2297363281 c 128,-1,12
 412.118652344 58.578125 412.118652344 58.578125 391.421875 58.578125 c 128,-1,13
 370.725097656 58.578125 370.725097656 58.578125 356.073486328 73.2297363281 c 128,-1,14
 341.421875 87.8813476562 341.421875 87.8813476562 341.421875 108.578125 c 128,-1,15
 341.421875 129.274902344 341.421875 129.274902344 356.073486328 143.926513672 c 128,-1,8
 370.725097656 158.578125 370.725097656 158.578125 391.421875 158.578125 c 128,-1,9
250 100 m 128,-1,17
 271 100 271 100 285.5 85.5 c 128,-1,18
 300 71 300 71 300 50 c 128,-1,19
 300 29 300 29 285.5 14.5 c 128,-1,20
 271 0 271 0 250 0 c 128,-1,21
 229 0 229 0 214.5 14.5 c 128,-1,22
 200 29 200 29 200 50 c 128,-1,23
 200 71 200 71 214.5 85.5 c 128,-1,16
 229 100 229 100 250 100 c 128,-1,17
400 250 m 128,-1,25
 400 188 400 188 356 144 c 128,-1,26
 312 100 312 100 250 100 c 128,-1,27
 188 100 188 100 144 144 c 128,-1,28
 100 188 100 188 100 250 c 128,-1,29
 100 312 100 312 144 356 c 128,-1,30
 188 400 188 400 250 400 c 128,-1,31
 312 400 312 400 356 356 c 128,-1,24
 400 312 400 312 400 250 c 128,-1,25
EndSplineSet
EndChar

StartChar: W
Encoding: 87 87 55
Width: 0
VWidth: 1000
Flags: W
AnchorPoint: "vowel" -250 250 mark 0
LayerCount: 2
Fore
SplineSet
-391.421875 -41.421875 m 128,-1,1
 -370.725097656 -41.421875 -370.725097656 -41.421875 -356.073486328 -56.0734863281 c 128,-1,2
 -341.421875 -70.7250976562 -341.421875 -70.7250976562 -341.421875 -91.421875 c 128,-1,3
 -341.421875 -112.118652344 -341.421875 -112.118652344 -356.073486328 -126.770263672 c 128,-1,4
 -370.725097656 -141.421875 -370.725097656 -141.421875 -391.421875 -141.421875 c 128,-1,5
 -412.118652344 -141.421875 -412.118652344 -141.421875 -426.770263672 -126.770263672 c 128,-1,6
 -441.421875 -112.118652344 -441.421875 -112.118652344 -441.421875 -91.421875 c 128,-1,7
 -441.421875 -70.7250976562 -441.421875 -70.7250976562 -426.770263672 -56.0734863281 c 128,-1,0
 -412.118652344 -41.421875 -412.118652344 -41.421875 -391.421875 -41.421875 c 128,-1,1
-108.578125 -41.421875 m 128,-1,9
 -87.8813476562 -41.421875 -87.8813476562 -41.421875 -73.2297363281 -56.0734863281 c 128,-1,10
 -58.578125 -70.7250976562 -58.578125 -70.7250976562 -58.578125 -91.421875 c 128,-1,11
 -58.578125 -112.118652344 -58.578125 -112.118652344 -73.2297363281 -126.770263672 c 128,-1,12
 -87.8813476562 -141.421875 -87.8813476562 -141.421875 -108.578125 -141.421875 c 128,-1,13
 -129.274902344 -141.421875 -129.274902344 -141.421875 -143.926513672 -126.770263672 c 128,-1,14
 -158.578125 -112.118652344 -158.578125 -112.118652344 -158.578125 -91.421875 c 128,-1,15
 -158.578125 -70.7250976562 -158.578125 -70.7250976562 -143.926513672 -56.0734863281 c 128,-1,8
 -129.274902344 -41.421875 -129.274902344 -41.421875 -108.578125 -41.421875 c 128,-1,9
-250 -100 m 128,-1,17
 -229 -100 -229 -100 -214.5 -114.5 c 128,-1,18
 -200 -129 -200 -129 -200 -150 c 128,-1,19
 -200 -171 -200 -171 -214.5 -185.5 c 128,-1,20
 -229 -200 -229 -200 -250 -200 c 128,-1,21
 -271 -200 -271 -200 -285.5 -185.5 c 128,-1,22
 -300 -171 -300 -171 -300 -150 c 128,-1,23
 -300 -129 -300 -129 -285.5 -114.5 c 128,-1,16
 -271 -100 -271 -100 -250 -100 c 128,-1,17
EndSplineSet
EndChar

StartChar: X
Encoding: 88 88 56
Width: 500
Flags: W
AnchorPoint: "vowel" 250 250 basechar 0
LayerCount: 2
Fore
SplineSet
50 300 m 128,-1,1
 71 300 71 300 85.5 285.5 c 128,-1,2
 100 271 100 271 100 250 c 128,-1,3
 100 229 100 229 85.5 214.5 c 128,-1,4
 71 200 71 200 50 200 c 128,-1,5
 29 200 29 200 14.5 214.5 c 128,-1,6
 0 229 0 229 0 250 c 128,-1,7
 0 271 0 271 14.5 285.5 c 128,-1,0
 29 300 29 300 50 300 c 128,-1,1
108.578125 158.578125 m 128,-1,9
 129.274902344 158.578125 129.274902344 158.578125 143.926513672 143.926513672 c 128,-1,10
 158.578125 129.274902344 158.578125 129.274902344 158.578125 108.578125 c 128,-1,11
 158.578125 87.8813476562 158.578125 87.8813476562 143.926513672 73.2297363281 c 128,-1,12
 129.274902344 58.578125 129.274902344 58.578125 108.578125 58.578125 c 128,-1,13
 87.8813476562 58.578125 87.8813476562 58.578125 73.2297363281 73.2297363281 c 128,-1,14
 58.578125 87.8813476562 58.578125 87.8813476562 58.578125 108.578125 c 128,-1,15
 58.578125 129.274902344 58.578125 129.274902344 73.2297363281 143.926513672 c 128,-1,8
 87.8813476562 158.578125 87.8813476562 158.578125 108.578125 158.578125 c 128,-1,9
250 100 m 128,-1,17
 271 100 271 100 285.5 85.5 c 128,-1,18
 300 71 300 71 300 50 c 128,-1,19
 300 29 300 29 285.5 14.5 c 128,-1,20
 271 0 271 0 250 0 c 128,-1,21
 229 0 229 0 214.5 14.5 c 128,-1,22
 200 29 200 29 200 50 c 128,-1,23
 200 71 200 71 214.5 85.5 c 128,-1,16
 229 100 229 100 250 100 c 128,-1,17
400 250 m 128,-1,25
 400 188 400 188 356 144 c 128,-1,26
 312 100 312 100 250 100 c 128,-1,27
 188 100 188 100 144 144 c 128,-1,28
 100 188 100 188 100 250 c 128,-1,29
 100 312 100 312 144 356 c 128,-1,30
 188 400 188 400 250 400 c 128,-1,31
 312 400 312 400 356 356 c 128,-1,24
 400 312 400 312 400 250 c 128,-1,25
EndSplineSet
EndChar

StartChar: Y
Encoding: 89 89 57
Width: 500
Flags: W
AnchorPoint: "vowel" 250 250 basechar 0
LayerCount: 2
Fore
SplineSet
108.578125 441.421875 m 128,-1,1
 129.274902344 441.421875 129.274902344 441.421875 143.926513672 426.770263672 c 128,-1,2
 158.578125 412.118652344 158.578125 412.118652344 158.578125 391.421875 c 128,-1,3
 158.578125 370.725097656 158.578125 370.725097656 143.926513672 356.073486328 c 128,-1,4
 129.274902344 341.421875 129.274902344 341.421875 108.578125 341.421875 c 128,-1,5
 87.8813476562 341.421875 87.8813476562 341.421875 73.2297363281 356.073486328 c 128,-1,6
 58.578125 370.725097656 58.578125 370.725097656 58.578125 391.421875 c 128,-1,7
 58.578125 412.118652344 58.578125 412.118652344 73.2297363281 426.770263672 c 128,-1,0
 87.8813476562 441.421875 87.8813476562 441.421875 108.578125 441.421875 c 128,-1,1
50 300 m 128,-1,9
 71 300 71 300 85.5 285.5 c 128,-1,10
 100 271 100 271 100 250 c 128,-1,11
 100 229 100 229 85.5 214.5 c 128,-1,12
 71 200 71 200 50 200 c 128,-1,13
 29 200 29 200 14.5 214.5 c 128,-1,14
 0 229 0 229 0 250 c 128,-1,15
 0 271 0 271 14.5 285.5 c 128,-1,8
 29 300 29 300 50 300 c 128,-1,9
108.578125 158.578125 m 128,-1,17
 129.274902344 158.578125 129.274902344 158.578125 143.926513672 143.926513672 c 128,-1,18
 158.578125 129.274902344 158.578125 129.274902344 158.578125 108.578125 c 128,-1,19
 158.578125 87.8813476562 158.578125 87.8813476562 143.926513672 73.2297363281 c 128,-1,20
 129.274902344 58.578125 129.274902344 58.578125 108.578125 58.578125 c 128,-1,21
 87.8813476562 58.578125 87.8813476562 58.578125 73.2297363281 73.2297363281 c 128,-1,22
 58.578125 87.8813476562 58.578125 87.8813476562 58.578125 108.578125 c 128,-1,23
 58.578125 129.274902344 58.578125 129.274902344 73.2297363281 143.926513672 c 128,-1,16
 87.8813476562 158.578125 87.8813476562 158.578125 108.578125 158.578125 c 128,-1,17
300 250 m 128,-1,25
 300 229 300 229 285.5 214.5 c 128,-1,26
 271 200 271 200 250 200 c 128,-1,27
 229 200 229 200 214.5 214.5 c 128,-1,28
 200 229 200 229 200 250 c 128,-1,29
 200 271 200 271 214.5 285.5 c 128,-1,30
 229 300 229 300 250 300 c 128,-1,31
 271 300 271 300 285.5 285.5 c 128,-1,24
 300 271 300 271 300 250 c 128,-1,25
250 375 m 128,-1,33
 260 375 260 375 267.5 367.5 c 128,-1,34
 275 360 275 360 275 350 c 128,-1,35
 275 340 275 340 267.5 332.5 c 128,-1,36
 260 325 260 325 250 325 c 128,-1,37
 240 325 240 325 232.5 332.5 c 128,-1,38
 225 340 225 340 225 350 c 128,-1,39
 225 360 225 360 232.5 367.5 c 128,-1,32
 240 375 240 375 250 375 c 128,-1,33
179.2890625 345.7109375 m 128,-1,41
 189.637451172 345.7109375 189.637451172 345.7109375 196.963256836 338.385131836 c 128,-1,42
 204.2890625 331.059326172 204.2890625 331.059326172 204.2890625 320.7109375 c 128,-1,43
 204.2890625 310.362548828 204.2890625 310.362548828 196.963256836 303.036743164 c 128,-1,44
 189.637451172 295.7109375 189.637451172 295.7109375 179.2890625 295.7109375 c 128,-1,45
 168.940673828 295.7109375 168.940673828 295.7109375 161.614868164 303.036743164 c 128,-1,46
 154.2890625 310.362548828 154.2890625 310.362548828 154.2890625 320.7109375 c 128,-1,47
 154.2890625 331.059326172 154.2890625 331.059326172 161.614868164 338.385131836 c 128,-1,40
 168.940673828 345.7109375 168.940673828 345.7109375 179.2890625 345.7109375 c 128,-1,41
320.7109375 345.7109375 m 128,-1,49
 331.059326172 345.7109375 331.059326172 345.7109375 338.385131836 338.385131836 c 128,-1,50
 345.7109375 331.059326172 345.7109375 331.059326172 345.7109375 320.7109375 c 128,-1,51
 345.7109375 310.362548828 345.7109375 310.362548828 338.385131836 303.036743164 c 128,-1,52
 331.059326172 295.7109375 331.059326172 295.7109375 320.7109375 295.7109375 c 128,-1,53
 310.362548828 295.7109375 310.362548828 295.7109375 303.036743164 303.036743164 c 128,-1,54
 295.7109375 310.362548828 295.7109375 310.362548828 295.7109375 320.7109375 c 128,-1,55
 295.7109375 331.059326172 295.7109375 331.059326172 303.036743164 338.385131836 c 128,-1,48
 310.362548828 345.7109375 310.362548828 345.7109375 320.7109375 345.7109375 c 128,-1,49
150 275 m 128,-1,57
 160 275 160 275 167.5 267.5 c 128,-1,58
 175 260 175 260 175 250 c 128,-1,59
 175 240 175 240 167.5 232.5 c 128,-1,60
 160 225 160 225 150 225 c 128,-1,61
 140 225 140 225 132.5 232.5 c 128,-1,62
 125 240 125 240 125 250 c 128,-1,63
 125 260 125 260 132.5 267.5 c 128,-1,56
 140 275 140 275 150 275 c 128,-1,57
350 275 m 128,-1,65
 360 275 360 275 367.5 267.5 c 128,-1,66
 375 260 375 260 375 250 c 128,-1,67
 375 240 375 240 367.5 232.5 c 128,-1,68
 360 225 360 225 350 225 c 128,-1,69
 340 225 340 225 332.5 232.5 c 128,-1,70
 325 240 325 240 325 250 c 128,-1,71
 325 260 325 260 332.5 267.5 c 128,-1,64
 340 275 340 275 350 275 c 128,-1,65
179.2890625 204.2890625 m 128,-1,73
 189.637451172 204.2890625 189.637451172 204.2890625 196.963256836 196.963256836 c 128,-1,74
 204.2890625 189.637451172 204.2890625 189.637451172 204.2890625 179.2890625 c 128,-1,75
 204.2890625 168.940673828 204.2890625 168.940673828 196.963256836 161.614868164 c 128,-1,76
 189.637451172 154.2890625 189.637451172 154.2890625 179.2890625 154.2890625 c 128,-1,77
 168.940673828 154.2890625 168.940673828 154.2890625 161.614868164 161.614868164 c 128,-1,78
 154.2890625 168.940673828 154.2890625 168.940673828 154.2890625 179.2890625 c 128,-1,79
 154.2890625 189.637451172 154.2890625 189.637451172 161.614868164 196.963256836 c 128,-1,72
 168.940673828 204.2890625 168.940673828 204.2890625 179.2890625 204.2890625 c 128,-1,73
320.7109375 204.2890625 m 128,-1,81
 331.059326172 204.2890625 331.059326172 204.2890625 338.385131836 196.963256836 c 128,-1,82
 345.7109375 189.637451172 345.7109375 189.637451172 345.7109375 179.2890625 c 128,-1,83
 345.7109375 168.940673828 345.7109375 168.940673828 338.385131836 161.614868164 c 128,-1,84
 331.059326172 154.2890625 331.059326172 154.2890625 320.7109375 154.2890625 c 128,-1,85
 310.362548828 154.2890625 310.362548828 154.2890625 303.036743164 161.614868164 c 128,-1,86
 295.7109375 168.940673828 295.7109375 168.940673828 295.7109375 179.2890625 c 128,-1,87
 295.7109375 189.637451172 295.7109375 189.637451172 303.036743164 196.963256836 c 128,-1,80
 310.362548828 204.2890625 310.362548828 204.2890625 320.7109375 204.2890625 c 128,-1,81
250 175 m 128,-1,89
 260 175 260 175 267.5 167.5 c 128,-1,90
 275 160 275 160 275 150 c 128,-1,91
 275 140 275 140 267.5 132.5 c 128,-1,92
 260 125 260 125 250 125 c 128,-1,93
 240 125 240 125 232.5 132.5 c 128,-1,94
 225 140 225 140 225 150 c 128,-1,95
 225 160 225 160 232.5 167.5 c 128,-1,88
 240 175 240 175 250 175 c 128,-1,89
EndSplineSet
EndChar

